%TF.GenerationSoftware,KiCad,Pcbnew,10.0.5-1.fc44*%
%TF.CreationDate,2026-09-06T11:11:49+05:30*%
%TF.ProjectId,argb_controller,61726762-5f63-46f6-9e74-726f6c6c6572,rev?*%
%TF.SameCoordinates,Original*%
%TF.FileFunction,Copper,L2,Bot*%
%TF.FilePolarity,Positive*%
%FSLAX46Y46*%
G04 Gerber Fmt 4.6, Leading zero omitted, Abs format (unit mm)*
G04 Created by KiCad (PCBNEW 10.0.5-1.fc44) date 2026-09-06 11:11:49*
%MOMM*%
%LPD*%
G01*
G04 APERTURE LIST*
G04 Aperture macros list*
%AMRoundRect*
0 Rectangle with rounded corners*
0 $1 Rounding radius*
0 $2 $3 $4 $5 $6 $7 $8 $9 X,Y pos of 4 corners*
0 Add a 4 corners polygon primitive as box body*
4,1,4,$2,$3,$4,$5,$6,$7,$8,$9,$2,$3,0*
0 Add four circle primitives for the rounded corners*
1,1,$1+$1,$2,$3*
1,1,$1+$1,$4,$5*
1,1,$1+$1,$6,$7*
1,1,$1+$1,$8,$9*
0 Add four rect primitives between the rounded corners*
20,1,$1+$1,$2,$3,$4,$5,0*
20,1,$1+$1,$4,$5,$6,$7,0*
20,1,$1+$1,$6,$7,$8,$9,0*
20,1,$1+$1,$8,$9,$2,$3,0*%
G04 Aperture macros list end*
%TA.AperFunction,ComponentPad*%
%ADD10RoundRect,0.250000X-0.750000X-0.750000X0.750000X-0.750000X0.750000X0.750000X-0.750000X0.750000X0*%
%TD*%
%TA.AperFunction,ComponentPad*%
%ADD11C,2.000000*%
%TD*%
%TA.AperFunction,ComponentPad*%
%ADD12C,1.524000*%
%TD*%
%TA.AperFunction,ComponentPad*%
%ADD13R,1.397000X1.397000*%
%TD*%
%TA.AperFunction,ComponentPad*%
%ADD14C,1.397000*%
%TD*%
%TA.AperFunction,ComponentPad*%
%ADD15C,1.600000*%
%TD*%
%TA.AperFunction,ComponentPad*%
%ADD16C,1.500000*%
%TD*%
%TA.AperFunction,ComponentPad*%
%ADD17R,1.700000X1.700000*%
%TD*%
%TA.AperFunction,ComponentPad*%
%ADD18C,1.700000*%
%TD*%
%TA.AperFunction,ComponentPad*%
%ADD19RoundRect,0.510000X-1.190000X-1.190000X1.190000X-1.190000X1.190000X1.190000X-1.190000X1.190000X0*%
%TD*%
%TA.AperFunction,ComponentPad*%
%ADD20RoundRect,0.250000X-0.950000X-0.550000X0.950000X-0.550000X0.950000X0.550000X-0.950000X0.550000X0*%
%TD*%
%TA.AperFunction,ComponentPad*%
%ADD21O,2.400000X1.600000*%
%TD*%
%TA.AperFunction,ViaPad*%
%ADD22C,1.200000*%
%TD*%
%TA.AperFunction,ViaPad*%
%ADD23C,0.600000*%
%TD*%
%TA.AperFunction,Conductor*%
%ADD24C,0.600000*%
%TD*%
%TA.AperFunction,Conductor*%
%ADD25C,0.200000*%
%TD*%
G04 APERTURE END LIST*
D10*
%TO.P,bulk_cap1,1*%
%TO.N,+5V*%
X54500000Y-44000000D03*
D11*
%TO.P,bulk_cap1,2*%
%TO.N,GND*%
X59500000Y-44000000D03*
%TD*%
D12*
%TO.P,U3,1,P26_A0_D0_1*%
%TO.N,D0*%
X67880000Y-39380000D03*
%TO.P,U3,2,P27_A1_D1_2*%
%TO.N,D1*%
X67880000Y-41920000D03*
%TO.P,U3,3,P28_A2_D2_3*%
%TO.N,D2*%
X67880000Y-44460000D03*
%TO.P,U3,4,P29_A3_D3_4*%
%TO.N,D3*%
X67880000Y-47000000D03*
%TO.P,U3,5,P6_SDA_D4_5*%
%TO.N,unconnected-(U3-P6_SDA_D4-Pad5)_1*%
X67880000Y-49540000D03*
%TO.P,U3,6,P7_SCL_D5_6*%
%TO.N,unconnected-(U3-P7_SCL_D5-Pad6)*%
X67880000Y-52080000D03*
%TO.P,U3,7,P0_D6_TX_7*%
%TO.N,unconnected-(U3-P0_D6_TX-Pad7)_1*%
X67880000Y-54620000D03*
%TO.P,U3,8,P1_D7_RX_8*%
%TO.N,unconnected-(U3-P1_D7_RX-Pad8)*%
X83120000Y-54620000D03*
%TO.P,U3,9,P2_D8_SCK_9*%
%TO.N,unconnected-(U3-P2_D8_SCK-Pad9)*%
X83120000Y-52080000D03*
%TO.P,U3,10,P4_D9_MISO_10*%
%TO.N,unconnected-(U3-P4_D9_MISO-Pad10)*%
X83120000Y-49540000D03*
%TO.P,U3,11,P3_D10_MOSI_11*%
%TO.N,unconnected-(U3-P3_D10_MOSI-Pad11)*%
X83120000Y-47000000D03*
%TO.P,U3,12,3V3_12*%
%TO.N,unconnected-(U3-3V3-Pad12)_1*%
X83120000Y-44460000D03*
%TO.P,U3,13,GND_13*%
%TO.N,GND*%
X83120000Y-41920000D03*
%TO.P,U3,14,VBUS_14*%
%TO.N,unconnected-(U3-VBUS-Pad14)_1*%
X83120000Y-39380000D03*
%TD*%
D13*
%TO.P,F1,1*%
%TO.N,+5V*%
X56000000Y-61080000D03*
D14*
%TO.P,F1,2*%
%TO.N,Net-(Molex_power_connector1-Pin_4)*%
X56000000Y-56000000D03*
%TD*%
D15*
%TO.P,R1,1*%
%TO.N,Net-(R1-Pad1)*%
X54385000Y-96230000D03*
%TO.P,R1,2*%
%TO.N,ARGB1_data*%
X54385000Y-106390000D03*
%TD*%
D16*
%TO.P,decoupling_cap1,1*%
%TO.N,+5V*%
X71500000Y-71500000D03*
%TO.P,decoupling_cap1,2*%
%TO.N,GND*%
X71500000Y-76500000D03*
%TD*%
D15*
%TO.P,R2,1*%
%TO.N,Net-(R2-Pad1)*%
X54500000Y-111500000D03*
%TO.P,R2,2*%
%TO.N,ARGB2_data*%
X54500000Y-121660000D03*
%TD*%
D17*
%TO.P,ARGB2,1,Pin_1_1*%
%TO.N,+5V*%
X48500000Y-119620000D03*
D18*
%TO.P,ARGB2,2,Pin_2_2*%
%TO.N,ARGB2_data*%
X48500000Y-117080000D03*
%TO.P,ARGB2,3,4_3*%
%TO.N,unconnected-(ARGB2-4-Pad3)*%
X48500000Y-114540000D03*
%TO.P,ARGB2,4,Pin_4_4*%
%TO.N,GND*%
X48500000Y-112000000D03*
%TD*%
D17*
%TO.P,ARGB4,1,Pin_1_1*%
%TO.N,+5V*%
X76500000Y-111920000D03*
D18*
%TO.P,ARGB4,2,Pin_2_2*%
%TO.N,ARGB4_data*%
X76500000Y-114460000D03*
%TO.P,ARGB4,3,open_3*%
%TO.N,unconnected-(ARGB4-open-Pad3)*%
X76500000Y-117000000D03*
%TO.P,ARGB4,4,Pin_4_4*%
%TO.N,GND*%
X76500000Y-119540000D03*
%TD*%
D15*
%TO.P,R3,1*%
%TO.N,Net-(R3-Pad1)*%
X71000000Y-106080000D03*
%TO.P,R3,2*%
%TO.N,ARGB3_data*%
X71000000Y-95920000D03*
%TD*%
D19*
%TO.P,Molex_power_connector1,1,Pin_1_1*%
%TO.N,unconnected-(Molex_power_connector1-Pin_1-Pad1)*%
X44000000Y-43071500D03*
%TO.P,Molex_power_connector1,2,Pin_2_2*%
%TO.N,GND*%
X44000000Y-48151500D03*
%TO.P,Molex_power_connector1,3,Pin_3_3*%
X44000000Y-53231500D03*
%TO.P,Molex_power_connector1,4,Pin_4_4*%
%TO.N,Net-(Molex_power_connector1-Pin_4)*%
X44000000Y-58311500D03*
%TD*%
D17*
%TO.P,ARGB1,1,Pin_1_1*%
%TO.N,+5V*%
X48500000Y-104770000D03*
D18*
%TO.P,ARGB1,2,Pin_2_2*%
%TO.N,ARGB1_data*%
X48500000Y-102230000D03*
%TO.P,ARGB1,3,open_3*%
%TO.N,unconnected-(ARGB1-open-Pad3)*%
X48500000Y-99690000D03*
%TO.P,ARGB1,4,Pin_4_4*%
%TO.N,GND*%
X48500000Y-97150000D03*
%TD*%
D17*
%TO.P,ARGB3,1,Pin_1_1*%
%TO.N,+5V*%
X76500000Y-96920000D03*
D18*
%TO.P,ARGB3,2,Pin_2_2*%
%TO.N,ARGB3_data*%
X76500000Y-99460000D03*
%TO.P,ARGB3,3,open_3*%
%TO.N,unconnected-(ARGB3-open-Pad3)*%
X76500000Y-102000000D03*
%TO.P,ARGB3,4,Pin_4_4*%
%TO.N,GND*%
X76500000Y-104540000D03*
%TD*%
D20*
%TO.P,U1,1*%
%TO.N,GND*%
X57380000Y-71920000D03*
D21*
%TO.P,U1,2*%
%TO.N,D0*%
X57380000Y-74460000D03*
%TO.P,U1,3*%
%TO.N,Net-(R1-Pad1)*%
X57380000Y-77000000D03*
%TO.P,U1,4*%
%TO.N,GND*%
X57380000Y-79540000D03*
%TO.P,U1,5*%
%TO.N,D1*%
X57380000Y-82080000D03*
%TO.P,U1,6*%
%TO.N,Net-(R2-Pad1)*%
X57380000Y-84620000D03*
%TO.P,U1,7,GND_7*%
%TO.N,GND*%
X57380000Y-87160000D03*
%TO.P,U1,8*%
%TO.N,Net-(R3-Pad1)*%
X65000000Y-87160000D03*
%TO.P,U1,9*%
%TO.N,D2*%
X65000000Y-84620000D03*
%TO.P,U1,10*%
%TO.N,GND*%
X65000000Y-82080000D03*
%TO.P,U1,11*%
%TO.N,Net-(R4-Pad1)*%
X65000000Y-79540000D03*
%TO.P,U1,12*%
%TO.N,D3*%
X65000000Y-77000000D03*
%TO.P,U1,13*%
%TO.N,GND*%
X65000000Y-74460000D03*
%TO.P,U1,14,VCC_14*%
%TO.N,+5V*%
X65000000Y-71920000D03*
%TD*%
D15*
%TO.P,R4,1*%
%TO.N,Net-(R4-Pad1)*%
X71000000Y-121580000D03*
%TO.P,R4,2*%
%TO.N,ARGB4_data*%
X71000000Y-111420000D03*
%TD*%
D22*
%TO.N,+5V*%
X51000000Y-61000000D03*
X79500000Y-71000000D03*
%TO.N,GND*%
X52500000Y-91000000D03*
D23*
%TO.N,D0*%
X62500000Y-54000000D03*
%TO.N,D1*%
X51100000Y-82000000D03*
%TO.N,D2*%
X77000000Y-68500000D03*
%TO.N,D3*%
X64500000Y-59000000D03*
%TO.N,Net-(R1-Pad1)*%
X54500000Y-88500000D03*
%TO.N,Net-(R4-Pad1)*%
X80000000Y-93500000D03*
%TD*%
%TO.N,+5V*%
D24*
X51000000Y-44000000D02*
X54500000Y-44000000D01*
X51000000Y-61000000D02*
X51000000Y-44000000D01*
X79500000Y-71000000D02*
X78500000Y-71000000D01*
X78000000Y-71500000D02*
X71500000Y-71500000D01*
X78500000Y-71000000D02*
X78000000Y-71500000D01*
%TO.N,GND*%
X74500000Y-109000000D02*
X74000000Y-109500000D01*
X64000000Y-94500000D02*
X48500000Y-94500000D01*
X64000000Y-109500000D02*
X64000000Y-94500000D01*
X59920000Y-71920000D02*
X57380000Y-71920000D01*
X64000000Y-91000000D02*
X64000000Y-94500000D01*
X76500000Y-104540000D02*
X74960000Y-104540000D01*
X60500000Y-76420000D02*
X60500000Y-72500000D01*
X74000000Y-109500000D02*
X64000000Y-109500000D01*
X76500000Y-124500000D02*
X76000000Y-125000000D01*
X76500000Y-119540000D02*
X76500000Y-124500000D01*
X48500000Y-109500000D02*
X48500000Y-112000000D01*
X64500000Y-125000000D02*
X64000000Y-124500000D01*
X64000000Y-109500000D02*
X48500000Y-109500000D01*
X74500000Y-105000000D02*
X74500000Y-109000000D01*
X64000000Y-124500000D02*
X64000000Y-109500000D01*
X57380000Y-79540000D02*
X60500000Y-76420000D01*
X60500000Y-72500000D02*
X59920000Y-71920000D01*
X76000000Y-125000000D02*
X64500000Y-125000000D01*
X48500000Y-94500000D02*
X48500000Y-97150000D01*
X74960000Y-104540000D02*
X74500000Y-105000000D01*
X52500000Y-91000000D02*
X64000000Y-91000000D01*
%TO.N,D0*%
D25*
X57380000Y-74460000D02*
X53540000Y-74460000D01*
X61000000Y-65500000D02*
X61000000Y-55500000D01*
X53500000Y-74500000D02*
X53500000Y-70000000D01*
X58000000Y-65500000D02*
X61000000Y-65500000D01*
X53540000Y-74460000D02*
X53500000Y-74500000D01*
X61000000Y-55500000D02*
X62500000Y-54000000D01*
X53500000Y-70000000D02*
X58000000Y-65500000D01*
%TO.N,D1*%
X51100000Y-82000000D02*
X51100000Y-69900000D01*
X51100000Y-69900000D02*
X56500000Y-64500000D01*
X67880000Y-41920000D02*
X64080000Y-41920000D01*
X59000000Y-64500000D02*
X59000000Y-53000000D01*
X64000000Y-53000000D02*
X64000000Y-42000000D01*
X59000000Y-53000000D02*
X64000000Y-53000000D01*
X56500000Y-64500000D02*
X59000000Y-64500000D01*
X64080000Y-41920000D02*
X64000000Y-42000000D01*
%TO.N,D2*%
X77000000Y-68500000D02*
X77000000Y-60000000D01*
X67500000Y-60000000D02*
X65000000Y-57500000D01*
X65000000Y-57500000D02*
X65000000Y-44500000D01*
X65000000Y-44500000D02*
X65040000Y-44460000D01*
X65040000Y-44460000D02*
X67880000Y-44460000D01*
X77000000Y-60000000D02*
X67500000Y-60000000D01*
%TO.N,D3*%
X65000000Y-77000000D02*
X67500000Y-77000000D01*
X67500000Y-62000000D02*
X64500000Y-59000000D01*
X67500000Y-77000000D02*
X67500000Y-62000000D01*
%TO.N,Net-(R1-Pad1)*%
X54500000Y-88500000D02*
X54000000Y-88000000D01*
X54000000Y-88000000D02*
X54000000Y-77000000D01*
X54000000Y-77000000D02*
X57380000Y-77000000D01*
%TO.N,ARGB1_data*%
X54385000Y-106390000D02*
X52390000Y-106390000D01*
X48500000Y-102230000D02*
X51730000Y-102230000D01*
X52390000Y-106390000D02*
X52000000Y-106000000D01*
X52000000Y-102500000D02*
X52000000Y-106000000D01*
X51730000Y-102230000D02*
X52000000Y-102500000D01*
%TO.N,Net-(R2-Pad1)*%
X57000000Y-125000000D02*
X41500000Y-125000000D01*
X54500000Y-111500000D02*
X57500000Y-111500000D01*
X41500000Y-90000000D02*
X55500000Y-90000000D01*
X41500000Y-125000000D02*
X41500000Y-90000000D01*
X57500000Y-111500000D02*
X58000000Y-112000000D01*
X57260000Y-84500000D02*
X57380000Y-84620000D01*
X58000000Y-112000000D02*
X58000000Y-124000000D01*
X55500000Y-90000000D02*
X55500000Y-84500000D01*
X58000000Y-124000000D02*
X57000000Y-125000000D01*
X55500000Y-84500000D02*
X57260000Y-84500000D01*
%TO.N,ARGB2_data*%
X52000000Y-117500000D02*
X52000000Y-121500000D01*
X48500000Y-117080000D02*
X51580000Y-117080000D01*
X51580000Y-117080000D02*
X52000000Y-117500000D01*
X52160000Y-121660000D02*
X54500000Y-121660000D01*
X52000000Y-121500000D02*
X52160000Y-121660000D01*
%TO.N,ARGB4_data*%
X74000000Y-112000000D02*
X74000000Y-114500000D01*
X74000000Y-114500000D02*
X74040000Y-114460000D01*
X73420000Y-111420000D02*
X74000000Y-112000000D01*
X71000000Y-111420000D02*
X73420000Y-111420000D01*
X74040000Y-114460000D02*
X76500000Y-114460000D01*
%TO.N,Net-(R3-Pad1)*%
X65000000Y-105000000D02*
X65000000Y-87160000D01*
X71000000Y-106080000D02*
X66080000Y-106080000D01*
X66080000Y-106080000D02*
X65000000Y-105000000D01*
%TO.N,ARGB3_data*%
X73500000Y-99500000D02*
X73540000Y-99460000D01*
X73540000Y-99460000D02*
X76500000Y-99460000D01*
X73000000Y-96000000D02*
X73000000Y-99500000D01*
X71000000Y-95920000D02*
X72920000Y-95920000D01*
X72920000Y-95920000D02*
X73000000Y-96000000D01*
X73000000Y-99500000D02*
X73500000Y-99500000D01*
%TO.N,Net-(R4-Pad1)*%
X79540000Y-79540000D02*
X65000000Y-79540000D01*
X80000000Y-93500000D02*
X80000000Y-80000000D01*
X80000000Y-80000000D02*
X79540000Y-79540000D01*
%TD*%
%TA.AperFunction,Conductor*%
%TO.N,GND*%
G36*
X55817437Y-77620185D02*
G01*
X55860883Y-77668205D01*
X55867715Y-77681614D01*
X55988028Y-77847213D01*
X56132786Y-77991971D01*
X56287749Y-78104556D01*
X56298390Y-78112287D01*
X56370424Y-78148990D01*
X56391629Y-78159795D01*
X56442425Y-78207770D01*
X56459220Y-78275591D01*
X56436682Y-78341726D01*
X56391629Y-78380765D01*
X56298650Y-78428140D01*
X56133105Y-78548417D01*
X56133104Y-78548417D01*
X55988417Y-78693104D01*
X55988417Y-78693105D01*
X55868140Y-78858650D01*
X55775244Y-79040970D01*
X55712009Y-79235586D01*
X55695472Y-79340000D01*
X57033589Y-79340000D01*
X57007259Y-79385606D01*
X56980000Y-79487339D01*
X56980000Y-79592661D01*
X57007259Y-79694394D01*
X57033590Y-79740000D01*
X55695472Y-79740000D01*
X55712009Y-79844413D01*
X55775244Y-80039029D01*
X55868140Y-80221349D01*
X55988417Y-80386894D01*
X55988417Y-80386895D01*
X56133104Y-80531582D01*
X56298652Y-80651861D01*
X56391628Y-80699234D01*
X56442425Y-80747208D01*
X56459220Y-80815029D01*
X56436683Y-80881164D01*
X56391630Y-80920203D01*
X56298388Y-80967713D01*
X56132786Y-81088028D01*
X55988028Y-81232786D01*
X55867715Y-81398386D01*
X55774781Y-81580776D01*
X55711522Y-81775465D01*
X55679500Y-81977648D01*
X55679500Y-82182351D01*
X55711522Y-82384534D01*
X55774781Y-82579223D01*
X55867715Y-82761613D01*
X55988028Y-82927213D01*
X56132786Y-83071971D01*
X56287749Y-83184556D01*
X56298390Y-83192287D01*
X56389840Y-83238883D01*
X56391080Y-83239515D01*
X56441876Y-83287490D01*
X56458671Y-83355311D01*
X56436134Y-83421446D01*
X56391080Y-83460485D01*
X56298386Y-83507715D01*
X56132786Y-83628028D01*
X55988030Y-83772784D01*
X55933106Y-83848384D01*
X55877777Y-83891051D01*
X55832787Y-83899500D01*
X55420943Y-83899500D01*
X55268216Y-83940423D01*
X55268209Y-83940426D01*
X55131290Y-84019475D01*
X55131282Y-84019481D01*
X55019481Y-84131282D01*
X55019475Y-84131290D01*
X54940426Y-84268209D01*
X54940423Y-84268216D01*
X54899500Y-84420943D01*
X54899500Y-87613444D01*
X54879815Y-87680483D01*
X54827011Y-87726238D01*
X54757853Y-87736182D01*
X54739575Y-87731202D01*
X54739324Y-87732031D01*
X54733500Y-87730264D01*
X54733497Y-87730263D01*
X54733492Y-87730262D01*
X54733489Y-87730261D01*
X54700309Y-87723661D01*
X54638398Y-87691276D01*
X54603824Y-87630561D01*
X54600500Y-87602044D01*
X54600500Y-77724500D01*
X54620185Y-77657461D01*
X54672989Y-77611706D01*
X54724500Y-77600500D01*
X55750398Y-77600500D01*
X55817437Y-77620185D01*
G37*
%TD.AperFunction*%
%TA.AperFunction,Conductor*%
G36*
X87443039Y-22519685D02*
G01*
X87488794Y-22572489D01*
X87500000Y-22624000D01*
X87500000Y-126876000D01*
X87480315Y-126943039D01*
X87427511Y-126988794D01*
X87376000Y-127000000D01*
X38124000Y-127000000D01*
X38056961Y-126980315D01*
X38011206Y-126927511D01*
X38000000Y-126876000D01*
X38000000Y-89920943D01*
X40899500Y-89920943D01*
X40899500Y-125079056D01*
X40940423Y-125231783D01*
X40940426Y-125231790D01*
X41019475Y-125368709D01*
X41019478Y-125368713D01*
X41019480Y-125368716D01*
X41131284Y-125480520D01*
X41131286Y-125480521D01*
X41131290Y-125480524D01*
X41268209Y-125559573D01*
X41268216Y-125559577D01*
X41420943Y-125600500D01*
X41579057Y-125600500D01*
X56913331Y-125600500D01*
X56913347Y-125600501D01*
X56920943Y-125600501D01*
X57079054Y-125600501D01*
X57079057Y-125600501D01*
X57231785Y-125559577D01*
X57281904Y-125530639D01*
X57368716Y-125480520D01*
X57480520Y-125368716D01*
X57480520Y-125368714D01*
X57490728Y-125358507D01*
X57490729Y-125358504D01*
X58480520Y-124368716D01*
X58559577Y-124231784D01*
X58600501Y-124079057D01*
X58600501Y-123920942D01*
X58600501Y-123913347D01*
X58600500Y-123913329D01*
X58600500Y-121477648D01*
X69699500Y-121477648D01*
X69699500Y-121682351D01*
X69731522Y-121884534D01*
X69794781Y-122079223D01*
X69826014Y-122140520D01*
X69887147Y-122260500D01*
X69887715Y-122261613D01*
X70008028Y-122427213D01*
X70152786Y-122571971D01*
X70262892Y-122651966D01*
X70318390Y-122692287D01*
X70434607Y-122751503D01*
X70500776Y-122785218D01*
X70500778Y-122785218D01*
X70500781Y-122785220D01*
X70605137Y-122819127D01*
X70695465Y-122848477D01*
X70796557Y-122864488D01*
X70897648Y-122880500D01*
X70897649Y-122880500D01*
X71102351Y-122880500D01*
X71102352Y-122880500D01*
X71304534Y-122848477D01*
X71499219Y-122785220D01*
X71681610Y-122692287D01*
X71774590Y-122624732D01*
X71847213Y-122571971D01*
X71847215Y-122571968D01*
X71847219Y-122571966D01*
X71991966Y-122427219D01*
X71991968Y-122427215D01*
X71991971Y-122427213D01*
X72063903Y-122328205D01*
X72112287Y-122261610D01*
X72205220Y-122079219D01*
X72268477Y-121884534D01*
X72300500Y-121682352D01*
X72300500Y-121477648D01*
X72268477Y-121275466D01*
X72205220Y-121080781D01*
X72205218Y-121080778D01*
X72205218Y-121080776D01*
X72159879Y-120991795D01*
X72112287Y-120898390D01*
X72060817Y-120827547D01*
X71991971Y-120732786D01*
X71847213Y-120588028D01*
X71681613Y-120467715D01*
X71681612Y-120467714D01*
X71681610Y-120467713D01*
X71624653Y-120438691D01*
X71499223Y-120374781D01*
X71304534Y-120311522D01*
X71129995Y-120283878D01*
X71102352Y-120279500D01*
X70897648Y-120279500D01*
X70873329Y-120283351D01*
X70695465Y-120311522D01*
X70500776Y-120374781D01*
X70318386Y-120467715D01*
X70152786Y-120588028D01*
X70008028Y-120732786D01*
X69887715Y-120898386D01*
X69794781Y-121080776D01*
X69731522Y-121275465D01*
X69699500Y-121477648D01*
X58600500Y-121477648D01*
X58600500Y-112089060D01*
X58600501Y-112089047D01*
X58600501Y-111920944D01*
X58569971Y-111807007D01*
X58559577Y-111768216D01*
X58559573Y-111768209D01*
X58480524Y-111631290D01*
X58480521Y-111631286D01*
X58480520Y-111631284D01*
X58166884Y-111317648D01*
X69699500Y-111317648D01*
X69699500Y-111522351D01*
X69731522Y-111724534D01*
X69794781Y-111919223D01*
X69835940Y-112000000D01*
X69887147Y-112100500D01*
X69887715Y-112101613D01*
X70008028Y-112267213D01*
X70152786Y-112411971D01*
X70262892Y-112491966D01*
X70318390Y-112532287D01*
X70434607Y-112591503D01*
X70500776Y-112625218D01*
X70500778Y-112625218D01*
X70500781Y-112625220D01*
X70605137Y-112659127D01*
X70695465Y-112688477D01*
X70796557Y-112704488D01*
X70897648Y-112720500D01*
X70897649Y-112720500D01*
X71102351Y-112720500D01*
X71102352Y-112720500D01*
X71304534Y-112688477D01*
X71499219Y-112625220D01*
X71681610Y-112532287D01*
X71774590Y-112464732D01*
X71847213Y-112411971D01*
X71847215Y-112411968D01*
X71847219Y-112411966D01*
X71991966Y-112267219D01*
X71991968Y-112267215D01*
X71991971Y-112267213D01*
X72112284Y-112101614D01*
X72112285Y-112101613D01*
X72112287Y-112101610D01*
X72119117Y-112088204D01*
X72167091Y-112037409D01*
X72229602Y-112020500D01*
X73119903Y-112020500D01*
X73186942Y-112040185D01*
X73207584Y-112056819D01*
X73363181Y-112212416D01*
X73396666Y-112273739D01*
X73399500Y-112300097D01*
X73399500Y-114413330D01*
X73399499Y-114413348D01*
X73399499Y-114579054D01*
X73399498Y-114579054D01*
X73440423Y-114731787D01*
X73440424Y-114731788D01*
X73451997Y-114751832D01*
X73451999Y-114751835D01*
X73519477Y-114868712D01*
X73519481Y-114868717D01*
X73631284Y-114980520D01*
X73718095Y-115030639D01*
X73718097Y-115030641D01*
X73756151Y-115052611D01*
X73768215Y-115059577D01*
X73920943Y-115100501D01*
X73920946Y-115100501D01*
X74079055Y-115100501D01*
X74079057Y-115100501D01*
X74212572Y-115064724D01*
X74244666Y-115060500D01*
X75214281Y-115060500D01*
X75281320Y-115080185D01*
X75324765Y-115128205D01*
X75344947Y-115167814D01*
X75344948Y-115167815D01*
X75469890Y-115339786D01*
X75620213Y-115490109D01*
X75792182Y-115615050D01*
X75800946Y-115619516D01*
X75851742Y-115667491D01*
X75868536Y-115735312D01*
X75845998Y-115801447D01*
X75800946Y-115840484D01*
X75792182Y-115844949D01*
X75620213Y-115969890D01*
X75469890Y-116120213D01*
X75344951Y-116292179D01*
X75248444Y-116481585D01*
X75182753Y-116683760D01*
X75149500Y-116893713D01*
X75149500Y-117106287D01*
X75182754Y-117316243D01*
X75216773Y-117420943D01*
X75248444Y-117518414D01*
X75344951Y-117707820D01*
X75469890Y-117879786D01*
X75620213Y-118030109D01*
X75792179Y-118155048D01*
X75792181Y-118155049D01*
X75792184Y-118155051D01*
X75801493Y-118159794D01*
X75852290Y-118207766D01*
X75869087Y-118275587D01*
X75846552Y-118341722D01*
X75801502Y-118380762D01*
X75792449Y-118385375D01*
X75792445Y-118385377D01*
X75697326Y-118454483D01*
X75697326Y-118454484D01*
X76314822Y-119071980D01*
X76307007Y-119074075D01*
X76192993Y-119139901D01*
X76099901Y-119232993D01*
X76034075Y-119347007D01*
X76031980Y-119354822D01*
X75414484Y-118737326D01*
X75414483Y-118737326D01*
X75345377Y-118832445D01*
X75345376Y-118832447D01*
X75248904Y-119021782D01*
X75183242Y-119223869D01*
X75183242Y-119223872D01*
X75150000Y-119433753D01*
X75150000Y-119646246D01*
X75183242Y-119856127D01*
X75183242Y-119856130D01*
X75248904Y-120058217D01*
X75345375Y-120247550D01*
X75414484Y-120342672D01*
X76031980Y-119725176D01*
X76034075Y-119732993D01*
X76099901Y-119847007D01*
X76192993Y-119940099D01*
X76307007Y-120005925D01*
X76314822Y-120008019D01*
X75697326Y-120625513D01*
X75697326Y-120625515D01*
X75792442Y-120694620D01*
X75981782Y-120791095D01*
X76183870Y-120856757D01*
X76393754Y-120890000D01*
X76606246Y-120890000D01*
X76816127Y-120856757D01*
X76816130Y-120856757D01*
X77018217Y-120791095D01*
X77207554Y-120694622D01*
X77302672Y-120625514D01*
X77302673Y-120625514D01*
X76685177Y-120008019D01*
X76692993Y-120005925D01*
X76807007Y-119940099D01*
X76900099Y-119847007D01*
X76965925Y-119732993D01*
X76968019Y-119725178D01*
X77585514Y-120342673D01*
X77585514Y-120342672D01*
X77654622Y-120247554D01*
X77751095Y-120058217D01*
X77816757Y-119856130D01*
X77816757Y-119856127D01*
X77850000Y-119646246D01*
X77850000Y-119433753D01*
X77816757Y-119223872D01*
X77816757Y-119223869D01*
X77751095Y-119021782D01*
X77654620Y-118832442D01*
X77585515Y-118737326D01*
X77585513Y-118737326D01*
X76968018Y-119354821D01*
X76965925Y-119347007D01*
X76900099Y-119232993D01*
X76807007Y-119139901D01*
X76692993Y-119074075D01*
X76685177Y-119071980D01*
X77302672Y-118454484D01*
X77207547Y-118385373D01*
X77207547Y-118385372D01*
X77198500Y-118380763D01*
X77147706Y-118332788D01*
X77130912Y-118264966D01*
X77153451Y-118198832D01*
X77198508Y-118159793D01*
X77207816Y-118155051D01*
X77320303Y-118073325D01*
X77379786Y-118030109D01*
X77379788Y-118030106D01*
X77379792Y-118030104D01*
X77530104Y-117879792D01*
X77530106Y-117879788D01*
X77530109Y-117879786D01*
X77655048Y-117707820D01*
X77655047Y-117707820D01*
X77655051Y-117707816D01*
X77751557Y-117518412D01*
X77817246Y-117316243D01*
X77850500Y-117106287D01*
X77850500Y-116893713D01*
X77817246Y-116683757D01*
X77751557Y-116481588D01*
X77655051Y-116292184D01*
X77655049Y-116292181D01*
X77655048Y-116292179D01*
X77530109Y-116120213D01*
X77379786Y-115969890D01*
X77207820Y-115844951D01*
X77207115Y-115844591D01*
X77199054Y-115840485D01*
X77148259Y-115792512D01*
X77131463Y-115724692D01*
X77153999Y-115658556D01*
X77199054Y-115619515D01*
X77207816Y-115615051D01*
X77269681Y-115570104D01*
X77379786Y-115490109D01*
X77379788Y-115490106D01*
X77379792Y-115490104D01*
X77530104Y-115339792D01*
X77530106Y-115339788D01*
X77530109Y-115339786D01*
X77655048Y-115167820D01*
X77655047Y-115167820D01*
X77655051Y-115167816D01*
X77751557Y-114978412D01*
X77817246Y-114776243D01*
X77850500Y-114566287D01*
X77850500Y-114353713D01*
X77817246Y-114143757D01*
X77751557Y-113941588D01*
X77655051Y-113752184D01*
X77655049Y-113752181D01*
X77655048Y-113752179D01*
X77530109Y-113580213D01*
X77416569Y-113466673D01*
X77383084Y-113405350D01*
X77388068Y-113335658D01*
X77429940Y-113279725D01*
X77460915Y-113262810D01*
X77592331Y-113213796D01*
X77707546Y-113127546D01*
X77793796Y-113012331D01*
X77844091Y-112877483D01*
X77850500Y-112817873D01*
X77850499Y-111022128D01*
X77844827Y-110969360D01*
X77844091Y-110962516D01*
X77793797Y-110827671D01*
X77793793Y-110827664D01*
X77707547Y-110712455D01*
X77707544Y-110712452D01*
X77592335Y-110626206D01*
X77592328Y-110626202D01*
X77457482Y-110575908D01*
X77457483Y-110575908D01*
X77397883Y-110569501D01*
X77397881Y-110569500D01*
X77397873Y-110569500D01*
X77397864Y-110569500D01*
X75602129Y-110569500D01*
X75602123Y-110569501D01*
X75542516Y-110575908D01*
X75407671Y-110626202D01*
X75407664Y-110626206D01*
X75292455Y-110712452D01*
X75292452Y-110712455D01*
X75206206Y-110827664D01*
X75206202Y-110827671D01*
X75155908Y-110962517D01*
X75149784Y-111019481D01*
X75149501Y-111022123D01*
X75149500Y-111022135D01*
X75149500Y-112817870D01*
X75149501Y-112817876D01*
X75155908Y-112877483D01*
X75206202Y-113012328D01*
X75206206Y-113012335D01*
X75292452Y-113127544D01*
X75292455Y-113127547D01*
X75407664Y-113213793D01*
X75407671Y-113213797D01*
X75539082Y-113262810D01*
X75595016Y-113304681D01*
X75619433Y-113370145D01*
X75604582Y-113438418D01*
X75583431Y-113466673D01*
X75469889Y-113580215D01*
X75344948Y-113752184D01*
X75344947Y-113752185D01*
X75324765Y-113791795D01*
X75276791Y-113842591D01*
X75214281Y-113859500D01*
X74724500Y-113859500D01*
X74657461Y-113839815D01*
X74611706Y-113787011D01*
X74600500Y-113735500D01*
X74600500Y-112089059D01*
X74600501Y-112089046D01*
X74600501Y-111920945D01*
X74600501Y-111920944D01*
X74600501Y-111920943D01*
X74559577Y-111768215D01*
X74510185Y-111682666D01*
X74480520Y-111631284D01*
X74368716Y-111519480D01*
X74368715Y-111519479D01*
X74364385Y-111515149D01*
X74364374Y-111515139D01*
X73907590Y-111058355D01*
X73907588Y-111058352D01*
X73788717Y-110939481D01*
X73788716Y-110939480D01*
X73701904Y-110889360D01*
X73701904Y-110889359D01*
X73701900Y-110889358D01*
X73651785Y-110860423D01*
X73499057Y-110819499D01*
X73340943Y-110819499D01*
X73333347Y-110819499D01*
X73333331Y-110819500D01*
X72229602Y-110819500D01*
X72162563Y-110799815D01*
X72119117Y-110751795D01*
X72112284Y-110738385D01*
X71991971Y-110572786D01*
X71847213Y-110428028D01*
X71681613Y-110307715D01*
X71681612Y-110307714D01*
X71681610Y-110307713D01*
X71624653Y-110278691D01*
X71499223Y-110214781D01*
X71304534Y-110151522D01*
X71129995Y-110123878D01*
X71102352Y-110119500D01*
X70897648Y-110119500D01*
X70873329Y-110123351D01*
X70695465Y-110151522D01*
X70500776Y-110214781D01*
X70318386Y-110307715D01*
X70152786Y-110428028D01*
X70008028Y-110572786D01*
X69887715Y-110738386D01*
X69794781Y-110920776D01*
X69731522Y-111115465D01*
X69699500Y-111317648D01*
X58166884Y-111317648D01*
X57980521Y-111131285D01*
X57980520Y-111131284D01*
X57868716Y-111019480D01*
X57781904Y-110969360D01*
X57781904Y-110969359D01*
X57781900Y-110969358D01*
X57731785Y-110940423D01*
X57579057Y-110899499D01*
X57420943Y-110899499D01*
X57413347Y-110899499D01*
X57413331Y-110899500D01*
X55729602Y-110899500D01*
X55662563Y-110879815D01*
X55619117Y-110831795D01*
X55617012Y-110827664D01*
X55612287Y-110818390D01*
X55612285Y-110818387D01*
X55612284Y-110818385D01*
X55491971Y-110652786D01*
X55347213Y-110508028D01*
X55181613Y-110387715D01*
X55181612Y-110387714D01*
X55181610Y-110387713D01*
X55124653Y-110358691D01*
X54999223Y-110294781D01*
X54804534Y-110231522D01*
X54629995Y-110203878D01*
X54602352Y-110199500D01*
X54397648Y-110199500D01*
X54373329Y-110203351D01*
X54195465Y-110231522D01*
X54000776Y-110294781D01*
X53818386Y-110387715D01*
X53652786Y-110508028D01*
X53508028Y-110652786D01*
X53387715Y-110818386D01*
X53294781Y-111000776D01*
X53231522Y-111195465D01*
X53199500Y-111397648D01*
X53199500Y-111602351D01*
X53231522Y-111804534D01*
X53294781Y-111999223D01*
X53387715Y-112181613D01*
X53508028Y-112347213D01*
X53652786Y-112491971D01*
X53807749Y-112604556D01*
X53818390Y-112612287D01*
X53934607Y-112671503D01*
X54000776Y-112705218D01*
X54000778Y-112705218D01*
X54000781Y-112705220D01*
X54105137Y-112739127D01*
X54195465Y-112768477D01*
X54296557Y-112784488D01*
X54397648Y-112800500D01*
X54397649Y-112800500D01*
X54602351Y-112800500D01*
X54602352Y-112800500D01*
X54804534Y-112768477D01*
X54999219Y-112705220D01*
X55181610Y-112612287D01*
X55274590Y-112544732D01*
X55347213Y-112491971D01*
X55347215Y-112491968D01*
X55347219Y-112491966D01*
X55491966Y-112347219D01*
X55491968Y-112347215D01*
X55491971Y-112347213D01*
X55612284Y-112181614D01*
X55612285Y-112181613D01*
X55612287Y-112181610D01*
X55619117Y-112168204D01*
X55667091Y-112117409D01*
X55729602Y-112100500D01*
X57199903Y-112100500D01*
X57266942Y-112120185D01*
X57287584Y-112136819D01*
X57363181Y-112212416D01*
X57396666Y-112273739D01*
X57399500Y-112300097D01*
X57399500Y-123699902D01*
X57379815Y-123766941D01*
X57363181Y-123787583D01*
X56787584Y-124363181D01*
X56726261Y-124396666D01*
X56699903Y-124399500D01*
X42224500Y-124399500D01*
X42157461Y-124379815D01*
X42111706Y-124327011D01*
X42100500Y-124275500D01*
X42100500Y-114433713D01*
X47149500Y-114433713D01*
X47149500Y-114646286D01*
X47170082Y-114776239D01*
X47182754Y-114856243D01*
X47223134Y-114980520D01*
X47248444Y-115058414D01*
X47344951Y-115247820D01*
X47469890Y-115419786D01*
X47620213Y-115570109D01*
X47792182Y-115695050D01*
X47800946Y-115699516D01*
X47851742Y-115747491D01*
X47868536Y-115815312D01*
X47845998Y-115881447D01*
X47800946Y-115920484D01*
X47792182Y-115924949D01*
X47620213Y-116049890D01*
X47469890Y-116200213D01*
X47344951Y-116372179D01*
X47248444Y-116561585D01*
X47182753Y-116763760D01*
X47149500Y-116973713D01*
X47149500Y-117186286D01*
X47170082Y-117316239D01*
X47182754Y-117396243D01*
X47245404Y-117589060D01*
X47248444Y-117598414D01*
X47344951Y-117787820D01*
X47469890Y-117959786D01*
X47583430Y-118073326D01*
X47616915Y-118134649D01*
X47611931Y-118204341D01*
X47570059Y-118260274D01*
X47539083Y-118277189D01*
X47407669Y-118326203D01*
X47407664Y-118326206D01*
X47292455Y-118412452D01*
X47292452Y-118412455D01*
X47206206Y-118527664D01*
X47206202Y-118527671D01*
X47155908Y-118662517D01*
X47149501Y-118722116D01*
X47149501Y-118722123D01*
X47149500Y-118722135D01*
X47149500Y-120517870D01*
X47149501Y-120517876D01*
X47155908Y-120577483D01*
X47206202Y-120712328D01*
X47206206Y-120712335D01*
X47292452Y-120827544D01*
X47292455Y-120827547D01*
X47407664Y-120913793D01*
X47407671Y-120913797D01*
X47542517Y-120964091D01*
X47542516Y-120964091D01*
X47549444Y-120964835D01*
X47602127Y-120970500D01*
X49397872Y-120970499D01*
X49457483Y-120964091D01*
X49592331Y-120913796D01*
X49707546Y-120827546D01*
X49793796Y-120712331D01*
X49844091Y-120577483D01*
X49850500Y-120517873D01*
X49850499Y-118722128D01*
X49844091Y-118662517D01*
X49793796Y-118527669D01*
X49793795Y-118527668D01*
X49793793Y-118527664D01*
X49707547Y-118412455D01*
X49707544Y-118412452D01*
X49592335Y-118326206D01*
X49592328Y-118326202D01*
X49460917Y-118277189D01*
X49404983Y-118235318D01*
X49380566Y-118169853D01*
X49395418Y-118101580D01*
X49416563Y-118073332D01*
X49530104Y-117959792D01*
X49655051Y-117787816D01*
X49655349Y-117787230D01*
X49675235Y-117748205D01*
X49723209Y-117697409D01*
X49785719Y-117680500D01*
X51275500Y-117680500D01*
X51342539Y-117700185D01*
X51388294Y-117752989D01*
X51399500Y-117804500D01*
X51399500Y-121413330D01*
X51399499Y-121413348D01*
X51399499Y-121579054D01*
X51399498Y-121579054D01*
X51440423Y-121731785D01*
X51440424Y-121731788D01*
X51444622Y-121739058D01*
X51444625Y-121739063D01*
X51519477Y-121868712D01*
X51519481Y-121868717D01*
X51638349Y-121987585D01*
X51638355Y-121987590D01*
X51675139Y-122024374D01*
X51675149Y-122024385D01*
X51679479Y-122028715D01*
X51679480Y-122028716D01*
X51791284Y-122140520D01*
X51878095Y-122190639D01*
X51878097Y-122190641D01*
X51916151Y-122212611D01*
X51928215Y-122219577D01*
X52080943Y-122260500D01*
X52239057Y-122260500D01*
X53270398Y-122260500D01*
X53337437Y-122280185D01*
X53380883Y-122328205D01*
X53387715Y-122341614D01*
X53508028Y-122507213D01*
X53652786Y-122651971D01*
X53807749Y-122764556D01*
X53818390Y-122772287D01*
X53934607Y-122831503D01*
X54000776Y-122865218D01*
X54000778Y-122865218D01*
X54000781Y-122865220D01*
X54105137Y-122899127D01*
X54195465Y-122928477D01*
X54296557Y-122944488D01*
X54397648Y-122960500D01*
X54397649Y-122960500D01*
X54602351Y-122960500D01*
X54602352Y-122960500D01*
X54804534Y-122928477D01*
X54999219Y-122865220D01*
X55181610Y-122772287D01*
X55274590Y-122704732D01*
X55347213Y-122651971D01*
X55347215Y-122651968D01*
X55347219Y-122651966D01*
X55491966Y-122507219D01*
X55491968Y-122507215D01*
X55491971Y-122507213D01*
X55550093Y-122427213D01*
X55612287Y-122341610D01*
X55705220Y-122159219D01*
X55768477Y-121964534D01*
X55800500Y-121762352D01*
X55800500Y-121557648D01*
X55768477Y-121355466D01*
X55705220Y-121160781D01*
X55705218Y-121160778D01*
X55705218Y-121160776D01*
X55664455Y-121080776D01*
X55612287Y-120978390D01*
X55565358Y-120913797D01*
X55491971Y-120812786D01*
X55347213Y-120668028D01*
X55181613Y-120547715D01*
X55181612Y-120547714D01*
X55181610Y-120547713D01*
X55123028Y-120517864D01*
X54999223Y-120454781D01*
X54804534Y-120391522D01*
X54629995Y-120363878D01*
X54602352Y-120359500D01*
X54397648Y-120359500D01*
X54373329Y-120363351D01*
X54195465Y-120391522D01*
X54000776Y-120454781D01*
X53818386Y-120547715D01*
X53652786Y-120668028D01*
X53508028Y-120812786D01*
X53387715Y-120978385D01*
X53380883Y-120991795D01*
X53332909Y-121042591D01*
X53270398Y-121059500D01*
X52724500Y-121059500D01*
X52657461Y-121039815D01*
X52611706Y-120987011D01*
X52600500Y-120935500D01*
X52600500Y-117589060D01*
X52600501Y-117589047D01*
X52600501Y-117420944D01*
X52600501Y-117420943D01*
X52559577Y-117268216D01*
X52512275Y-117186286D01*
X52480524Y-117131290D01*
X52480518Y-117131282D01*
X51948717Y-116599481D01*
X51948709Y-116599475D01*
X51821594Y-116526086D01*
X51821588Y-116526083D01*
X51811787Y-116520423D01*
X51750693Y-116504053D01*
X51659057Y-116479499D01*
X51500943Y-116479499D01*
X51493347Y-116479499D01*
X51493331Y-116479500D01*
X49785719Y-116479500D01*
X49718680Y-116459815D01*
X49675235Y-116411795D01*
X49655052Y-116372185D01*
X49655051Y-116372184D01*
X49530109Y-116200213D01*
X49379786Y-116049890D01*
X49207820Y-115924951D01*
X49207115Y-115924591D01*
X49199054Y-115920485D01*
X49148259Y-115872512D01*
X49131463Y-115804692D01*
X49153999Y-115738556D01*
X49199054Y-115699515D01*
X49207816Y-115695051D01*
X49245749Y-115667491D01*
X49379786Y-115570109D01*
X49379788Y-115570106D01*
X49379792Y-115570104D01*
X49530104Y-115419792D01*
X49530106Y-115419788D01*
X49530109Y-115419786D01*
X49655048Y-115247820D01*
X49655047Y-115247820D01*
X49655051Y-115247816D01*
X49751557Y-115058412D01*
X49817246Y-114856243D01*
X49850500Y-114646287D01*
X49850500Y-114433713D01*
X49817246Y-114223757D01*
X49751557Y-114021588D01*
X49655051Y-113832184D01*
X49655049Y-113832181D01*
X49655048Y-113832179D01*
X49530109Y-113660213D01*
X49379786Y-113509890D01*
X49207817Y-113384949D01*
X49198504Y-113380204D01*
X49147707Y-113332230D01*
X49130912Y-113264409D01*
X49153449Y-113198274D01*
X49198507Y-113159232D01*
X49207555Y-113154622D01*
X49302672Y-113085514D01*
X49302673Y-113085514D01*
X48685177Y-112468019D01*
X48692993Y-112465925D01*
X48807007Y-112400099D01*
X48900099Y-112307007D01*
X48965925Y-112192993D01*
X48968019Y-112185177D01*
X49585514Y-112802673D01*
X49585514Y-112802672D01*
X49654622Y-112707554D01*
X49751095Y-112518217D01*
X49816757Y-112316130D01*
X49816757Y-112316127D01*
X49850000Y-112106246D01*
X49850000Y-111893753D01*
X49816757Y-111683872D01*
X49816757Y-111683869D01*
X49751095Y-111481782D01*
X49654620Y-111292442D01*
X49585515Y-111197326D01*
X49585513Y-111197326D01*
X48968018Y-111814821D01*
X48965925Y-111807007D01*
X48900099Y-111692993D01*
X48807007Y-111599901D01*
X48692993Y-111534075D01*
X48685177Y-111531980D01*
X49302672Y-110914484D01*
X49207550Y-110845375D01*
X49018217Y-110748904D01*
X48816129Y-110683242D01*
X48606246Y-110650000D01*
X48393754Y-110650000D01*
X48183872Y-110683242D01*
X48183869Y-110683242D01*
X47981782Y-110748904D01*
X47792447Y-110845376D01*
X47792445Y-110845377D01*
X47697326Y-110914483D01*
X47697326Y-110914484D01*
X48314822Y-111531980D01*
X48307007Y-111534075D01*
X48192993Y-111599901D01*
X48099901Y-111692993D01*
X48034075Y-111807007D01*
X48031980Y-111814822D01*
X47414484Y-111197326D01*
X47414483Y-111197326D01*
X47345377Y-111292445D01*
X47345376Y-111292447D01*
X47248904Y-111481782D01*
X47183242Y-111683869D01*
X47183242Y-111683872D01*
X47150000Y-111893753D01*
X47150000Y-112106246D01*
X47183242Y-112316127D01*
X47183242Y-112316130D01*
X47248904Y-112518217D01*
X47345375Y-112707550D01*
X47414484Y-112802672D01*
X48031980Y-112185176D01*
X48034075Y-112192993D01*
X48099901Y-112307007D01*
X48192993Y-112400099D01*
X48307007Y-112465925D01*
X48314822Y-112468019D01*
X47697326Y-113085513D01*
X47697326Y-113085515D01*
X47792444Y-113154622D01*
X47801495Y-113159234D01*
X47852292Y-113207208D01*
X47869087Y-113275029D01*
X47846550Y-113341164D01*
X47801499Y-113380202D01*
X47792182Y-113384949D01*
X47620213Y-113509890D01*
X47469890Y-113660213D01*
X47344951Y-113832179D01*
X47248444Y-114021585D01*
X47182753Y-114223760D01*
X47149500Y-114433713D01*
X42100500Y-114433713D01*
X42100500Y-99583713D01*
X47149500Y-99583713D01*
X47149500Y-99796286D01*
X47178679Y-99980518D01*
X47182754Y-100006243D01*
X47235252Y-100167816D01*
X47248444Y-100208414D01*
X47344951Y-100397820D01*
X47469890Y-100569786D01*
X47620213Y-100720109D01*
X47792182Y-100845050D01*
X47800946Y-100849516D01*
X47851742Y-100897491D01*
X47868536Y-100965312D01*
X47845998Y-101031447D01*
X47800946Y-101070484D01*
X47792182Y-101074949D01*
X47620213Y-101199890D01*
X47469890Y-101350213D01*
X47344951Y-101522179D01*
X47248444Y-101711585D01*
X47182753Y-101913760D01*
X47152260Y-102106286D01*
X47149500Y-102123713D01*
X47149500Y-102336287D01*
X47182754Y-102546243D01*
X47235252Y-102707816D01*
X47248444Y-102748414D01*
X47344951Y-102937820D01*
X47469890Y-103109786D01*
X47583430Y-103223326D01*
X47616915Y-103284649D01*
X47611931Y-103354341D01*
X47570059Y-103410274D01*
X47539083Y-103427189D01*
X47407669Y-103476203D01*
X47407664Y-103476206D01*
X47292455Y-103562452D01*
X47292452Y-103562455D01*
X47206206Y-103677664D01*
X47206202Y-103677671D01*
X47155908Y-103812517D01*
X47149501Y-103872116D01*
X47149501Y-103872123D01*
X47149500Y-103872135D01*
X47149500Y-105667870D01*
X47149501Y-105667876D01*
X47155908Y-105727483D01*
X47206202Y-105862328D01*
X47206206Y-105862335D01*
X47292452Y-105977544D01*
X47292455Y-105977547D01*
X47407664Y-106063793D01*
X47407671Y-106063797D01*
X47542517Y-106114091D01*
X47542516Y-106114091D01*
X47549444Y-106114835D01*
X47602127Y-106120500D01*
X49397872Y-106120499D01*
X49457483Y-106114091D01*
X49592331Y-106063796D01*
X49707546Y-105977546D01*
X49793796Y-105862331D01*
X49844091Y-105727483D01*
X49850500Y-105667873D01*
X49850499Y-103872128D01*
X49844091Y-103812517D01*
X49793796Y-103677669D01*
X49793795Y-103677668D01*
X49793793Y-103677664D01*
X49707547Y-103562455D01*
X49707544Y-103562452D01*
X49592335Y-103476206D01*
X49592328Y-103476202D01*
X49460917Y-103427189D01*
X49404983Y-103385318D01*
X49380566Y-103319853D01*
X49395418Y-103251580D01*
X49416563Y-103223332D01*
X49530104Y-103109792D01*
X49655051Y-102937816D01*
X49655349Y-102937230D01*
X49675235Y-102898205D01*
X49723209Y-102847409D01*
X49785719Y-102830500D01*
X51275500Y-102830500D01*
X51342539Y-102850185D01*
X51388294Y-102902989D01*
X51399500Y-102954500D01*
X51399500Y-105913330D01*
X51399499Y-105913348D01*
X51399499Y-106079054D01*
X51399498Y-106079054D01*
X51440423Y-106231785D01*
X51469358Y-106281900D01*
X51469359Y-106281904D01*
X51469360Y-106281904D01*
X51519479Y-106368714D01*
X51519481Y-106368717D01*
X51638349Y-106487585D01*
X51638355Y-106487590D01*
X51905139Y-106754374D01*
X51905149Y-106754385D01*
X51909479Y-106758715D01*
X51909480Y-106758716D01*
X52021284Y-106870520D01*
X52108095Y-106920639D01*
X52108097Y-106920641D01*
X52158213Y-106949576D01*
X52158215Y-106949577D01*
X52310942Y-106990500D01*
X52310943Y-106990500D01*
X53155398Y-106990500D01*
X53222437Y-107010185D01*
X53265883Y-107058205D01*
X53272715Y-107071614D01*
X53393028Y-107237213D01*
X53537786Y-107381971D01*
X53692749Y-107494556D01*
X53703390Y-107502287D01*
X53819607Y-107561503D01*
X53885776Y-107595218D01*
X53885778Y-107595218D01*
X53885781Y-107595220D01*
X53990137Y-107629127D01*
X54080465Y-107658477D01*
X54181557Y-107674488D01*
X54282648Y-107690500D01*
X54282649Y-107690500D01*
X54487351Y-107690500D01*
X54487352Y-107690500D01*
X54689534Y-107658477D01*
X54884219Y-107595220D01*
X55066610Y-107502287D01*
X55159590Y-107434732D01*
X55232213Y-107381971D01*
X55232215Y-107381968D01*
X55232219Y-107381966D01*
X55376966Y-107237219D01*
X55376968Y-107237215D01*
X55376971Y-107237213D01*
X55429732Y-107164590D01*
X55497287Y-107071610D01*
X55590220Y-106889219D01*
X55653477Y-106694534D01*
X55685500Y-106492352D01*
X55685500Y-106287648D01*
X55676652Y-106231785D01*
X55653477Y-106085465D01*
X55597552Y-105913348D01*
X55590220Y-105890781D01*
X55590218Y-105890778D01*
X55590218Y-105890776D01*
X55539427Y-105791095D01*
X55497287Y-105708390D01*
X55467848Y-105667870D01*
X55376971Y-105542786D01*
X55232213Y-105398028D01*
X55066613Y-105277715D01*
X55066612Y-105277714D01*
X55066610Y-105277713D01*
X54978436Y-105232786D01*
X54884223Y-105184781D01*
X54689534Y-105121522D01*
X54514995Y-105093878D01*
X54487352Y-105089500D01*
X54282648Y-105089500D01*
X54258329Y-105093351D01*
X54080465Y-105121522D01*
X53885776Y-105184781D01*
X53703386Y-105277715D01*
X53537786Y-105398028D01*
X53393028Y-105542786D01*
X53272715Y-105708385D01*
X53265883Y-105721795D01*
X53217909Y-105772591D01*
X53155398Y-105789500D01*
X52724500Y-105789500D01*
X52657461Y-105769815D01*
X52611706Y-105717011D01*
X52600500Y-105665500D01*
X52600500Y-102589060D01*
X52600501Y-102589047D01*
X52600501Y-102420944D01*
X52577817Y-102336287D01*
X52559577Y-102268216D01*
X52559573Y-102268209D01*
X52480524Y-102131290D01*
X52480518Y-102131282D01*
X52227961Y-101878726D01*
X52227959Y-101878723D01*
X52098717Y-101749481D01*
X52098716Y-101749480D01*
X52011904Y-101699360D01*
X52011904Y-101699359D01*
X52011900Y-101699358D01*
X51961785Y-101670423D01*
X51809057Y-101629499D01*
X51650943Y-101629499D01*
X51643347Y-101629499D01*
X51643331Y-101629500D01*
X49785719Y-101629500D01*
X49718680Y-101609815D01*
X49675235Y-101561795D01*
X49655052Y-101522185D01*
X49655051Y-101522184D01*
X49530109Y-101350213D01*
X49379786Y-101199890D01*
X49207820Y-101074951D01*
X49207115Y-101074591D01*
X49199054Y-101070485D01*
X49148259Y-101022512D01*
X49131463Y-100954692D01*
X49153999Y-100888556D01*
X49199054Y-100849515D01*
X49207816Y-100845051D01*
X49267832Y-100801447D01*
X49379786Y-100720109D01*
X49379788Y-100720106D01*
X49379792Y-100720104D01*
X49530104Y-100569792D01*
X49530106Y-100569788D01*
X49530109Y-100569786D01*
X49655048Y-100397820D01*
X49655047Y-100397820D01*
X49655051Y-100397816D01*
X49751557Y-100208412D01*
X49817246Y-100006243D01*
X49850500Y-99796287D01*
X49850500Y-99583713D01*
X49817246Y-99373757D01*
X49751557Y-99171588D01*
X49655051Y-98982184D01*
X49655049Y-98982181D01*
X49655048Y-98982179D01*
X49530109Y-98810213D01*
X49379786Y-98659890D01*
X49207817Y-98534949D01*
X49198504Y-98530204D01*
X49147707Y-98482230D01*
X49130912Y-98414409D01*
X49153449Y-98348274D01*
X49198507Y-98309232D01*
X49207555Y-98304622D01*
X49302672Y-98235514D01*
X49302673Y-98235514D01*
X48685177Y-97618019D01*
X48692993Y-97615925D01*
X48807007Y-97550099D01*
X48900099Y-97457007D01*
X48965925Y-97342993D01*
X48968019Y-97335177D01*
X49585514Y-97952673D01*
X49585514Y-97952672D01*
X49654622Y-97857554D01*
X49751095Y-97668217D01*
X49816757Y-97466130D01*
X49816757Y-97466127D01*
X49850000Y-97256246D01*
X49850000Y-97043753D01*
X49816757Y-96833872D01*
X49816757Y-96833869D01*
X49751095Y-96631782D01*
X49654620Y-96442442D01*
X49585515Y-96347326D01*
X49585513Y-96347326D01*
X48968018Y-96964821D01*
X48965925Y-96957007D01*
X48900099Y-96842993D01*
X48807007Y-96749901D01*
X48692993Y-96684075D01*
X48685177Y-96681980D01*
X49239508Y-96127648D01*
X53084500Y-96127648D01*
X53084500Y-96332351D01*
X53116522Y-96534534D01*
X53179781Y-96729223D01*
X53272715Y-96911613D01*
X53393028Y-97077213D01*
X53537786Y-97221971D01*
X53692749Y-97334556D01*
X53703390Y-97342287D01*
X53819607Y-97401503D01*
X53885776Y-97435218D01*
X53885778Y-97435218D01*
X53885781Y-97435220D01*
X53980903Y-97466127D01*
X54080465Y-97498477D01*
X54181557Y-97514488D01*
X54282648Y-97530500D01*
X54282649Y-97530500D01*
X54487351Y-97530500D01*
X54487352Y-97530500D01*
X54689534Y-97498477D01*
X54884219Y-97435220D01*
X55066610Y-97342287D01*
X55159590Y-97274732D01*
X55232213Y-97221971D01*
X55232215Y-97221968D01*
X55232219Y-97221966D01*
X55376966Y-97077219D01*
X55376968Y-97077215D01*
X55376971Y-97077213D01*
X55464304Y-96957007D01*
X55497287Y-96911610D01*
X55590220Y-96729219D01*
X55653477Y-96534534D01*
X55685500Y-96332352D01*
X55685500Y-96127648D01*
X55675496Y-96064484D01*
X55653477Y-95925465D01*
X55618445Y-95817648D01*
X55590220Y-95730781D01*
X55590218Y-95730778D01*
X55590218Y-95730776D01*
X55539524Y-95631285D01*
X55497287Y-95548390D01*
X55418161Y-95439481D01*
X55376971Y-95382786D01*
X55232213Y-95238028D01*
X55066613Y-95117715D01*
X55066612Y-95117714D01*
X55066610Y-95117713D01*
X54978436Y-95072786D01*
X54884223Y-95024781D01*
X54689534Y-94961522D01*
X54514995Y-94933878D01*
X54487352Y-94929500D01*
X54282648Y-94929500D01*
X54258329Y-94933351D01*
X54080465Y-94961522D01*
X53885776Y-95024781D01*
X53703386Y-95117715D01*
X53537786Y-95238028D01*
X53537782Y-95238032D01*
X53393035Y-95382780D01*
X53393028Y-95382786D01*
X53272715Y-95548386D01*
X53179781Y-95730776D01*
X53116522Y-95925465D01*
X53084500Y-96127648D01*
X49239508Y-96127648D01*
X49302672Y-96064484D01*
X49207550Y-95995375D01*
X49018217Y-95898904D01*
X48816129Y-95833242D01*
X48606246Y-95800000D01*
X48393754Y-95800000D01*
X48183872Y-95833242D01*
X48183869Y-95833242D01*
X47981782Y-95898904D01*
X47792447Y-95995376D01*
X47792445Y-95995377D01*
X47697326Y-96064483D01*
X47697326Y-96064484D01*
X48314822Y-96681980D01*
X48307007Y-96684075D01*
X48192993Y-96749901D01*
X48099901Y-96842993D01*
X48034075Y-96957007D01*
X48031980Y-96964822D01*
X47414484Y-96347326D01*
X47414483Y-96347326D01*
X47345377Y-96442445D01*
X47345376Y-96442447D01*
X47248904Y-96631782D01*
X47183242Y-96833869D01*
X47183242Y-96833872D01*
X47150000Y-97043753D01*
X47150000Y-97256246D01*
X47183242Y-97466127D01*
X47183242Y-97466130D01*
X47248904Y-97668217D01*
X47345375Y-97857550D01*
X47414484Y-97952672D01*
X48031980Y-97335176D01*
X48034075Y-97342993D01*
X48099901Y-97457007D01*
X48192993Y-97550099D01*
X48307007Y-97615925D01*
X48314822Y-97618019D01*
X47697326Y-98235513D01*
X47697326Y-98235515D01*
X47792444Y-98304622D01*
X47801495Y-98309234D01*
X47852292Y-98357208D01*
X47869087Y-98425029D01*
X47846550Y-98491164D01*
X47801499Y-98530202D01*
X47792182Y-98534949D01*
X47620213Y-98659890D01*
X47469890Y-98810213D01*
X47344951Y-98982179D01*
X47248444Y-99171585D01*
X47182753Y-99373760D01*
X47149500Y-99583713D01*
X42100500Y-99583713D01*
X42100500Y-90724500D01*
X42120185Y-90657461D01*
X42172989Y-90611706D01*
X42224500Y-90600500D01*
X55579055Y-90600500D01*
X55579057Y-90600500D01*
X55731784Y-90559577D01*
X55868716Y-90480520D01*
X55980520Y-90368716D01*
X56059577Y-90231784D01*
X56100500Y-90079057D01*
X56100500Y-88371258D01*
X56120185Y-88304219D01*
X56172989Y-88258464D01*
X56242147Y-88248520D01*
X56294271Y-88269679D01*
X56294495Y-88269314D01*
X56296699Y-88270664D01*
X56297397Y-88270948D01*
X56298653Y-88271861D01*
X56480968Y-88364755D01*
X56675582Y-88427990D01*
X56877683Y-88460000D01*
X57180000Y-88460000D01*
X57180000Y-87506410D01*
X57225606Y-87532741D01*
X57327339Y-87560000D01*
X57432661Y-87560000D01*
X57534394Y-87532741D01*
X57580000Y-87506410D01*
X57580000Y-88460000D01*
X57882317Y-88460000D01*
X58084417Y-88427990D01*
X58279031Y-88364755D01*
X58461349Y-88271859D01*
X58626894Y-88151582D01*
X58626895Y-88151582D01*
X58771582Y-88006895D01*
X58771582Y-88006894D01*
X58891859Y-87841349D01*
X58984755Y-87659029D01*
X59047990Y-87464413D01*
X59064528Y-87360000D01*
X57726410Y-87360000D01*
X57752741Y-87314394D01*
X57780000Y-87212661D01*
X57780000Y-87107339D01*
X57752741Y-87005606D01*
X57726411Y-86960000D01*
X59064528Y-86960000D01*
X59047990Y-86855586D01*
X58984755Y-86660970D01*
X58891859Y-86478650D01*
X58771582Y-86313105D01*
X58771582Y-86313104D01*
X58626895Y-86168417D01*
X58461349Y-86048140D01*
X58368370Y-86000765D01*
X58317574Y-85952790D01*
X58300779Y-85884969D01*
X58323316Y-85818835D01*
X58368370Y-85779795D01*
X58368920Y-85779515D01*
X58461610Y-85732287D01*
X58482770Y-85716913D01*
X58627213Y-85611971D01*
X58627215Y-85611968D01*
X58627219Y-85611966D01*
X58771966Y-85467219D01*
X58771968Y-85467215D01*
X58771971Y-85467213D01*
X58824732Y-85394590D01*
X58892287Y-85301610D01*
X58985220Y-85119219D01*
X59048477Y-84924534D01*
X59080500Y-84722352D01*
X59080500Y-84517648D01*
X59048477Y-84315466D01*
X58985220Y-84120781D01*
X58985218Y-84120778D01*
X58985218Y-84120776D01*
X58933602Y-84019475D01*
X58892287Y-83938390D01*
X58864032Y-83899500D01*
X58771971Y-83772786D01*
X58627213Y-83628028D01*
X58461614Y-83507715D01*
X58455006Y-83504348D01*
X58368917Y-83460483D01*
X58318123Y-83412511D01*
X58301328Y-83344690D01*
X58323865Y-83278555D01*
X58368917Y-83239516D01*
X58461610Y-83192287D01*
X58482770Y-83176913D01*
X58627213Y-83071971D01*
X58627215Y-83071968D01*
X58627219Y-83071966D01*
X58771966Y-82927219D01*
X58771968Y-82927215D01*
X58771971Y-82927213D01*
X58864032Y-82800500D01*
X58892287Y-82761610D01*
X58985220Y-82579219D01*
X59048477Y-82384534D01*
X59080500Y-82182352D01*
X59080500Y-81977648D01*
X59065034Y-81880000D01*
X59048477Y-81775465D01*
X58998230Y-81620821D01*
X58985220Y-81580781D01*
X58985218Y-81580778D01*
X58985218Y-81580776D01*
X58927970Y-81468422D01*
X58892287Y-81398390D01*
X58884556Y-81387749D01*
X58771971Y-81232786D01*
X58627213Y-81088028D01*
X58461611Y-80967713D01*
X58368369Y-80920203D01*
X58317574Y-80872229D01*
X58300779Y-80804407D01*
X58323317Y-80738273D01*
X58368371Y-80699234D01*
X58461347Y-80651861D01*
X58626894Y-80531582D01*
X58626895Y-80531582D01*
X58771582Y-80386895D01*
X58771582Y-80386894D01*
X58891859Y-80221349D01*
X58984755Y-80039029D01*
X59047990Y-79844413D01*
X59064528Y-79740000D01*
X57726410Y-79740000D01*
X57752741Y-79694394D01*
X57780000Y-79592661D01*
X57780000Y-79487339D01*
X57752741Y-79385606D01*
X57726411Y-79340000D01*
X59064528Y-79340000D01*
X59047990Y-79235586D01*
X58984755Y-79040970D01*
X58891859Y-78858650D01*
X58771582Y-78693105D01*
X58771582Y-78693104D01*
X58626895Y-78548417D01*
X58461349Y-78428140D01*
X58368370Y-78380765D01*
X58317574Y-78332790D01*
X58300779Y-78264969D01*
X58323316Y-78198835D01*
X58368370Y-78159795D01*
X58368920Y-78159515D01*
X58461610Y-78112287D01*
X58482770Y-78096913D01*
X58627213Y-77991971D01*
X58627215Y-77991968D01*
X58627219Y-77991966D01*
X58771966Y-77847219D01*
X58771968Y-77847215D01*
X58771971Y-77847213D01*
X58842599Y-77750000D01*
X58892287Y-77681610D01*
X58985220Y-77499219D01*
X59048477Y-77304534D01*
X59080500Y-77102352D01*
X59080500Y-76897648D01*
X59048477Y-76695466D01*
X58985220Y-76500781D01*
X58985218Y-76500778D01*
X58985218Y-76500776D01*
X58934693Y-76401617D01*
X58892287Y-76318390D01*
X58818738Y-76217157D01*
X58771971Y-76152786D01*
X58627213Y-76008028D01*
X58461614Y-75887715D01*
X58455006Y-75884348D01*
X58368917Y-75840483D01*
X58318123Y-75792511D01*
X58301328Y-75724690D01*
X58323865Y-75658555D01*
X58368917Y-75619516D01*
X58461610Y-75572287D01*
X58580269Y-75486077D01*
X58627213Y-75451971D01*
X58627215Y-75451968D01*
X58627219Y-75451966D01*
X58771966Y-75307219D01*
X58771968Y-75307215D01*
X58771971Y-75307213D01*
X58824732Y-75234590D01*
X58892287Y-75141610D01*
X58985220Y-74959219D01*
X59048477Y-74764534D01*
X59080500Y-74562352D01*
X59080500Y-74357648D01*
X59065034Y-74260000D01*
X59048477Y-74155465D01*
X58985281Y-73960970D01*
X58985220Y-73960781D01*
X58985218Y-73960778D01*
X58985218Y-73960776D01*
X58951503Y-73894607D01*
X58892287Y-73778390D01*
X58861126Y-73735500D01*
X58771971Y-73612786D01*
X58627217Y-73468032D01*
X58627212Y-73468028D01*
X58533051Y-73399616D01*
X58490385Y-73344286D01*
X58484406Y-73274673D01*
X58517012Y-73212878D01*
X58566933Y-73181592D01*
X58649117Y-73154359D01*
X58649124Y-73154356D01*
X58798345Y-73062315D01*
X58922315Y-72938345D01*
X59014356Y-72789124D01*
X59014358Y-72789119D01*
X59069505Y-72622697D01*
X59069506Y-72622690D01*
X59079999Y-72519986D01*
X59080000Y-72519973D01*
X59080000Y-72120000D01*
X57726410Y-72120000D01*
X57752741Y-72074394D01*
X57780000Y-71972661D01*
X57780000Y-71867339D01*
X57752741Y-71765606D01*
X57726411Y-71720000D01*
X59079999Y-71720000D01*
X59079999Y-71320028D01*
X59079998Y-71320013D01*
X59069505Y-71217302D01*
X59014358Y-71050880D01*
X59014356Y-71050875D01*
X58922315Y-70901654D01*
X58798345Y-70777684D01*
X58649124Y-70685643D01*
X58649119Y-70685641D01*
X58482697Y-70630494D01*
X58482690Y-70630493D01*
X58379986Y-70620000D01*
X57580000Y-70620000D01*
X57580000Y-71573589D01*
X57534394Y-71547259D01*
X57432661Y-71520000D01*
X57327339Y-71520000D01*
X57225606Y-71547259D01*
X57180000Y-71573589D01*
X57180000Y-70620000D01*
X56380028Y-70620000D01*
X56380012Y-70620001D01*
X56277302Y-70630494D01*
X56110880Y-70685641D01*
X56110875Y-70685643D01*
X55961654Y-70777684D01*
X55837684Y-70901654D01*
X55745643Y-71050875D01*
X55745641Y-71050880D01*
X55690494Y-71217302D01*
X55690493Y-71217309D01*
X55680000Y-71320013D01*
X55680000Y-71720000D01*
X57033589Y-71720000D01*
X57007259Y-71765606D01*
X56980000Y-71867339D01*
X56980000Y-71972661D01*
X57007259Y-72074394D01*
X57033590Y-72120000D01*
X55680001Y-72120000D01*
X55680001Y-72519986D01*
X55690494Y-72622697D01*
X55745641Y-72789119D01*
X55745643Y-72789124D01*
X55837684Y-72938345D01*
X55961654Y-73062315D01*
X56110875Y-73154356D01*
X56110882Y-73154359D01*
X56193067Y-73181592D01*
X56250512Y-73221364D01*
X56277336Y-73285880D01*
X56265021Y-73354656D01*
X56226949Y-73399616D01*
X56132787Y-73468028D01*
X56132782Y-73468032D01*
X55988028Y-73612786D01*
X55867715Y-73778385D01*
X55860883Y-73791795D01*
X55812909Y-73842591D01*
X55750398Y-73859500D01*
X54224500Y-73859500D01*
X54157461Y-73839815D01*
X54111706Y-73787011D01*
X54100500Y-73735500D01*
X54100500Y-70300097D01*
X54120185Y-70233058D01*
X54136819Y-70212416D01*
X58212416Y-66136819D01*
X58273739Y-66103334D01*
X58300097Y-66100500D01*
X61079055Y-66100500D01*
X61079057Y-66100500D01*
X61231784Y-66059577D01*
X61368716Y-65980520D01*
X61480520Y-65868716D01*
X61559577Y-65731784D01*
X61600500Y-65579057D01*
X61600500Y-55800097D01*
X61620185Y-55733058D01*
X61636819Y-55712416D01*
X62067541Y-55281694D01*
X62514662Y-54834572D01*
X62575983Y-54801089D01*
X62578150Y-54800638D01*
X62636085Y-54789113D01*
X62733497Y-54769737D01*
X62879179Y-54709394D01*
X63010289Y-54621789D01*
X63121789Y-54510289D01*
X63209394Y-54379179D01*
X63269737Y-54233497D01*
X63300500Y-54078842D01*
X63300500Y-53921158D01*
X63300500Y-53921155D01*
X63300499Y-53921153D01*
X63269738Y-53766510D01*
X63269737Y-53766503D01*
X63269732Y-53766492D01*
X63267969Y-53760676D01*
X63270720Y-53759841D01*
X63264497Y-53702641D01*
X63295691Y-53640122D01*
X63355734Y-53604392D01*
X63386555Y-53600500D01*
X64079055Y-53600500D01*
X64079057Y-53600500D01*
X64231784Y-53559577D01*
X64231785Y-53559576D01*
X64239635Y-53557473D01*
X64240262Y-53559813D01*
X64297500Y-53553652D01*
X64359984Y-53584919D01*
X64395644Y-53645003D01*
X64399500Y-53675685D01*
X64399500Y-57413330D01*
X64399499Y-57413348D01*
X64399499Y-57579054D01*
X64399498Y-57579054D01*
X64440423Y-57731785D01*
X64469358Y-57781900D01*
X64469359Y-57781904D01*
X64469360Y-57781904D01*
X64519479Y-57868714D01*
X64519481Y-57868717D01*
X64638349Y-57987585D01*
X64638355Y-57987590D01*
X64638584Y-57987819D01*
X64672069Y-58049142D01*
X64667085Y-58118834D01*
X64625213Y-58174767D01*
X64559749Y-58199184D01*
X64550903Y-58199500D01*
X64421155Y-58199500D01*
X64266510Y-58230261D01*
X64266498Y-58230264D01*
X64120827Y-58290602D01*
X64120814Y-58290609D01*
X63989711Y-58378210D01*
X63989707Y-58378213D01*
X63878213Y-58489707D01*
X63878210Y-58489711D01*
X63790609Y-58620814D01*
X63790602Y-58620827D01*
X63730264Y-58766498D01*
X63730261Y-58766510D01*
X63699500Y-58921153D01*
X63699500Y-59078846D01*
X63730261Y-59233489D01*
X63730264Y-59233501D01*
X63790602Y-59379172D01*
X63790609Y-59379185D01*
X63878210Y-59510288D01*
X63878213Y-59510292D01*
X63989707Y-59621786D01*
X63989711Y-59621789D01*
X64120814Y-59709390D01*
X64120827Y-59709397D01*
X64262814Y-59768209D01*
X64266503Y-59769737D01*
X64331147Y-59782595D01*
X64421849Y-59800638D01*
X64483760Y-59833023D01*
X64485339Y-59834574D01*
X66863181Y-62212416D01*
X66896666Y-62273739D01*
X66899500Y-62300097D01*
X66899500Y-71543575D01*
X66879815Y-71610614D01*
X66827011Y-71656369D01*
X66757853Y-71666313D01*
X66694297Y-71637288D01*
X66657569Y-71581894D01*
X66605761Y-71422447D01*
X66605220Y-71420781D01*
X66605218Y-71420778D01*
X66605218Y-71420776D01*
X66571503Y-71354607D01*
X66512287Y-71238390D01*
X66496966Y-71217302D01*
X66391971Y-71072786D01*
X66247213Y-70928028D01*
X66081613Y-70807715D01*
X66081612Y-70807714D01*
X66081610Y-70807713D01*
X66022675Y-70777684D01*
X65899223Y-70714781D01*
X65704534Y-70651522D01*
X65529995Y-70623878D01*
X65502352Y-70619500D01*
X64497648Y-70619500D01*
X64473329Y-70623351D01*
X64295465Y-70651522D01*
X64100776Y-70714781D01*
X63918386Y-70807715D01*
X63752786Y-70928028D01*
X63608028Y-71072786D01*
X63487715Y-71238386D01*
X63394781Y-71420776D01*
X63331522Y-71615465D01*
X63299500Y-71817648D01*
X63299500Y-72022351D01*
X63331522Y-72224534D01*
X63394781Y-72419223D01*
X63446117Y-72519973D01*
X63471364Y-72569524D01*
X63487715Y-72601613D01*
X63608028Y-72767213D01*
X63752786Y-72911971D01*
X63907749Y-73024556D01*
X63918390Y-73032287D01*
X63990424Y-73068990D01*
X64011629Y-73079795D01*
X64062425Y-73127770D01*
X64079220Y-73195591D01*
X64056682Y-73261726D01*
X64011629Y-73300765D01*
X63918650Y-73348140D01*
X63753105Y-73468417D01*
X63753104Y-73468417D01*
X63608417Y-73613104D01*
X63608417Y-73613105D01*
X63488140Y-73778650D01*
X63395244Y-73960970D01*
X63332009Y-74155586D01*
X63315472Y-74260000D01*
X64653589Y-74260000D01*
X64627259Y-74305606D01*
X64600000Y-74407339D01*
X64600000Y-74512661D01*
X64627259Y-74614394D01*
X64653590Y-74660000D01*
X63315472Y-74660000D01*
X63332009Y-74764413D01*
X63395244Y-74959029D01*
X63488140Y-75141349D01*
X63608417Y-75306894D01*
X63608417Y-75306895D01*
X63753104Y-75451582D01*
X63918652Y-75571861D01*
X64011628Y-75619234D01*
X64062425Y-75667208D01*
X64079220Y-75735029D01*
X64056683Y-75801164D01*
X64011630Y-75840203D01*
X63918388Y-75887713D01*
X63752786Y-76008028D01*
X63608028Y-76152786D01*
X63487715Y-76318386D01*
X63394781Y-76500776D01*
X63331522Y-76695465D01*
X63299500Y-76897648D01*
X63299500Y-77102351D01*
X63331522Y-77304534D01*
X63394781Y-77499223D01*
X63446385Y-77600499D01*
X63475408Y-77657461D01*
X63487715Y-77681613D01*
X63608028Y-77847213D01*
X63752786Y-77991971D01*
X63907749Y-78104556D01*
X63918390Y-78112287D01*
X64009840Y-78158883D01*
X64011080Y-78159515D01*
X64061876Y-78207490D01*
X64078671Y-78275311D01*
X64056134Y-78341446D01*
X64011080Y-78380485D01*
X63918386Y-78427715D01*
X63752786Y-78548028D01*
X63608028Y-78692786D01*
X63487715Y-78858386D01*
X63394781Y-79040776D01*
X63331522Y-79235465D01*
X63299500Y-79437648D01*
X63299500Y-79642351D01*
X63331522Y-79844534D01*
X63394781Y-80039223D01*
X63446385Y-80140500D01*
X63483028Y-80212416D01*
X63487715Y-80221613D01*
X63608028Y-80387213D01*
X63752786Y-80531971D01*
X63907749Y-80644556D01*
X63918390Y-80652287D01*
X63990424Y-80688990D01*
X64011629Y-80699795D01*
X64062425Y-80747770D01*
X64079220Y-80815591D01*
X64056682Y-80881726D01*
X64011629Y-80920765D01*
X63918650Y-80968140D01*
X63753105Y-81088417D01*
X63753104Y-81088417D01*
X63608417Y-81233104D01*
X63608417Y-81233105D01*
X63488140Y-81398650D01*
X63395244Y-81580970D01*
X63332009Y-81775586D01*
X63315472Y-81880000D01*
X64653589Y-81880000D01*
X64627259Y-81925606D01*
X64600000Y-82027339D01*
X64600000Y-82132661D01*
X64627259Y-82234394D01*
X64653590Y-82280000D01*
X63315472Y-82280000D01*
X63332009Y-82384413D01*
X63395244Y-82579029D01*
X63488140Y-82761349D01*
X63608417Y-82926894D01*
X63608417Y-82926895D01*
X63753104Y-83071582D01*
X63918652Y-83191861D01*
X64011628Y-83239234D01*
X64062425Y-83287208D01*
X64079220Y-83355029D01*
X64056683Y-83421164D01*
X64011630Y-83460203D01*
X63918388Y-83507713D01*
X63752786Y-83628028D01*
X63608028Y-83772786D01*
X63487715Y-83938386D01*
X63394781Y-84120776D01*
X63331522Y-84315465D01*
X63299500Y-84517648D01*
X63299500Y-84722351D01*
X63331522Y-84924534D01*
X63394781Y-85119223D01*
X63487715Y-85301613D01*
X63608028Y-85467213D01*
X63752786Y-85611971D01*
X63907749Y-85724556D01*
X63918390Y-85732287D01*
X64009840Y-85778883D01*
X64011080Y-85779515D01*
X64061876Y-85827490D01*
X64078671Y-85895311D01*
X64056134Y-85961446D01*
X64011080Y-86000485D01*
X63918386Y-86047715D01*
X63752786Y-86168028D01*
X63608028Y-86312786D01*
X63487715Y-86478386D01*
X63394781Y-86660776D01*
X63331522Y-86855465D01*
X63299500Y-87057648D01*
X63299500Y-87262351D01*
X63331522Y-87464534D01*
X63394781Y-87659223D01*
X63458691Y-87784653D01*
X63468643Y-87804184D01*
X63487715Y-87841613D01*
X63608028Y-88007213D01*
X63752786Y-88151971D01*
X63862643Y-88231785D01*
X63918390Y-88272287D01*
X64100781Y-88365220D01*
X64295466Y-88428477D01*
X64295468Y-88428477D01*
X64300197Y-88429613D01*
X64299919Y-88430768D01*
X64358029Y-88458313D01*
X64394962Y-88517623D01*
X64399500Y-88550860D01*
X64399500Y-104913330D01*
X64399499Y-104913348D01*
X64399499Y-105079054D01*
X64399498Y-105079054D01*
X64399499Y-105079057D01*
X64440423Y-105231785D01*
X64440424Y-105231787D01*
X64440423Y-105231787D01*
X64447426Y-105243915D01*
X64447427Y-105243916D01*
X64519477Y-105368712D01*
X64519481Y-105368717D01*
X64638349Y-105487585D01*
X64638354Y-105487589D01*
X65711284Y-106560520D01*
X65711286Y-106560521D01*
X65711290Y-106560524D01*
X65848209Y-106639573D01*
X65848216Y-106639577D01*
X66000943Y-106680501D01*
X66000945Y-106680501D01*
X66166654Y-106680501D01*
X66166670Y-106680500D01*
X69770398Y-106680500D01*
X69837437Y-106700185D01*
X69880883Y-106748205D01*
X69887715Y-106761614D01*
X70008028Y-106927213D01*
X70152786Y-107071971D01*
X70307749Y-107184556D01*
X70318390Y-107192287D01*
X70406574Y-107237219D01*
X70500776Y-107285218D01*
X70500778Y-107285218D01*
X70500781Y-107285220D01*
X70605137Y-107319127D01*
X70695465Y-107348477D01*
X70796557Y-107364488D01*
X70897648Y-107380500D01*
X70897649Y-107380500D01*
X71102351Y-107380500D01*
X71102352Y-107380500D01*
X71304534Y-107348477D01*
X71499219Y-107285220D01*
X71681610Y-107192287D01*
X71774590Y-107124732D01*
X71847213Y-107071971D01*
X71847215Y-107071968D01*
X71847219Y-107071966D01*
X71991966Y-106927219D01*
X71991968Y-106927215D01*
X71991971Y-106927213D01*
X72044732Y-106854590D01*
X72112287Y-106761610D01*
X72205220Y-106579219D01*
X72268477Y-106384534D01*
X72300500Y-106182352D01*
X72300500Y-105977648D01*
X72282235Y-105862328D01*
X72268477Y-105775465D01*
X72242209Y-105694622D01*
X72205220Y-105580781D01*
X72112287Y-105398390D01*
X72104556Y-105387749D01*
X71991971Y-105232786D01*
X71847213Y-105088028D01*
X71681613Y-104967715D01*
X71681612Y-104967714D01*
X71681610Y-104967713D01*
X71589819Y-104920943D01*
X71499223Y-104874781D01*
X71304534Y-104811522D01*
X71129995Y-104783878D01*
X71102352Y-104779500D01*
X70897648Y-104779500D01*
X70873329Y-104783351D01*
X70695465Y-104811522D01*
X70500776Y-104874781D01*
X70318386Y-104967715D01*
X70152786Y-105088028D01*
X70008028Y-105232786D01*
X69887715Y-105398385D01*
X69880883Y-105411795D01*
X69832909Y-105462591D01*
X69770398Y-105479500D01*
X66380098Y-105479500D01*
X66313059Y-105459815D01*
X66292417Y-105443181D01*
X65636819Y-104787583D01*
X65603334Y-104726260D01*
X65600500Y-104699902D01*
X65600500Y-95817648D01*
X69699500Y-95817648D01*
X69699500Y-96022351D01*
X69731522Y-96224534D01*
X69794781Y-96419223D01*
X69846385Y-96520500D01*
X69883320Y-96592989D01*
X69887715Y-96601613D01*
X70008028Y-96767213D01*
X70152786Y-96911971D01*
X70307749Y-97024556D01*
X70318390Y-97032287D01*
X70406574Y-97077219D01*
X70500776Y-97125218D01*
X70500778Y-97125218D01*
X70500781Y-97125220D01*
X70577043Y-97149999D01*
X70695465Y-97188477D01*
X70796557Y-97204488D01*
X70897648Y-97220500D01*
X70897649Y-97220500D01*
X71102351Y-97220500D01*
X71102352Y-97220500D01*
X71304534Y-97188477D01*
X71499219Y-97125220D01*
X71681610Y-97032287D01*
X71785225Y-96957007D01*
X71847213Y-96911971D01*
X71847215Y-96911968D01*
X71847219Y-96911966D01*
X71991966Y-96767219D01*
X71991968Y-96767215D01*
X71991971Y-96767213D01*
X72112284Y-96601614D01*
X72112285Y-96601613D01*
X72112287Y-96601610D01*
X72119117Y-96588204D01*
X72167091Y-96537409D01*
X72229602Y-96520500D01*
X72275500Y-96520500D01*
X72342539Y-96540185D01*
X72388294Y-96592989D01*
X72399500Y-96644500D01*
X72399500Y-99579056D01*
X72440423Y-99731783D01*
X72440426Y-99731790D01*
X72519475Y-99868709D01*
X72519479Y-99868714D01*
X72519480Y-99868716D01*
X72631284Y-99980520D01*
X72631286Y-99980521D01*
X72631290Y-99980524D01*
X72768209Y-100059573D01*
X72768216Y-100059577D01*
X72920943Y-100100500D01*
X73413331Y-100100500D01*
X73413347Y-100100501D01*
X73420943Y-100100501D01*
X73579055Y-100100501D01*
X73579057Y-100100501D01*
X73712572Y-100064724D01*
X73744666Y-100060500D01*
X75214281Y-100060500D01*
X75281320Y-100080185D01*
X75324765Y-100128205D01*
X75344947Y-100167814D01*
X75344948Y-100167815D01*
X75469890Y-100339786D01*
X75620213Y-100490109D01*
X75792182Y-100615050D01*
X75800946Y-100619516D01*
X75851742Y-100667491D01*
X75868536Y-100735312D01*
X75845998Y-100801447D01*
X75800946Y-100840484D01*
X75792182Y-100844949D01*
X75620213Y-100969890D01*
X75469890Y-101120213D01*
X75344951Y-101292179D01*
X75248444Y-101481585D01*
X75248443Y-101481587D01*
X75248443Y-101481588D01*
X75235252Y-101522185D01*
X75182753Y-101683760D01*
X75172344Y-101749480D01*
X75149500Y-101893713D01*
X75149500Y-102106287D01*
X75182754Y-102316243D01*
X75216773Y-102420943D01*
X75248444Y-102518414D01*
X75344951Y-102707820D01*
X75469890Y-102879786D01*
X75620213Y-103030109D01*
X75792179Y-103155048D01*
X75792181Y-103155049D01*
X75792184Y-103155051D01*
X75801493Y-103159794D01*
X75852290Y-103207766D01*
X75869087Y-103275587D01*
X75846552Y-103341722D01*
X75801502Y-103380762D01*
X75792449Y-103385375D01*
X75792445Y-103385377D01*
X75697326Y-103454483D01*
X75697326Y-103454484D01*
X76314822Y-104071980D01*
X76307007Y-104074075D01*
X76192993Y-104139901D01*
X76099901Y-104232993D01*
X76034075Y-104347007D01*
X76031980Y-104354822D01*
X75414484Y-103737326D01*
X75414483Y-103737326D01*
X75345377Y-103832445D01*
X75345376Y-103832447D01*
X75248904Y-104021782D01*
X75183242Y-104223869D01*
X75183242Y-104223872D01*
X75150000Y-104433753D01*
X75150000Y-104646246D01*
X75183242Y-104856127D01*
X75183242Y-104856130D01*
X75248904Y-105058217D01*
X75345375Y-105247550D01*
X75414484Y-105342672D01*
X76031980Y-104725176D01*
X76034075Y-104732993D01*
X76099901Y-104847007D01*
X76192993Y-104940099D01*
X76307007Y-105005925D01*
X76314822Y-105008019D01*
X75697326Y-105625513D01*
X75697326Y-105625515D01*
X75792442Y-105694620D01*
X75981782Y-105791095D01*
X76183870Y-105856757D01*
X76393754Y-105890000D01*
X76606246Y-105890000D01*
X76816127Y-105856757D01*
X76816130Y-105856757D01*
X77018217Y-105791095D01*
X77207554Y-105694622D01*
X77302672Y-105625514D01*
X77302673Y-105625514D01*
X76685177Y-105008019D01*
X76692993Y-105005925D01*
X76807007Y-104940099D01*
X76900099Y-104847007D01*
X76965925Y-104732993D01*
X76968019Y-104725178D01*
X77585514Y-105342673D01*
X77585514Y-105342672D01*
X77654622Y-105247554D01*
X77751095Y-105058217D01*
X77816757Y-104856130D01*
X77816757Y-104856127D01*
X77850000Y-104646246D01*
X77850000Y-104433753D01*
X77816757Y-104223872D01*
X77816757Y-104223869D01*
X77751095Y-104021782D01*
X77654620Y-103832442D01*
X77585515Y-103737326D01*
X77585513Y-103737326D01*
X76968018Y-104354821D01*
X76965925Y-104347007D01*
X76900099Y-104232993D01*
X76807007Y-104139901D01*
X76692993Y-104074075D01*
X76685177Y-104071980D01*
X77302672Y-103454484D01*
X77207547Y-103385373D01*
X77207547Y-103385372D01*
X77198500Y-103380763D01*
X77147706Y-103332788D01*
X77130912Y-103264966D01*
X77153451Y-103198832D01*
X77198508Y-103159793D01*
X77207816Y-103155051D01*
X77287007Y-103097515D01*
X77379786Y-103030109D01*
X77379788Y-103030106D01*
X77379792Y-103030104D01*
X77530104Y-102879792D01*
X77530106Y-102879788D01*
X77530109Y-102879786D01*
X77655048Y-102707820D01*
X77655047Y-102707820D01*
X77655051Y-102707816D01*
X77751557Y-102518412D01*
X77817246Y-102316243D01*
X77850500Y-102106287D01*
X77850500Y-101893713D01*
X77817246Y-101683757D01*
X77751557Y-101481588D01*
X77655051Y-101292184D01*
X77655049Y-101292181D01*
X77655048Y-101292179D01*
X77530109Y-101120213D01*
X77379786Y-100969890D01*
X77207820Y-100844951D01*
X77207115Y-100844591D01*
X77199054Y-100840485D01*
X77148259Y-100792512D01*
X77131463Y-100724692D01*
X77153999Y-100658556D01*
X77199054Y-100619515D01*
X77207816Y-100615051D01*
X77270110Y-100569792D01*
X77379786Y-100490109D01*
X77379788Y-100490106D01*
X77379792Y-100490104D01*
X77530104Y-100339792D01*
X77530106Y-100339788D01*
X77530109Y-100339786D01*
X77655048Y-100167820D01*
X77655047Y-100167820D01*
X77655051Y-100167816D01*
X77751557Y-99978412D01*
X77817246Y-99776243D01*
X77850500Y-99566287D01*
X77850500Y-99353713D01*
X77817246Y-99143757D01*
X77751557Y-98941588D01*
X77655051Y-98752184D01*
X77655049Y-98752181D01*
X77655048Y-98752179D01*
X77530109Y-98580213D01*
X77416569Y-98466673D01*
X77383084Y-98405350D01*
X77388068Y-98335658D01*
X77429940Y-98279725D01*
X77460915Y-98262810D01*
X77592331Y-98213796D01*
X77707546Y-98127546D01*
X77793796Y-98012331D01*
X77844091Y-97877483D01*
X77850500Y-97817873D01*
X77850499Y-96022128D01*
X77844091Y-95962517D01*
X77793796Y-95827669D01*
X77793795Y-95827668D01*
X77793793Y-95827664D01*
X77707547Y-95712455D01*
X77707544Y-95712452D01*
X77592335Y-95626206D01*
X77592328Y-95626202D01*
X77457482Y-95575908D01*
X77457483Y-95575908D01*
X77397883Y-95569501D01*
X77397881Y-95569500D01*
X77397873Y-95569500D01*
X77397864Y-95569500D01*
X75602129Y-95569500D01*
X75602123Y-95569501D01*
X75542516Y-95575908D01*
X75407671Y-95626202D01*
X75407664Y-95626206D01*
X75292455Y-95712452D01*
X75292452Y-95712455D01*
X75206206Y-95827664D01*
X75206202Y-95827671D01*
X75155908Y-95962517D01*
X75149501Y-96022116D01*
X75149501Y-96022123D01*
X75149500Y-96022135D01*
X75149500Y-97817870D01*
X75149501Y-97817876D01*
X75155908Y-97877483D01*
X75206202Y-98012328D01*
X75206206Y-98012335D01*
X75292452Y-98127544D01*
X75292455Y-98127547D01*
X75407664Y-98213793D01*
X75407671Y-98213797D01*
X75539082Y-98262810D01*
X75595016Y-98304681D01*
X75619433Y-98370145D01*
X75604582Y-98438418D01*
X75583431Y-98466673D01*
X75469889Y-98580215D01*
X75344948Y-98752184D01*
X75344947Y-98752185D01*
X75324765Y-98791795D01*
X75276791Y-98842591D01*
X75214281Y-98859500D01*
X73724500Y-98859500D01*
X73657461Y-98839815D01*
X73611706Y-98787011D01*
X73600500Y-98735500D01*
X73600500Y-95920945D01*
X73600500Y-95920943D01*
X73576483Y-95831309D01*
X73559577Y-95768215D01*
X73513389Y-95688216D01*
X73480520Y-95631284D01*
X73368716Y-95519480D01*
X73288716Y-95439480D01*
X73288715Y-95439479D01*
X73288712Y-95439477D01*
X73190510Y-95382781D01*
X73190509Y-95382780D01*
X73151790Y-95360425D01*
X73151789Y-95360424D01*
X73139263Y-95357067D01*
X72999057Y-95319499D01*
X72840943Y-95319499D01*
X72833347Y-95319499D01*
X72833331Y-95319500D01*
X72229602Y-95319500D01*
X72162563Y-95299815D01*
X72119117Y-95251795D01*
X72112284Y-95238385D01*
X71991971Y-95072786D01*
X71847213Y-94928028D01*
X71681613Y-94807715D01*
X71681612Y-94807714D01*
X71681610Y-94807713D01*
X71624653Y-94778691D01*
X71499223Y-94714781D01*
X71304534Y-94651522D01*
X71129995Y-94623878D01*
X71102352Y-94619500D01*
X70897648Y-94619500D01*
X70873329Y-94623351D01*
X70695465Y-94651522D01*
X70500776Y-94714781D01*
X70318386Y-94807715D01*
X70152786Y-94928028D01*
X70008028Y-95072786D01*
X69887715Y-95238386D01*
X69794781Y-95420776D01*
X69731522Y-95615465D01*
X69699500Y-95817648D01*
X65600500Y-95817648D01*
X65600500Y-88550860D01*
X65620185Y-88483821D01*
X65672989Y-88438066D01*
X65699886Y-88429959D01*
X65699803Y-88429613D01*
X65704528Y-88428477D01*
X65704534Y-88428477D01*
X65899219Y-88365220D01*
X66081610Y-88272287D01*
X66174590Y-88204732D01*
X66247213Y-88151971D01*
X66247215Y-88151968D01*
X66247219Y-88151966D01*
X66391966Y-88007219D01*
X66391968Y-88007215D01*
X66391971Y-88007213D01*
X66454649Y-87920943D01*
X66512287Y-87841610D01*
X66605220Y-87659219D01*
X66668477Y-87464534D01*
X66700500Y-87262352D01*
X66700500Y-87057648D01*
X66685034Y-86960000D01*
X66668477Y-86855465D01*
X66605218Y-86660776D01*
X66512419Y-86478650D01*
X66512287Y-86478390D01*
X66504556Y-86467749D01*
X66391971Y-86312786D01*
X66247213Y-86168028D01*
X66081614Y-86047715D01*
X66075006Y-86044348D01*
X65988917Y-86000483D01*
X65938123Y-85952511D01*
X65921328Y-85884690D01*
X65943865Y-85818555D01*
X65988917Y-85779516D01*
X66081610Y-85732287D01*
X66102770Y-85716913D01*
X66247213Y-85611971D01*
X66247215Y-85611968D01*
X66247219Y-85611966D01*
X66391966Y-85467219D01*
X66391968Y-85467215D01*
X66391971Y-85467213D01*
X66444732Y-85394590D01*
X66512287Y-85301610D01*
X66605220Y-85119219D01*
X66668477Y-84924534D01*
X66700500Y-84722352D01*
X66700500Y-84517648D01*
X66668477Y-84315466D01*
X66605220Y-84120781D01*
X66605218Y-84120778D01*
X66605218Y-84120776D01*
X66553602Y-84019475D01*
X66512287Y-83938390D01*
X66484032Y-83899500D01*
X66391971Y-83772786D01*
X66247213Y-83628028D01*
X66081611Y-83507713D01*
X65988369Y-83460203D01*
X65937574Y-83412229D01*
X65920779Y-83344407D01*
X65943317Y-83278273D01*
X65988371Y-83239234D01*
X66081347Y-83191861D01*
X66246894Y-83071582D01*
X66246895Y-83071582D01*
X66391582Y-82926895D01*
X66391582Y-82926894D01*
X66511859Y-82761349D01*
X66604755Y-82579029D01*
X66667990Y-82384413D01*
X66684528Y-82280000D01*
X65346410Y-82280000D01*
X65372741Y-82234394D01*
X65400000Y-82132661D01*
X65400000Y-82027339D01*
X65372741Y-81925606D01*
X65346411Y-81880000D01*
X66684528Y-81880000D01*
X66667990Y-81775586D01*
X66604755Y-81580970D01*
X66511859Y-81398650D01*
X66391582Y-81233105D01*
X66391582Y-81233104D01*
X66246895Y-81088417D01*
X66081349Y-80968140D01*
X65988370Y-80920765D01*
X65937574Y-80872790D01*
X65920779Y-80804969D01*
X65943316Y-80738835D01*
X65988370Y-80699795D01*
X65989471Y-80699234D01*
X66081610Y-80652287D01*
X66102770Y-80636913D01*
X66247213Y-80531971D01*
X66247215Y-80531968D01*
X66247219Y-80531966D01*
X66391966Y-80387219D01*
X66391968Y-80387215D01*
X66391971Y-80387213D01*
X66512284Y-80221614D01*
X66512285Y-80221613D01*
X66512287Y-80221610D01*
X66519117Y-80208204D01*
X66567091Y-80157409D01*
X66629602Y-80140500D01*
X79239903Y-80140500D01*
X79306942Y-80160185D01*
X79327584Y-80176819D01*
X79363181Y-80212416D01*
X79396666Y-80273739D01*
X79399500Y-80300097D01*
X79399500Y-92920234D01*
X79379815Y-92987273D01*
X79378602Y-92989125D01*
X79290609Y-93120814D01*
X79290602Y-93120827D01*
X79230264Y-93266498D01*
X79230261Y-93266510D01*
X79199500Y-93421153D01*
X79199500Y-93578846D01*
X79230261Y-93733489D01*
X79230264Y-93733501D01*
X79290602Y-93879172D01*
X79290609Y-93879185D01*
X79378210Y-94010288D01*
X79378213Y-94010292D01*
X79489707Y-94121786D01*
X79489711Y-94121789D01*
X79620814Y-94209390D01*
X79620827Y-94209397D01*
X79766498Y-94269735D01*
X79766503Y-94269737D01*
X79921153Y-94300499D01*
X79921156Y-94300500D01*
X79921158Y-94300500D01*
X80078844Y-94300500D01*
X80078845Y-94300499D01*
X80233497Y-94269737D01*
X80379179Y-94209394D01*
X80510289Y-94121789D01*
X80621789Y-94010289D01*
X80709394Y-93879179D01*
X80769737Y-93733497D01*
X80800500Y-93578842D01*
X80800500Y-93421158D01*
X80800500Y-93421155D01*
X80800499Y-93421153D01*
X80769738Y-93266510D01*
X80769737Y-93266503D01*
X80769735Y-93266498D01*
X80709397Y-93120827D01*
X80709390Y-93120814D01*
X80621398Y-92989125D01*
X80600520Y-92922447D01*
X80600500Y-92920234D01*
X80600500Y-79920946D01*
X80600500Y-79920943D01*
X80580027Y-79844534D01*
X80559577Y-79768215D01*
X80530639Y-79718095D01*
X80480520Y-79631284D01*
X80368716Y-79519480D01*
X80368715Y-79519479D01*
X80364385Y-79515149D01*
X80364374Y-79515139D01*
X80027590Y-79178355D01*
X80027588Y-79178352D01*
X79908717Y-79059481D01*
X79908716Y-79059480D01*
X79821904Y-79009360D01*
X79821904Y-79009359D01*
X79821900Y-79009358D01*
X79771785Y-78980423D01*
X79619057Y-78939499D01*
X79460943Y-78939499D01*
X79453347Y-78939499D01*
X79453331Y-78939500D01*
X66629602Y-78939500D01*
X66562563Y-78919815D01*
X66519117Y-78871795D01*
X66512284Y-78858385D01*
X66391971Y-78692786D01*
X66247213Y-78548028D01*
X66081614Y-78427715D01*
X66075006Y-78424348D01*
X65988917Y-78380483D01*
X65938123Y-78332511D01*
X65921328Y-78264690D01*
X65943865Y-78198555D01*
X65988917Y-78159516D01*
X66081610Y-78112287D01*
X66102770Y-78096913D01*
X66247213Y-77991971D01*
X66247215Y-77991968D01*
X66247219Y-77991966D01*
X66391966Y-77847219D01*
X66391968Y-77847215D01*
X66391971Y-77847213D01*
X66512284Y-77681614D01*
X66512285Y-77681613D01*
X66512287Y-77681610D01*
X66519117Y-77668204D01*
X66567091Y-77617409D01*
X66629602Y-77600500D01*
X67579055Y-77600500D01*
X67579057Y-77600500D01*
X67731784Y-77559577D01*
X67868716Y-77480520D01*
X67980520Y-77368716D01*
X68059577Y-77231784D01*
X68100500Y-77079057D01*
X68100500Y-76401617D01*
X70250000Y-76401617D01*
X70250000Y-76598382D01*
X70280778Y-76792705D01*
X70341581Y-76979835D01*
X70430904Y-77155143D01*
X70486076Y-77231079D01*
X70486077Y-77231080D01*
X71134042Y-76583114D01*
X71150556Y-76644745D01*
X71199925Y-76730255D01*
X71269745Y-76800075D01*
X71355255Y-76849444D01*
X71416884Y-76865957D01*
X70768918Y-77513922D01*
X70844856Y-77569095D01*
X71020164Y-77658418D01*
X71207294Y-77719221D01*
X71401618Y-77750000D01*
X71598382Y-77750000D01*
X71792705Y-77719221D01*
X71979835Y-77658418D01*
X72155143Y-77569095D01*
X72231079Y-77513922D01*
X72231080Y-77513921D01*
X71583116Y-76865957D01*
X71644745Y-76849444D01*
X71730255Y-76800075D01*
X71800075Y-76730255D01*
X71849444Y-76644745D01*
X71865957Y-76583115D01*
X72513921Y-77231080D01*
X72513922Y-77231079D01*
X72569095Y-77155143D01*
X72658418Y-76979835D01*
X72719221Y-76792705D01*
X72750000Y-76598382D01*
X72750000Y-76401617D01*
X72719221Y-76207294D01*
X72658418Y-76020164D01*
X72569095Y-75844856D01*
X72513922Y-75768919D01*
X72513922Y-75768918D01*
X71865957Y-76416883D01*
X71849444Y-76355255D01*
X71800075Y-76269745D01*
X71730255Y-76199925D01*
X71644745Y-76150556D01*
X71583115Y-76134042D01*
X72231080Y-75486077D01*
X72231079Y-75486076D01*
X72155143Y-75430904D01*
X71979835Y-75341581D01*
X71792705Y-75280778D01*
X71598382Y-75250000D01*
X71401618Y-75250000D01*
X71207294Y-75280778D01*
X71020164Y-75341581D01*
X70844855Y-75430905D01*
X70844846Y-75430911D01*
X70768919Y-75486075D01*
X70768918Y-75486076D01*
X71416884Y-76134042D01*
X71355255Y-76150556D01*
X71269745Y-76199925D01*
X71199925Y-76269745D01*
X71150556Y-76355255D01*
X71134042Y-76416884D01*
X70486076Y-75768918D01*
X70486075Y-75768919D01*
X70430911Y-75844846D01*
X70430905Y-75844855D01*
X70341581Y-76020164D01*
X70280778Y-76207294D01*
X70250000Y-76401617D01*
X68100500Y-76401617D01*
X68100500Y-71401577D01*
X70249500Y-71401577D01*
X70249500Y-71598422D01*
X70280290Y-71792826D01*
X70341117Y-71980029D01*
X70412436Y-72120000D01*
X70430476Y-72155405D01*
X70546172Y-72314646D01*
X70685354Y-72453828D01*
X70844595Y-72569524D01*
X70907568Y-72601610D01*
X71019970Y-72658882D01*
X71019972Y-72658882D01*
X71019975Y-72658884D01*
X71120317Y-72691487D01*
X71207173Y-72719709D01*
X71401578Y-72750500D01*
X71401583Y-72750500D01*
X71598422Y-72750500D01*
X71792826Y-72719709D01*
X71980025Y-72658884D01*
X72155405Y-72569524D01*
X72314646Y-72453828D01*
X72431656Y-72336818D01*
X72492979Y-72303334D01*
X72519337Y-72300500D01*
X78078844Y-72300500D01*
X78078845Y-72300499D01*
X78233497Y-72269737D01*
X78379179Y-72209394D01*
X78510289Y-72121789D01*
X78713741Y-71918335D01*
X78775062Y-71884852D01*
X78844754Y-71889836D01*
X78874305Y-71905699D01*
X78923212Y-71941232D01*
X79077555Y-72019873D01*
X79242299Y-72073402D01*
X79413389Y-72100500D01*
X79413390Y-72100500D01*
X79586610Y-72100500D01*
X79586611Y-72100500D01*
X79757701Y-72073402D01*
X79922445Y-72019873D01*
X80076788Y-71941232D01*
X80216928Y-71839414D01*
X80339414Y-71716928D01*
X80441232Y-71576788D01*
X80519873Y-71422445D01*
X80573402Y-71257701D01*
X80600500Y-71086611D01*
X80600500Y-70913389D01*
X80573402Y-70742299D01*
X80519873Y-70577555D01*
X80441232Y-70423212D01*
X80339414Y-70283072D01*
X80216928Y-70160586D01*
X80076788Y-70058768D01*
X79922445Y-69980127D01*
X79757701Y-69926598D01*
X79757699Y-69926597D01*
X79757698Y-69926597D01*
X79626271Y-69905781D01*
X79586611Y-69899500D01*
X79413389Y-69899500D01*
X79373728Y-69905781D01*
X79242302Y-69926597D01*
X79077552Y-69980128D01*
X78923211Y-70058768D01*
X78881538Y-70089046D01*
X78783072Y-70160586D01*
X78783070Y-70160588D01*
X78783069Y-70160588D01*
X78780477Y-70163181D01*
X78719154Y-70196666D01*
X78692796Y-70199500D01*
X78421153Y-70199500D01*
X78266510Y-70230260D01*
X78266502Y-70230262D01*
X78120824Y-70290604D01*
X78120814Y-70290609D01*
X77989711Y-70378210D01*
X77989707Y-70378213D01*
X77704741Y-70663181D01*
X77643418Y-70696666D01*
X77617060Y-70699500D01*
X72519337Y-70699500D01*
X72452298Y-70679815D01*
X72431656Y-70663182D01*
X72387974Y-70619500D01*
X72314646Y-70546172D01*
X72155405Y-70430476D01*
X72141147Y-70423211D01*
X71980029Y-70341117D01*
X71792826Y-70280290D01*
X71598422Y-70249500D01*
X71598417Y-70249500D01*
X71401583Y-70249500D01*
X71401578Y-70249500D01*
X71207173Y-70280290D01*
X71019970Y-70341117D01*
X70844594Y-70430476D01*
X70753741Y-70496485D01*
X70685354Y-70546172D01*
X70685352Y-70546174D01*
X70685351Y-70546174D01*
X70546174Y-70685351D01*
X70546174Y-70685352D01*
X70546172Y-70685354D01*
X70524793Y-70714780D01*
X70430476Y-70844594D01*
X70341117Y-71019970D01*
X70280290Y-71207173D01*
X70249500Y-71401577D01*
X68100500Y-71401577D01*
X68100500Y-62089060D01*
X68100501Y-62089047D01*
X68100501Y-61920944D01*
X68075160Y-61826372D01*
X68059577Y-61768216D01*
X68059573Y-61768209D01*
X67980524Y-61631290D01*
X67980518Y-61631282D01*
X67083862Y-60734626D01*
X67050377Y-60673303D01*
X67055361Y-60603611D01*
X67097233Y-60547678D01*
X67162697Y-60523261D01*
X67230970Y-60538113D01*
X67233483Y-60539523D01*
X67268215Y-60559577D01*
X67420943Y-60600501D01*
X67420946Y-60600501D01*
X67586653Y-60600501D01*
X67586669Y-60600500D01*
X76275500Y-60600500D01*
X76342539Y-60620185D01*
X76388294Y-60672989D01*
X76399500Y-60724500D01*
X76399500Y-67920234D01*
X76379815Y-67987273D01*
X76378602Y-67989125D01*
X76290609Y-68120814D01*
X76290602Y-68120827D01*
X76230264Y-68266498D01*
X76230261Y-68266510D01*
X76199500Y-68421153D01*
X76199500Y-68578846D01*
X76230261Y-68733489D01*
X76230264Y-68733501D01*
X76290602Y-68879172D01*
X76290609Y-68879185D01*
X76378210Y-69010288D01*
X76378213Y-69010292D01*
X76489707Y-69121786D01*
X76489711Y-69121789D01*
X76620814Y-69209390D01*
X76620827Y-69209397D01*
X76766498Y-69269735D01*
X76766503Y-69269737D01*
X76921153Y-69300499D01*
X76921156Y-69300500D01*
X76921158Y-69300500D01*
X77078844Y-69300500D01*
X77078845Y-69300499D01*
X77233497Y-69269737D01*
X77379179Y-69209394D01*
X77510289Y-69121789D01*
X77621789Y-69010289D01*
X77709394Y-68879179D01*
X77769737Y-68733497D01*
X77800500Y-68578842D01*
X77800500Y-68421158D01*
X77800500Y-68421155D01*
X77800499Y-68421153D01*
X77769738Y-68266510D01*
X77769737Y-68266503D01*
X77769735Y-68266498D01*
X77709397Y-68120827D01*
X77709390Y-68120814D01*
X77621398Y-67989125D01*
X77600520Y-67922447D01*
X77600500Y-67920234D01*
X77600500Y-59920945D01*
X77600500Y-59920943D01*
X77559577Y-59768216D01*
X77525618Y-59709397D01*
X77480524Y-59631290D01*
X77480518Y-59631282D01*
X77368717Y-59519481D01*
X77368709Y-59519475D01*
X77231790Y-59440426D01*
X77231786Y-59440424D01*
X77231784Y-59440423D01*
X77079057Y-59399500D01*
X77079056Y-59399500D01*
X67800097Y-59399500D01*
X67733058Y-59379815D01*
X67712416Y-59363181D01*
X65636819Y-57287584D01*
X65603334Y-57226261D01*
X65600500Y-57199903D01*
X65600500Y-45184500D01*
X65620185Y-45117461D01*
X65672989Y-45071706D01*
X65724500Y-45060500D01*
X66693270Y-45060500D01*
X66760309Y-45080185D01*
X66797191Y-45117866D01*
X66797349Y-45117752D01*
X66798127Y-45118823D01*
X66799000Y-45119715D01*
X66800210Y-45121690D01*
X66800213Y-45121694D01*
X66917019Y-45282464D01*
X67057536Y-45422981D01*
X67218306Y-45539787D01*
X67336832Y-45600179D01*
X67374780Y-45619515D01*
X67425576Y-45667490D01*
X67442371Y-45735311D01*
X67419833Y-45801446D01*
X67374780Y-45840485D01*
X67218305Y-45920213D01*
X67057533Y-46037021D01*
X66917021Y-46177533D01*
X66800213Y-46338305D01*
X66709994Y-46515367D01*
X66709993Y-46515370D01*
X66648587Y-46704362D01*
X66648587Y-46704364D01*
X66617500Y-46900639D01*
X66617500Y-47099361D01*
X66633043Y-47197498D01*
X66648587Y-47295637D01*
X66709993Y-47484629D01*
X66709994Y-47484632D01*
X66800213Y-47661694D01*
X66917019Y-47822464D01*
X67057536Y-47962981D01*
X67218306Y-48079787D01*
X67336832Y-48140179D01*
X67374780Y-48159515D01*
X67425576Y-48207490D01*
X67442371Y-48275311D01*
X67419833Y-48341446D01*
X67374780Y-48380485D01*
X67218305Y-48460213D01*
X67057533Y-48577021D01*
X66917021Y-48717533D01*
X66800213Y-48878305D01*
X66709994Y-49055367D01*
X66709993Y-49055370D01*
X66648587Y-49244362D01*
X66617500Y-49440639D01*
X66617500Y-49639360D01*
X66648587Y-49835637D01*
X66709993Y-50024629D01*
X66709994Y-50024632D01*
X66791883Y-50185345D01*
X66800213Y-50201694D01*
X66917019Y-50362464D01*
X67057536Y-50502981D01*
X67218306Y-50619787D01*
X67336832Y-50680179D01*
X67374780Y-50699515D01*
X67425576Y-50747490D01*
X67442371Y-50815311D01*
X67419833Y-50881446D01*
X67374780Y-50920485D01*
X67218305Y-51000213D01*
X67057533Y-51117021D01*
X66917021Y-51257533D01*
X66800213Y-51418305D01*
X66709994Y-51595367D01*
X66709993Y-51595370D01*
X66648587Y-51784362D01*
X66648587Y-51784364D01*
X66617500Y-51980639D01*
X66617500Y-52179361D01*
X66632727Y-52275500D01*
X66648587Y-52375637D01*
X66709993Y-52564629D01*
X66709994Y-52564632D01*
X66800213Y-52741694D01*
X66917019Y-52902464D01*
X67057536Y-53042981D01*
X67218306Y-53159787D01*
X67336832Y-53220179D01*
X67374780Y-53239515D01*
X67425576Y-53287490D01*
X67442371Y-53355311D01*
X67419833Y-53421446D01*
X67374780Y-53460485D01*
X67218305Y-53540213D01*
X67057533Y-53657021D01*
X66917021Y-53797533D01*
X66800213Y-53958305D01*
X66709994Y-54135367D01*
X66709993Y-54135370D01*
X66648587Y-54324362D01*
X66648587Y-54324364D01*
X66617500Y-54520639D01*
X66617500Y-54719361D01*
X66631837Y-54809879D01*
X66648587Y-54915637D01*
X66709993Y-55104629D01*
X66709994Y-55104632D01*
X66791883Y-55265345D01*
X66800213Y-55281694D01*
X66917019Y-55442464D01*
X67057536Y-55582981D01*
X67218306Y-55699787D01*
X67243092Y-55712416D01*
X67395367Y-55790005D01*
X67395370Y-55790006D01*
X67426428Y-55800097D01*
X67584364Y-55851413D01*
X67780639Y-55882500D01*
X67780640Y-55882500D01*
X67979360Y-55882500D01*
X67979361Y-55882500D01*
X68175636Y-55851413D01*
X68364632Y-55790005D01*
X68541694Y-55699787D01*
X68702464Y-55582981D01*
X68842981Y-55442464D01*
X68959787Y-55281694D01*
X69050005Y-55104632D01*
X69111413Y-54915636D01*
X69142500Y-54719361D01*
X69142500Y-54520639D01*
X69111413Y-54324364D01*
X69080709Y-54229866D01*
X69050006Y-54135370D01*
X69050005Y-54135367D01*
X68959786Y-53958305D01*
X68932795Y-53921155D01*
X68842981Y-53797536D01*
X68702464Y-53657019D01*
X68541694Y-53540213D01*
X68385218Y-53460484D01*
X68334423Y-53412510D01*
X68317628Y-53344689D01*
X68340165Y-53278554D01*
X68385218Y-53239515D01*
X68541694Y-53159787D01*
X68702464Y-53042981D01*
X68842981Y-52902464D01*
X68959787Y-52741694D01*
X69050005Y-52564632D01*
X69111413Y-52375636D01*
X69142500Y-52179361D01*
X69142500Y-51980639D01*
X69111413Y-51784364D01*
X69050005Y-51595368D01*
X69050005Y-51595367D01*
X68959786Y-51418305D01*
X68891172Y-51323866D01*
X68842981Y-51257536D01*
X68702464Y-51117019D01*
X68541694Y-51000213D01*
X68385218Y-50920484D01*
X68334423Y-50872510D01*
X68317628Y-50804689D01*
X68340165Y-50738554D01*
X68385218Y-50699515D01*
X68541694Y-50619787D01*
X68702464Y-50502981D01*
X68842981Y-50362464D01*
X68959787Y-50201694D01*
X69050005Y-50024632D01*
X69111413Y-49835636D01*
X69142500Y-49639361D01*
X69142500Y-49440639D01*
X69111413Y-49244364D01*
X69080709Y-49149866D01*
X69050006Y-49055370D01*
X69050005Y-49055367D01*
X68959786Y-48878305D01*
X68888681Y-48780437D01*
X68842981Y-48717536D01*
X68702464Y-48577019D01*
X68541694Y-48460213D01*
X68385218Y-48380484D01*
X68334423Y-48332510D01*
X68317628Y-48264689D01*
X68340165Y-48198554D01*
X68385218Y-48159515D01*
X68541694Y-48079787D01*
X68702464Y-47962981D01*
X68842981Y-47822464D01*
X68959787Y-47661694D01*
X69050005Y-47484632D01*
X69111413Y-47295636D01*
X69142500Y-47099361D01*
X69142500Y-46900639D01*
X69111413Y-46704364D01*
X69050005Y-46515368D01*
X69050005Y-46515367D01*
X68959786Y-46338305D01*
X68891172Y-46243866D01*
X68842981Y-46177536D01*
X68702464Y-46037019D01*
X68541694Y-45920213D01*
X68385218Y-45840484D01*
X68334423Y-45792510D01*
X68317628Y-45724689D01*
X68340165Y-45658554D01*
X68385218Y-45619515D01*
X68541694Y-45539787D01*
X68702464Y-45422981D01*
X68842981Y-45282464D01*
X68959787Y-45121694D01*
X69050005Y-44944632D01*
X69111413Y-44755636D01*
X69142500Y-44559361D01*
X69142500Y-44360639D01*
X69111413Y-44164364D01*
X69064338Y-44019480D01*
X69050006Y-43975370D01*
X69050005Y-43975367D01*
X68990967Y-43859500D01*
X68959787Y-43798306D01*
X68842981Y-43637536D01*
X68702464Y-43497019D01*
X68541694Y-43380213D01*
X68385218Y-43300484D01*
X68334423Y-43252510D01*
X68317628Y-43184689D01*
X68340165Y-43118554D01*
X68385218Y-43079515D01*
X68541694Y-42999787D01*
X68702464Y-42882981D01*
X68842981Y-42742464D01*
X68959787Y-42581694D01*
X69050005Y-42404632D01*
X69111413Y-42215636D01*
X69142500Y-42019361D01*
X69142500Y-41820639D01*
X69111413Y-41624364D01*
X69063045Y-41475500D01*
X69050006Y-41435370D01*
X69050005Y-41435367D01*
X68984681Y-41307163D01*
X68959787Y-41258306D01*
X68842981Y-41097536D01*
X68702464Y-40957019D01*
X68541694Y-40840213D01*
X68385218Y-40760484D01*
X68334423Y-40712510D01*
X68317628Y-40644689D01*
X68340165Y-40578554D01*
X68385218Y-40539515D01*
X68541694Y-40459787D01*
X68702464Y-40342981D01*
X68842981Y-40202464D01*
X68959787Y-40041694D01*
X69050005Y-39864632D01*
X69111413Y-39675636D01*
X69142500Y-39479361D01*
X69142500Y-39280639D01*
X81857500Y-39280639D01*
X81857500Y-39479360D01*
X81888587Y-39675637D01*
X81949993Y-39864629D01*
X81949994Y-39864632D01*
X82040213Y-40041694D01*
X82157019Y-40202464D01*
X82297536Y-40342981D01*
X82458306Y-40459787D01*
X82615332Y-40539796D01*
X82666127Y-40587769D01*
X82682922Y-40655590D01*
X82660385Y-40721725D01*
X82615332Y-40760764D01*
X82458574Y-40840637D01*
X82380328Y-40897485D01*
X82980138Y-41497295D01*
X82948429Y-41505792D01*
X82847070Y-41564311D01*
X82764311Y-41647070D01*
X82705792Y-41748429D01*
X82697295Y-41780138D01*
X82097485Y-41180328D01*
X82040639Y-41258571D01*
X81950457Y-41435562D01*
X81889075Y-41624476D01*
X81889075Y-41624479D01*
X81858000Y-41820678D01*
X81858000Y-42019321D01*
X81889075Y-42215520D01*
X81889075Y-42215523D01*
X81950457Y-42404437D01*
X82040641Y-42581432D01*
X82097485Y-42659670D01*
X82097486Y-42659671D01*
X82697295Y-42059861D01*
X82705792Y-42091571D01*
X82764311Y-42192930D01*
X82847070Y-42275689D01*
X82948429Y-42334208D01*
X82980137Y-42342704D01*
X82380327Y-42942513D01*
X82458567Y-42999358D01*
X82615331Y-43079234D01*
X82666127Y-43127209D01*
X82682922Y-43195030D01*
X82660384Y-43261165D01*
X82615331Y-43300204D01*
X82458305Y-43380213D01*
X82297533Y-43497021D01*
X82157021Y-43637533D01*
X82040213Y-43798305D01*
X81949994Y-43975367D01*
X81949993Y-43975370D01*
X81888587Y-44164362D01*
X81857500Y-44360639D01*
X81857500Y-44559360D01*
X81888587Y-44755637D01*
X81949993Y-44944629D01*
X81949994Y-44944632D01*
X82019063Y-45080185D01*
X82040213Y-45121694D01*
X82157019Y-45282464D01*
X82297536Y-45422981D01*
X82458306Y-45539787D01*
X82576832Y-45600179D01*
X82614780Y-45619515D01*
X82665576Y-45667490D01*
X82682371Y-45735311D01*
X82659833Y-45801446D01*
X82614780Y-45840485D01*
X82458305Y-45920213D01*
X82297533Y-46037021D01*
X82157021Y-46177533D01*
X82040213Y-46338305D01*
X81949994Y-46515367D01*
X81949993Y-46515370D01*
X81888587Y-46704362D01*
X81888587Y-46704364D01*
X81857500Y-46900639D01*
X81857500Y-47099361D01*
X81873043Y-47197498D01*
X81888587Y-47295637D01*
X81949993Y-47484629D01*
X81949994Y-47484632D01*
X82040213Y-47661694D01*
X82157019Y-47822464D01*
X82297536Y-47962981D01*
X82458306Y-48079787D01*
X82576832Y-48140179D01*
X82614780Y-48159515D01*
X82665576Y-48207490D01*
X82682371Y-48275311D01*
X82659833Y-48341446D01*
X82614780Y-48380485D01*
X82458305Y-48460213D01*
X82297533Y-48577021D01*
X82157021Y-48717533D01*
X82040213Y-48878305D01*
X81949994Y-49055367D01*
X81949993Y-49055370D01*
X81888587Y-49244362D01*
X81857500Y-49440639D01*
X81857500Y-49639360D01*
X81888587Y-49835637D01*
X81949993Y-50024629D01*
X81949994Y-50024632D01*
X82031883Y-50185345D01*
X82040213Y-50201694D01*
X82157019Y-50362464D01*
X82297536Y-50502981D01*
X82458306Y-50619787D01*
X82576832Y-50680179D01*
X82614780Y-50699515D01*
X82665576Y-50747490D01*
X82682371Y-50815311D01*
X82659833Y-50881446D01*
X82614780Y-50920485D01*
X82458305Y-51000213D01*
X82297533Y-51117021D01*
X82157021Y-51257533D01*
X82040213Y-51418305D01*
X81949994Y-51595367D01*
X81949993Y-51595370D01*
X81888587Y-51784362D01*
X81888587Y-51784364D01*
X81857500Y-51980639D01*
X81857500Y-52179361D01*
X81872727Y-52275500D01*
X81888587Y-52375637D01*
X81949993Y-52564629D01*
X81949994Y-52564632D01*
X82040213Y-52741694D01*
X82157019Y-52902464D01*
X82297536Y-53042981D01*
X82458306Y-53159787D01*
X82576832Y-53220179D01*
X82614780Y-53239515D01*
X82665576Y-53287490D01*
X82682371Y-53355311D01*
X82659833Y-53421446D01*
X82614780Y-53460485D01*
X82458305Y-53540213D01*
X82297533Y-53657021D01*
X82157021Y-53797533D01*
X82040213Y-53958305D01*
X81949994Y-54135367D01*
X81949993Y-54135370D01*
X81888587Y-54324362D01*
X81888587Y-54324364D01*
X81857500Y-54520639D01*
X81857500Y-54719361D01*
X81871837Y-54809879D01*
X81888587Y-54915637D01*
X81949993Y-55104629D01*
X81949994Y-55104632D01*
X82031883Y-55265345D01*
X82040213Y-55281694D01*
X82157019Y-55442464D01*
X82297536Y-55582981D01*
X82458306Y-55699787D01*
X82483092Y-55712416D01*
X82635367Y-55790005D01*
X82635370Y-55790006D01*
X82666428Y-55800097D01*
X82824364Y-55851413D01*
X83020639Y-55882500D01*
X83020640Y-55882500D01*
X83219360Y-55882500D01*
X83219361Y-55882500D01*
X83415636Y-55851413D01*
X83604632Y-55790005D01*
X83781694Y-55699787D01*
X83942464Y-55582981D01*
X84082981Y-55442464D01*
X84199787Y-55281694D01*
X84290005Y-55104632D01*
X84351413Y-54915636D01*
X84382500Y-54719361D01*
X84382500Y-54520639D01*
X84351413Y-54324364D01*
X84320709Y-54229866D01*
X84290006Y-54135370D01*
X84290005Y-54135367D01*
X84199786Y-53958305D01*
X84172795Y-53921155D01*
X84082981Y-53797536D01*
X83942464Y-53657019D01*
X83781694Y-53540213D01*
X83625218Y-53460484D01*
X83574423Y-53412510D01*
X83557628Y-53344689D01*
X83580165Y-53278554D01*
X83625218Y-53239515D01*
X83781694Y-53159787D01*
X83942464Y-53042981D01*
X84082981Y-52902464D01*
X84199787Y-52741694D01*
X84290005Y-52564632D01*
X84351413Y-52375636D01*
X84382500Y-52179361D01*
X84382500Y-51980639D01*
X84351413Y-51784364D01*
X84290005Y-51595368D01*
X84290005Y-51595367D01*
X84199786Y-51418305D01*
X84131172Y-51323866D01*
X84082981Y-51257536D01*
X83942464Y-51117019D01*
X83781694Y-51000213D01*
X83625218Y-50920484D01*
X83574423Y-50872510D01*
X83557628Y-50804689D01*
X83580165Y-50738554D01*
X83625218Y-50699515D01*
X83781694Y-50619787D01*
X83942464Y-50502981D01*
X84082981Y-50362464D01*
X84199787Y-50201694D01*
X84290005Y-50024632D01*
X84351413Y-49835636D01*
X84382500Y-49639361D01*
X84382500Y-49440639D01*
X84351413Y-49244364D01*
X84320709Y-49149866D01*
X84290006Y-49055370D01*
X84290005Y-49055367D01*
X84199786Y-48878305D01*
X84128681Y-48780437D01*
X84082981Y-48717536D01*
X83942464Y-48577019D01*
X83781694Y-48460213D01*
X83625218Y-48380484D01*
X83574423Y-48332510D01*
X83557628Y-48264689D01*
X83580165Y-48198554D01*
X83625218Y-48159515D01*
X83781694Y-48079787D01*
X83942464Y-47962981D01*
X84082981Y-47822464D01*
X84199787Y-47661694D01*
X84290005Y-47484632D01*
X84351413Y-47295636D01*
X84382500Y-47099361D01*
X84382500Y-46900639D01*
X84351413Y-46704364D01*
X84290005Y-46515368D01*
X84290005Y-46515367D01*
X84199786Y-46338305D01*
X84131172Y-46243866D01*
X84082981Y-46177536D01*
X83942464Y-46037019D01*
X83781694Y-45920213D01*
X83625218Y-45840484D01*
X83574423Y-45792510D01*
X83557628Y-45724689D01*
X83580165Y-45658554D01*
X83625218Y-45619515D01*
X83781694Y-45539787D01*
X83942464Y-45422981D01*
X84082981Y-45282464D01*
X84199787Y-45121694D01*
X84290005Y-44944632D01*
X84351413Y-44755636D01*
X84382500Y-44559361D01*
X84382500Y-44360639D01*
X84351413Y-44164364D01*
X84304338Y-44019480D01*
X84290006Y-43975370D01*
X84290005Y-43975367D01*
X84230967Y-43859500D01*
X84199787Y-43798306D01*
X84082981Y-43637536D01*
X83942464Y-43497019D01*
X83781694Y-43380213D01*
X83624667Y-43300203D01*
X83573872Y-43252229D01*
X83557077Y-43184408D01*
X83579614Y-43118273D01*
X83624668Y-43079234D01*
X83781431Y-42999359D01*
X83859670Y-42942513D01*
X83859671Y-42942512D01*
X83259863Y-42342704D01*
X83291571Y-42334208D01*
X83392930Y-42275689D01*
X83475689Y-42192930D01*
X83534208Y-42091571D01*
X83542704Y-42059862D01*
X84142512Y-42659671D01*
X84142513Y-42659670D01*
X84199359Y-42581431D01*
X84289542Y-42404437D01*
X84350924Y-42215523D01*
X84350924Y-42215520D01*
X84382000Y-42019321D01*
X84382000Y-41820678D01*
X84350924Y-41624479D01*
X84350924Y-41624476D01*
X84289542Y-41435562D01*
X84199358Y-41258567D01*
X84142513Y-41180328D01*
X84142513Y-41180327D01*
X83542704Y-41780136D01*
X83534208Y-41748429D01*
X83475689Y-41647070D01*
X83392930Y-41564311D01*
X83291571Y-41505792D01*
X83259862Y-41497295D01*
X83859671Y-40897486D01*
X83859670Y-40897485D01*
X83781432Y-40840641D01*
X83624668Y-40760765D01*
X83573872Y-40712790D01*
X83557077Y-40644969D01*
X83579615Y-40578834D01*
X83624667Y-40539796D01*
X83781694Y-40459787D01*
X83942464Y-40342981D01*
X84082981Y-40202464D01*
X84199787Y-40041694D01*
X84290005Y-39864632D01*
X84351413Y-39675636D01*
X84382500Y-39479361D01*
X84382500Y-39280639D01*
X84351413Y-39084364D01*
X84290005Y-38895368D01*
X84290005Y-38895367D01*
X84199786Y-38718305D01*
X84082981Y-38557536D01*
X83942464Y-38417019D01*
X83781694Y-38300213D01*
X83604632Y-38209994D01*
X83604629Y-38209993D01*
X83415637Y-38148587D01*
X83317498Y-38133043D01*
X83219361Y-38117500D01*
X83020639Y-38117500D01*
X82955214Y-38127862D01*
X82824362Y-38148587D01*
X82635370Y-38209993D01*
X82635367Y-38209994D01*
X82458305Y-38300213D01*
X82297533Y-38417021D01*
X82157021Y-38557533D01*
X82040213Y-38718305D01*
X81949994Y-38895367D01*
X81949993Y-38895370D01*
X81888587Y-39084362D01*
X81857500Y-39280639D01*
X69142500Y-39280639D01*
X69111413Y-39084364D01*
X69050005Y-38895368D01*
X69050005Y-38895367D01*
X68959786Y-38718305D01*
X68842981Y-38557536D01*
X68702464Y-38417019D01*
X68541694Y-38300213D01*
X68364632Y-38209994D01*
X68364629Y-38209993D01*
X68175637Y-38148587D01*
X68077498Y-38133043D01*
X67979361Y-38117500D01*
X67780639Y-38117500D01*
X67715214Y-38127862D01*
X67584362Y-38148587D01*
X67395370Y-38209993D01*
X67395367Y-38209994D01*
X67218305Y-38300213D01*
X67057533Y-38417021D01*
X66917021Y-38557533D01*
X66800213Y-38718305D01*
X66709994Y-38895367D01*
X66709993Y-38895370D01*
X66648587Y-39084362D01*
X66617500Y-39280639D01*
X66617500Y-39479360D01*
X66648587Y-39675637D01*
X66709993Y-39864629D01*
X66709994Y-39864632D01*
X66800213Y-40041694D01*
X66917019Y-40202464D01*
X67057536Y-40342981D01*
X67218306Y-40459787D01*
X67336832Y-40520179D01*
X67374780Y-40539515D01*
X67425576Y-40587490D01*
X67442371Y-40655311D01*
X67419833Y-40721446D01*
X67374780Y-40760485D01*
X67218305Y-40840213D01*
X67057533Y-40957021D01*
X66917021Y-41097533D01*
X66800210Y-41258309D01*
X66799000Y-41260285D01*
X66798343Y-41260878D01*
X66797349Y-41262248D01*
X66797061Y-41262039D01*
X66747190Y-41307163D01*
X66693270Y-41319500D01*
X64159057Y-41319500D01*
X64000943Y-41319500D01*
X63848215Y-41360423D01*
X63848214Y-41360423D01*
X63848212Y-41360424D01*
X63848209Y-41360425D01*
X63798096Y-41389359D01*
X63798095Y-41389360D01*
X63754689Y-41414420D01*
X63711285Y-41439479D01*
X63711282Y-41439481D01*
X63519481Y-41631282D01*
X63519479Y-41631285D01*
X63486612Y-41688214D01*
X63486611Y-41688216D01*
X63440423Y-41768214D01*
X63440423Y-41768215D01*
X63399499Y-41920943D01*
X63399499Y-41920945D01*
X63399499Y-42089046D01*
X63399500Y-42089059D01*
X63399500Y-52275500D01*
X63379815Y-52342539D01*
X63327011Y-52388294D01*
X63275500Y-52399500D01*
X58920943Y-52399500D01*
X58768216Y-52440423D01*
X58768209Y-52440426D01*
X58631290Y-52519475D01*
X58631282Y-52519481D01*
X58519481Y-52631282D01*
X58519475Y-52631290D01*
X58440426Y-52768209D01*
X58440423Y-52768216D01*
X58399500Y-52920943D01*
X58399500Y-63775500D01*
X58379815Y-63842539D01*
X58327011Y-63888294D01*
X58275500Y-63899500D01*
X56579057Y-63899500D01*
X56420942Y-63899500D01*
X56268215Y-63940423D01*
X56268214Y-63940423D01*
X56268212Y-63940424D01*
X56268209Y-63940425D01*
X56218096Y-63969359D01*
X56218095Y-63969360D01*
X56174689Y-63994420D01*
X56131285Y-64019479D01*
X56131282Y-64019481D01*
X50619481Y-69531282D01*
X50619479Y-69531285D01*
X50569361Y-69618094D01*
X50569359Y-69618096D01*
X50540425Y-69668209D01*
X50540424Y-69668210D01*
X50540423Y-69668215D01*
X50499499Y-69820943D01*
X50499499Y-69820945D01*
X50499499Y-69989046D01*
X50499500Y-69989059D01*
X50499500Y-81420234D01*
X50479815Y-81487273D01*
X50478602Y-81489125D01*
X50390609Y-81620814D01*
X50390602Y-81620827D01*
X50330264Y-81766498D01*
X50330261Y-81766510D01*
X50299500Y-81921153D01*
X50299500Y-82078846D01*
X50330261Y-82233489D01*
X50330264Y-82233501D01*
X50390602Y-82379172D01*
X50390609Y-82379185D01*
X50478210Y-82510288D01*
X50478213Y-82510292D01*
X50589707Y-82621786D01*
X50589711Y-82621789D01*
X50720814Y-82709390D01*
X50720827Y-82709397D01*
X50866498Y-82769735D01*
X50866503Y-82769737D01*
X51021153Y-82800499D01*
X51021156Y-82800500D01*
X51021158Y-82800500D01*
X51178844Y-82800500D01*
X51178845Y-82800499D01*
X51333497Y-82769737D01*
X51479179Y-82709394D01*
X51610289Y-82621789D01*
X51721789Y-82510289D01*
X51809394Y-82379179D01*
X51869737Y-82233497D01*
X51900500Y-82078842D01*
X51900500Y-81921158D01*
X51900500Y-81921155D01*
X51900499Y-81921153D01*
X51883241Y-81834394D01*
X51869737Y-81766503D01*
X51833907Y-81680000D01*
X51809397Y-81620827D01*
X51809390Y-81620814D01*
X51721398Y-81489125D01*
X51700520Y-81422447D01*
X51700500Y-81420234D01*
X51700500Y-70200097D01*
X51720185Y-70133058D01*
X51736819Y-70112416D01*
X56712416Y-65136819D01*
X56773739Y-65103334D01*
X56800097Y-65100500D01*
X57250902Y-65100500D01*
X57317941Y-65120185D01*
X57363696Y-65172989D01*
X57373640Y-65242147D01*
X57344615Y-65305703D01*
X57338583Y-65312181D01*
X53019481Y-69631282D01*
X53019479Y-69631285D01*
X52969361Y-69718094D01*
X52969359Y-69718096D01*
X52940425Y-69768209D01*
X52940424Y-69768210D01*
X52940423Y-69768215D01*
X52899499Y-69920943D01*
X52899499Y-69920945D01*
X52899499Y-70089046D01*
X52899500Y-70089059D01*
X52899500Y-74413330D01*
X52899499Y-74413348D01*
X52899499Y-74579054D01*
X52899498Y-74579054D01*
X52935018Y-74711616D01*
X52940423Y-74731785D01*
X52959331Y-74764534D01*
X53014448Y-74860000D01*
X53019479Y-74868714D01*
X53019481Y-74868717D01*
X53131284Y-74980520D01*
X53218095Y-75030639D01*
X53218097Y-75030641D01*
X53256151Y-75052611D01*
X53268215Y-75059577D01*
X53420943Y-75100501D01*
X53420946Y-75100501D01*
X53579055Y-75100501D01*
X53579057Y-75100501D01*
X53712572Y-75064724D01*
X53744666Y-75060500D01*
X55750398Y-75060500D01*
X55817437Y-75080185D01*
X55860883Y-75128205D01*
X55867715Y-75141614D01*
X55988028Y-75307213D01*
X56132786Y-75451971D01*
X56287749Y-75564556D01*
X56298390Y-75572287D01*
X56389840Y-75618883D01*
X56391080Y-75619515D01*
X56441876Y-75667490D01*
X56458671Y-75735311D01*
X56436134Y-75801446D01*
X56391080Y-75840485D01*
X56298386Y-75887715D01*
X56132786Y-76008028D01*
X55988028Y-76152786D01*
X55867715Y-76318385D01*
X55860883Y-76331795D01*
X55812909Y-76382591D01*
X55750398Y-76399500D01*
X53920943Y-76399500D01*
X53768216Y-76440423D01*
X53768209Y-76440426D01*
X53631290Y-76519475D01*
X53631282Y-76519481D01*
X53519481Y-76631282D01*
X53519475Y-76631290D01*
X53440426Y-76768209D01*
X53440423Y-76768216D01*
X53399500Y-76920943D01*
X53399500Y-87913330D01*
X53399499Y-87913348D01*
X53399499Y-88079054D01*
X53399498Y-88079054D01*
X53440423Y-88231785D01*
X53460468Y-88266503D01*
X53482243Y-88304219D01*
X53519479Y-88368715D01*
X53631284Y-88480520D01*
X53665425Y-88514660D01*
X53698911Y-88575983D01*
X53699362Y-88578151D01*
X53730261Y-88733491D01*
X53730264Y-88733501D01*
X53790602Y-88879172D01*
X53790609Y-88879185D01*
X53878210Y-89010288D01*
X53878213Y-89010292D01*
X53989707Y-89121786D01*
X53989711Y-89121789D01*
X54065452Y-89172398D01*
X54110257Y-89226010D01*
X54118964Y-89295335D01*
X54088810Y-89358363D01*
X54029366Y-89395082D01*
X53996561Y-89399500D01*
X41420943Y-89399500D01*
X41268216Y-89440423D01*
X41268209Y-89440426D01*
X41131290Y-89519475D01*
X41131282Y-89519481D01*
X41019481Y-89631282D01*
X41019475Y-89631290D01*
X40940426Y-89768209D01*
X40940423Y-89768216D01*
X40899500Y-89920943D01*
X38000000Y-89920943D01*
X38000000Y-60913389D01*
X49899500Y-60913389D01*
X49899500Y-61086611D01*
X49926598Y-61257701D01*
X49980127Y-61422445D01*
X50058768Y-61576788D01*
X50160586Y-61716928D01*
X50283072Y-61839414D01*
X50423212Y-61941232D01*
X50577555Y-62019873D01*
X50742299Y-62073402D01*
X50913389Y-62100500D01*
X50913390Y-62100500D01*
X51086610Y-62100500D01*
X51086611Y-62100500D01*
X51257701Y-62073402D01*
X51422445Y-62019873D01*
X51576788Y-61941232D01*
X51716928Y-61839414D01*
X51839414Y-61716928D01*
X51941232Y-61576788D01*
X52019873Y-61422445D01*
X52073402Y-61257701D01*
X52100500Y-61086611D01*
X52100500Y-60913389D01*
X52073402Y-60742299D01*
X52019873Y-60577555D01*
X51941232Y-60423212D01*
X51941231Y-60423210D01*
X51935916Y-60415895D01*
X51876150Y-60333635D01*
X54801000Y-60333635D01*
X54801000Y-61826370D01*
X54801001Y-61826376D01*
X54807408Y-61885983D01*
X54857702Y-62020828D01*
X54857706Y-62020835D01*
X54943952Y-62136044D01*
X54943955Y-62136047D01*
X55059164Y-62222293D01*
X55059171Y-62222297D01*
X55194017Y-62272591D01*
X55194016Y-62272591D01*
X55200944Y-62273335D01*
X55253627Y-62279000D01*
X56746372Y-62278999D01*
X56805983Y-62272591D01*
X56940831Y-62222296D01*
X57056046Y-62136046D01*
X57142296Y-62020831D01*
X57192591Y-61885983D01*
X57199000Y-61826373D01*
X57198999Y-60333628D01*
X57192591Y-60274017D01*
X57189938Y-60266905D01*
X57142297Y-60139171D01*
X57142293Y-60139164D01*
X57056047Y-60023955D01*
X57056044Y-60023952D01*
X56940835Y-59937706D01*
X56940828Y-59937702D01*
X56805982Y-59887408D01*
X56805983Y-59887408D01*
X56746383Y-59881001D01*
X56746381Y-59881000D01*
X56746373Y-59881000D01*
X56746364Y-59881000D01*
X55253629Y-59881000D01*
X55253623Y-59881001D01*
X55194016Y-59887408D01*
X55059171Y-59937702D01*
X55059164Y-59937706D01*
X54943955Y-60023952D01*
X54943952Y-60023955D01*
X54857706Y-60139164D01*
X54857702Y-60139171D01*
X54807408Y-60274017D01*
X54806435Y-60283072D01*
X54801001Y-60333623D01*
X54801000Y-60333635D01*
X51876150Y-60333635D01*
X51839414Y-60283072D01*
X51830455Y-60274113D01*
X51825082Y-60266905D01*
X51815938Y-60242237D01*
X51803334Y-60219154D01*
X51801679Y-60203770D01*
X51800798Y-60201391D01*
X51801218Y-60199477D01*
X51800500Y-60192796D01*
X51800500Y-55905631D01*
X54801000Y-55905631D01*
X54801000Y-56094368D01*
X54830522Y-56280763D01*
X54830523Y-56280767D01*
X54888843Y-56460256D01*
X54974523Y-56628413D01*
X55085454Y-56781096D01*
X55218904Y-56914546D01*
X55371587Y-57025477D01*
X55539744Y-57111157D01*
X55719233Y-57169477D01*
X55789134Y-57180548D01*
X55905632Y-57199000D01*
X55905637Y-57199000D01*
X56094368Y-57199000D01*
X56197920Y-57182598D01*
X56280767Y-57169477D01*
X56460256Y-57111157D01*
X56628413Y-57025477D01*
X56781096Y-56914546D01*
X56914546Y-56781096D01*
X57025477Y-56628413D01*
X57111157Y-56460256D01*
X57169477Y-56280767D01*
X57184898Y-56183403D01*
X57199000Y-56094368D01*
X57199000Y-55905631D01*
X57179318Y-55781367D01*
X57169477Y-55719233D01*
X57111157Y-55539744D01*
X57025477Y-55371587D01*
X56914546Y-55218904D01*
X56781096Y-55085454D01*
X56628413Y-54974523D01*
X56460256Y-54888843D01*
X56280767Y-54830523D01*
X56280765Y-54830522D01*
X56280763Y-54830522D01*
X56094368Y-54801000D01*
X56094363Y-54801000D01*
X55905637Y-54801000D01*
X55905632Y-54801000D01*
X55719236Y-54830522D01*
X55539741Y-54888844D01*
X55371586Y-54974523D01*
X55309712Y-55019478D01*
X55218904Y-55085454D01*
X55218902Y-55085456D01*
X55218901Y-55085456D01*
X55085456Y-55218901D01*
X55085456Y-55218902D01*
X55085454Y-55218904D01*
X55051713Y-55265345D01*
X54974523Y-55371586D01*
X54888844Y-55539741D01*
X54830522Y-55719236D01*
X54801000Y-55905631D01*
X51800500Y-55905631D01*
X51800500Y-44924500D01*
X51820185Y-44857461D01*
X51872989Y-44811706D01*
X51924500Y-44800500D01*
X52887837Y-44800500D01*
X52954876Y-44820185D01*
X53000631Y-44872989D01*
X53009089Y-44898541D01*
X53009999Y-44902792D01*
X53065185Y-45069331D01*
X53065187Y-45069336D01*
X53094871Y-45117461D01*
X53157288Y-45218656D01*
X53281344Y-45342712D01*
X53430666Y-45434814D01*
X53597203Y-45489999D01*
X53699991Y-45500500D01*
X55300008Y-45500499D01*
X55402797Y-45489999D01*
X55569334Y-45434814D01*
X55718656Y-45342712D01*
X55842712Y-45218656D01*
X55934814Y-45069334D01*
X55989999Y-44902797D01*
X56000500Y-44800009D01*
X56000499Y-43881947D01*
X58000000Y-43881947D01*
X58000000Y-44118052D01*
X58036934Y-44351247D01*
X58109897Y-44575802D01*
X58217087Y-44786174D01*
X58307095Y-44910060D01*
X58307096Y-44910061D01*
X59031980Y-44185177D01*
X59034075Y-44192993D01*
X59099901Y-44307007D01*
X59192993Y-44400099D01*
X59307007Y-44465925D01*
X59314822Y-44468019D01*
X58589937Y-45192902D01*
X58589938Y-45192904D01*
X58713825Y-45282912D01*
X58924197Y-45390102D01*
X59148752Y-45463065D01*
X59148751Y-45463065D01*
X59381948Y-45500000D01*
X59618052Y-45500000D01*
X59851247Y-45463065D01*
X60075802Y-45390102D01*
X60286171Y-45282914D01*
X60410060Y-45192902D01*
X60410061Y-45192902D01*
X59685177Y-44468019D01*
X59692993Y-44465925D01*
X59807007Y-44400099D01*
X59900099Y-44307007D01*
X59965925Y-44192993D01*
X59968019Y-44185177D01*
X60692902Y-44910061D01*
X60692902Y-44910060D01*
X60782914Y-44786171D01*
X60890102Y-44575802D01*
X60963065Y-44351247D01*
X61000000Y-44118052D01*
X61000000Y-43881947D01*
X60963065Y-43648752D01*
X60890102Y-43424197D01*
X60782912Y-43213825D01*
X60692904Y-43089938D01*
X60692902Y-43089937D01*
X59968018Y-43814821D01*
X59965925Y-43807007D01*
X59900099Y-43692993D01*
X59807007Y-43599901D01*
X59692993Y-43534075D01*
X59685177Y-43531980D01*
X60410061Y-42807096D01*
X60410060Y-42807095D01*
X60286174Y-42717087D01*
X60075802Y-42609897D01*
X59851247Y-42536934D01*
X59851248Y-42536934D01*
X59618052Y-42500000D01*
X59381948Y-42500000D01*
X59148752Y-42536934D01*
X58924197Y-42609897D01*
X58713832Y-42717083D01*
X58589938Y-42807096D01*
X59314822Y-43531980D01*
X59307007Y-43534075D01*
X59192993Y-43599901D01*
X59099901Y-43692993D01*
X59034075Y-43807007D01*
X59031980Y-43814822D01*
X58307096Y-43089938D01*
X58217083Y-43213832D01*
X58109897Y-43424197D01*
X58036934Y-43648752D01*
X58000000Y-43881947D01*
X56000499Y-43881947D01*
X56000499Y-43199992D01*
X56000244Y-43197500D01*
X55989999Y-43097203D01*
X55989998Y-43097200D01*
X55957718Y-42999786D01*
X55934814Y-42930666D01*
X55842712Y-42781344D01*
X55718656Y-42657288D01*
X55596098Y-42581694D01*
X55569336Y-42565187D01*
X55569331Y-42565185D01*
X55567862Y-42564698D01*
X55402797Y-42510001D01*
X55402795Y-42510000D01*
X55300010Y-42499500D01*
X53699998Y-42499500D01*
X53699981Y-42499501D01*
X53597203Y-42510000D01*
X53597200Y-42510001D01*
X53430668Y-42565185D01*
X53430663Y-42565187D01*
X53281342Y-42657289D01*
X53157289Y-42781342D01*
X53065187Y-42930663D01*
X53065185Y-42930668D01*
X53010000Y-43097204D01*
X53009088Y-43101467D01*
X52975801Y-43162898D01*
X52914586Y-43196581D01*
X52887837Y-43199500D01*
X50921155Y-43199500D01*
X50766510Y-43230261D01*
X50766498Y-43230264D01*
X50620827Y-43290602D01*
X50620814Y-43290609D01*
X50489711Y-43378210D01*
X50489707Y-43378213D01*
X50378213Y-43489707D01*
X50378210Y-43489711D01*
X50290609Y-43620814D01*
X50290602Y-43620827D01*
X50230264Y-43766498D01*
X50230261Y-43766510D01*
X50199500Y-43921153D01*
X50199500Y-60192796D01*
X50179815Y-60259835D01*
X50163181Y-60280477D01*
X50160588Y-60283069D01*
X50160588Y-60283070D01*
X50160586Y-60283072D01*
X50123856Y-60333627D01*
X50058768Y-60423211D01*
X49980128Y-60577552D01*
X49926597Y-60742302D01*
X49899500Y-60913389D01*
X38000000Y-60913389D01*
X38000000Y-57071863D01*
X41799500Y-57071863D01*
X41799500Y-59551136D01*
X41814121Y-59699595D01*
X41871903Y-59890074D01*
X41965731Y-60065614D01*
X41965735Y-60065621D01*
X42092011Y-60219488D01*
X42245878Y-60345764D01*
X42245885Y-60345768D01*
X42390769Y-60423210D01*
X42421427Y-60439597D01*
X42611907Y-60497379D01*
X42760360Y-60512000D01*
X42760363Y-60512000D01*
X45239637Y-60512000D01*
X45239640Y-60512000D01*
X45388093Y-60497379D01*
X45578573Y-60439597D01*
X45754120Y-60345765D01*
X45907988Y-60219488D01*
X46034265Y-60065620D01*
X46128097Y-59890073D01*
X46185879Y-59699593D01*
X46200500Y-59551140D01*
X46200500Y-57071860D01*
X46185879Y-56923407D01*
X46128097Y-56732927D01*
X46034265Y-56557380D01*
X46034264Y-56557378D01*
X45907988Y-56403511D01*
X45754121Y-56277235D01*
X45754114Y-56277231D01*
X45578574Y-56183403D01*
X45388095Y-56125621D01*
X45328711Y-56119772D01*
X45239640Y-56111000D01*
X42760360Y-56111000D01*
X42686133Y-56118310D01*
X42611904Y-56125621D01*
X42421425Y-56183403D01*
X42245885Y-56277231D01*
X42245878Y-56277235D01*
X42092011Y-56403511D01*
X41965735Y-56557378D01*
X41965731Y-56557385D01*
X41871903Y-56732925D01*
X41814121Y-56923404D01*
X41799500Y-57071863D01*
X38000000Y-57071863D01*
X38000000Y-51991885D01*
X41800000Y-51991885D01*
X41800000Y-53031500D01*
X42816719Y-53031500D01*
X42800000Y-53137058D01*
X42800000Y-53325942D01*
X42816719Y-53431500D01*
X41800000Y-53431500D01*
X41800000Y-54471114D01*
X41814613Y-54619491D01*
X41872367Y-54809879D01*
X41966154Y-54985344D01*
X42092366Y-55139133D01*
X42246155Y-55265345D01*
X42421620Y-55359132D01*
X42612008Y-55416886D01*
X42760385Y-55431500D01*
X43800000Y-55431500D01*
X43800000Y-54414781D01*
X43905558Y-54431500D01*
X44094442Y-54431500D01*
X44200000Y-54414781D01*
X44200000Y-55431500D01*
X45239615Y-55431500D01*
X45387991Y-55416886D01*
X45578379Y-55359132D01*
X45753844Y-55265345D01*
X45907633Y-55139133D01*
X46033845Y-54985344D01*
X46127632Y-54809879D01*
X46185386Y-54619491D01*
X46200000Y-54471114D01*
X46200000Y-53431500D01*
X45183281Y-53431500D01*
X45200000Y-53325942D01*
X45200000Y-53137058D01*
X45183281Y-53031500D01*
X46200000Y-53031500D01*
X46200000Y-51991885D01*
X46185386Y-51843508D01*
X46127632Y-51653120D01*
X46033845Y-51477655D01*
X45907633Y-51323866D01*
X45753844Y-51197654D01*
X45578379Y-51103867D01*
X45387991Y-51046113D01*
X45239615Y-51031500D01*
X44200000Y-51031500D01*
X44200000Y-52048218D01*
X44094442Y-52031500D01*
X43905558Y-52031500D01*
X43800000Y-52048218D01*
X43800000Y-51031500D01*
X42760385Y-51031500D01*
X42612008Y-51046113D01*
X42421620Y-51103867D01*
X42246155Y-51197654D01*
X42092366Y-51323866D01*
X41966154Y-51477655D01*
X41872367Y-51653120D01*
X41814613Y-51843508D01*
X41800000Y-51991885D01*
X38000000Y-51991885D01*
X38000000Y-46911885D01*
X41800000Y-46911885D01*
X41800000Y-47951500D01*
X42816719Y-47951500D01*
X42800000Y-48057058D01*
X42800000Y-48245942D01*
X42816719Y-48351500D01*
X41800000Y-48351500D01*
X41800000Y-49391114D01*
X41814613Y-49539491D01*
X41872367Y-49729879D01*
X41966154Y-49905344D01*
X42092366Y-50059133D01*
X42246155Y-50185345D01*
X42421620Y-50279132D01*
X42612008Y-50336886D01*
X42760385Y-50351500D01*
X43800000Y-50351500D01*
X43800000Y-49334781D01*
X43905558Y-49351500D01*
X44094442Y-49351500D01*
X44200000Y-49334781D01*
X44200000Y-50351500D01*
X45239615Y-50351500D01*
X45387991Y-50336886D01*
X45578379Y-50279132D01*
X45753844Y-50185345D01*
X45907633Y-50059133D01*
X46033845Y-49905344D01*
X46127632Y-49729879D01*
X46185386Y-49539491D01*
X46200000Y-49391114D01*
X46200000Y-48351500D01*
X45183281Y-48351500D01*
X45200000Y-48245942D01*
X45200000Y-48057058D01*
X45183281Y-47951500D01*
X46200000Y-47951500D01*
X46200000Y-46911885D01*
X46185386Y-46763508D01*
X46127632Y-46573120D01*
X46033845Y-46397655D01*
X45907633Y-46243866D01*
X45753844Y-46117654D01*
X45578379Y-46023867D01*
X45387991Y-45966113D01*
X45239615Y-45951500D01*
X44200000Y-45951500D01*
X44200000Y-46968218D01*
X44094442Y-46951500D01*
X43905558Y-46951500D01*
X43800000Y-46968218D01*
X43800000Y-45951500D01*
X42760385Y-45951500D01*
X42612008Y-45966113D01*
X42421620Y-46023867D01*
X42246155Y-46117654D01*
X42092366Y-46243866D01*
X41966154Y-46397655D01*
X41872367Y-46573120D01*
X41814613Y-46763508D01*
X41800000Y-46911885D01*
X38000000Y-46911885D01*
X38000000Y-41831860D01*
X41799500Y-41831860D01*
X41799500Y-44311140D01*
X41809247Y-44410108D01*
X41814121Y-44459595D01*
X41871903Y-44650074D01*
X41965731Y-44825614D01*
X41965735Y-44825621D01*
X42092011Y-44979488D01*
X42245878Y-45105764D01*
X42245885Y-45105768D01*
X42408905Y-45192904D01*
X42421427Y-45199597D01*
X42611907Y-45257379D01*
X42760360Y-45272000D01*
X42760363Y-45272000D01*
X45239637Y-45272000D01*
X45239640Y-45272000D01*
X45388093Y-45257379D01*
X45578573Y-45199597D01*
X45754120Y-45105765D01*
X45907988Y-44979488D01*
X46034265Y-44825620D01*
X46128097Y-44650073D01*
X46185879Y-44459593D01*
X46200500Y-44311140D01*
X46200500Y-41831860D01*
X46185879Y-41683407D01*
X46128097Y-41492927D01*
X46118782Y-41475500D01*
X46034268Y-41317385D01*
X46034264Y-41317378D01*
X45907988Y-41163511D01*
X45754121Y-41037235D01*
X45754114Y-41037231D01*
X45578574Y-40943403D01*
X45388095Y-40885621D01*
X45328711Y-40879772D01*
X45239640Y-40871000D01*
X42760360Y-40871000D01*
X42686133Y-40878310D01*
X42611904Y-40885621D01*
X42421425Y-40943403D01*
X42245885Y-41037231D01*
X42245878Y-41037235D01*
X42092011Y-41163511D01*
X41965735Y-41317378D01*
X41965731Y-41317385D01*
X41871903Y-41492925D01*
X41814121Y-41683404D01*
X41813647Y-41688216D01*
X41799500Y-41831860D01*
X38000000Y-41831860D01*
X38000000Y-22624000D01*
X38019685Y-22556961D01*
X38072489Y-22511206D01*
X38124000Y-22500000D01*
X87376000Y-22500000D01*
X87443039Y-22519685D01*
G37*
%TD.AperFunction*%
%TD*%
M02*
