ISO-10303-21;
HEADER;
/* Generated by software containing ST-Developer
 * from STEP Tools, Inc. (www.steptools.com) 
 */

FILE_DESCRIPTION(
/* description */ (''),
/* implementation_level */ '2;1');

FILE_NAME(
/* name */ 'e0b92e6d-dccc-4f41-8326-1e8307a7f9d2.stp',
/* time_stamp */ '2026-09-05T05:55:06Z',
/* author */ (''),
/* organization */ (''),
/* preprocessor_version */ 'ST-DEVELOPER v20.2',
/* originating_system */ 'Autodesk Translation Framework v15.15.0.0',
/* authorisation */ '');

FILE_SCHEMA (('AUTOMOTIVE_DESIGN { 1 0 10303 214 3 1 1 }'));
ENDSEC;

DATA;
#10=MECHANICAL_DESIGN_GEOMETRIC_PRESENTATION_REPRESENTATION('',(#13),#643);
#11=SHAPE_REPRESENTATION_RELATIONSHIP('SRR','None',#650,#12);
#12=ADVANCED_BREP_SHAPE_REPRESENTATION('',(#14),#642);
#13=STYLED_ITEM('',(#659),#14);
#14=MANIFOLD_SOLID_BREP('Body1',#363);
#15=FACE_BOUND('',#63,.T.);
#16=FACE_BOUND('',#64,.T.);
#17=FACE_BOUND('',#65,.T.);
#18=FACE_BOUND('',#66,.T.);
#19=FACE_BOUND('',#81,.T.);
#20=FACE_BOUND('',#82,.T.);
#21=FACE_BOUND('',#83,.T.);
#22=FACE_BOUND('',#84,.T.);
#23=PLANE('',#390);
#24=PLANE('',#393);
#25=PLANE('',#400);
#26=PLANE('',#406);
#27=PLANE('',#409);
#28=PLANE('',#422);
#29=SPHERICAL_SURFACE('',#383,0.5);
#30=SPHERICAL_SURFACE('',#388,0.5);
#31=SPHERICAL_SURFACE('',#404,0.5);
#32=SPHERICAL_SURFACE('',#413,0.5);
#33=FACE_OUTER_BOUND('',#55,.T.);
#34=FACE_OUTER_BOUND('',#56,.T.);
#35=FACE_OUTER_BOUND('',#57,.T.);
#36=FACE_OUTER_BOUND('',#58,.T.);
#37=FACE_OUTER_BOUND('',#59,.T.);
#38=FACE_OUTER_BOUND('',#60,.T.);
#39=FACE_OUTER_BOUND('',#61,.T.);
#40=FACE_OUTER_BOUND('',#62,.T.);
#41=FACE_OUTER_BOUND('',#67,.T.);
#42=FACE_OUTER_BOUND('',#68,.T.);
#43=FACE_OUTER_BOUND('',#69,.T.);
#44=FACE_OUTER_BOUND('',#70,.T.);
#45=FACE_OUTER_BOUND('',#71,.T.);
#46=FACE_OUTER_BOUND('',#72,.T.);
#47=FACE_OUTER_BOUND('',#73,.T.);
#48=FACE_OUTER_BOUND('',#74,.T.);
#49=FACE_OUTER_BOUND('',#75,.T.);
#50=FACE_OUTER_BOUND('',#76,.T.);
#51=FACE_OUTER_BOUND('',#77,.T.);
#52=FACE_OUTER_BOUND('',#78,.T.);
#53=FACE_OUTER_BOUND('',#79,.T.);
#54=FACE_OUTER_BOUND('',#80,.T.);
#55=EDGE_LOOP('',(#233,#234,#235,#236));
#56=EDGE_LOOP('',(#237,#238,#239,#240));
#57=EDGE_LOOP('',(#241,#242,#243));
#58=EDGE_LOOP('',(#244,#245,#246,#247));
#59=EDGE_LOOP('',(#248,#249,#250));
#60=EDGE_LOOP('',(#251,#252,#253,#254));
#61=EDGE_LOOP('',(#255,#256,#257,#258));
#62=EDGE_LOOP('',(#259,#260,#261,#262));
#63=EDGE_LOOP('',(#263));
#64=EDGE_LOOP('',(#264));
#65=EDGE_LOOP('',(#265));
#66=EDGE_LOOP('',(#266));
#67=EDGE_LOOP('',(#267,#268,#269,#270));
#68=EDGE_LOOP('',(#271,#272,#273,#274));
#69=EDGE_LOOP('',(#275,#276,#277,#278));
#70=EDGE_LOOP('',(#279,#280,#281));
#71=EDGE_LOOP('',(#282,#283,#284,#285));
#72=EDGE_LOOP('',(#286,#287,#288,#289));
#73=EDGE_LOOP('',(#290,#291,#292,#293));
#74=EDGE_LOOP('',(#294,#295,#296,#297));
#75=EDGE_LOOP('',(#298,#299,#300));
#76=EDGE_LOOP('',(#301,#302,#303,#304));
#77=EDGE_LOOP('',(#305,#306,#307,#308));
#78=EDGE_LOOP('',(#309,#310,#311,#312));
#79=EDGE_LOOP('',(#313,#314,#315,#316));
#80=EDGE_LOOP('',(#317,#318,#319,#320,#321,#322,#323,#324));
#81=EDGE_LOOP('',(#325));
#82=EDGE_LOOP('',(#326));
#83=EDGE_LOOP('',(#327));
#84=EDGE_LOOP('',(#328));
#85=LINE('',#547,#109);
#86=LINE('',#550,#110);
#87=LINE('',#555,#111);
#88=LINE('',#558,#112);
#89=LINE('',#566,#113);
#90=LINE('',#568,#114);
#91=LINE('',#573,#115);
#92=LINE('',#575,#116);
#93=LINE('',#576,#117);
#94=LINE('',#579,#118);
#95=LINE('',#583,#119);
#96=LINE('',#584,#120);
#97=LINE('',#595,#121);
#98=LINE('',#599,#122);
#99=LINE('',#600,#123);
#100=LINE('',#605,#124);
#101=LINE('',#610,#125);
#102=LINE('',#613,#126);
#103=LINE('',#617,#127);
#104=LINE('',#618,#128);
#105=LINE('',#625,#129);
#106=LINE('',#629,#130);
#107=LINE('',#633,#131);
#108=LINE('',#637,#132);
#109=VECTOR('',#429,10.);
#110=VECTOR('',#432,10.);
#111=VECTOR('',#437,10.);
#112=VECTOR('',#440,10.);
#113=VECTOR('',#449,10.);
#114=VECTOR('',#452,10.);
#115=VECTOR('',#459,10.);
#116=VECTOR('',#460,10.);
#117=VECTOR('',#461,10.);
#118=VECTOR('',#464,10.);
#119=VECTOR('',#469,10.);
#120=VECTOR('',#470,10.);
#121=VECTOR('',#481,10.);
#122=VECTOR('',#486,10.);
#123=VECTOR('',#487,10.);
#124=VECTOR('',#492,10.);
#125=VECTOR('',#501,10.);
#126=VECTOR('',#504,10.);
#127=VECTOR('',#509,10.);
#128=VECTOR('',#510,10.);
#129=VECTOR('',#521,1.);
#130=VECTOR('',#526,1.);
#131=VECTOR('',#531,0.999999999999996);
#132=VECTOR('',#536,0.999999999999996);
#133=CIRCLE('',#378,0.5);
#134=CIRCLE('',#379,0.500000000000007);
#135=CIRCLE('',#381,0.5);
#136=CIRCLE('',#382,0.500000000000007);
#137=CIRCLE('',#384,0.5);
#138=CIRCLE('',#386,0.5);
#139=CIRCLE('',#387,0.499999999999989);
#140=CIRCLE('',#389,0.500000000000002);
#141=CIRCLE('',#392,0.5);
#142=CIRCLE('',#394,1.);
#143=CIRCLE('',#395,1.);
#144=CIRCLE('',#396,0.999999999999996);
#145=CIRCLE('',#397,0.999999999999996);
#146=CIRCLE('',#399,0.499999999999998);
#147=CIRCLE('',#402,0.5);
#148=CIRCLE('',#403,0.499999999999998);
#149=CIRCLE('',#405,0.5);
#150=CIRCLE('',#408,0.499999999999998);
#151=CIRCLE('',#411,0.5);
#152=CIRCLE('',#412,0.499999999999994);
#153=CIRCLE('',#415,1.);
#154=CIRCLE('',#417,1.);
#155=CIRCLE('',#419,0.999999999999996);
#156=CIRCLE('',#421,0.999999999999996);
#157=VERTEX_POINT('',#543);
#158=VERTEX_POINT('',#544);
#159=VERTEX_POINT('',#546);
#160=VERTEX_POINT('',#548);
#161=VERTEX_POINT('',#552);
#162=VERTEX_POINT('',#554);
#163=VERTEX_POINT('',#556);
#164=VERTEX_POINT('',#562);
#165=VERTEX_POINT('',#563);
#166=VERTEX_POINT('',#565);
#167=VERTEX_POINT('',#572);
#168=VERTEX_POINT('',#574);
#169=VERTEX_POINT('',#578);
#170=VERTEX_POINT('',#582);
#171=VERTEX_POINT('',#585);
#172=VERTEX_POINT('',#587);
#173=VERTEX_POINT('',#589);
#174=VERTEX_POINT('',#591);
#175=VERTEX_POINT('',#594);
#176=VERTEX_POINT('',#598);
#177=VERTEX_POINT('',#602);
#178=VERTEX_POINT('',#604);
#179=VERTEX_POINT('',#612);
#180=VERTEX_POINT('',#616);
#181=VERTEX_POINT('',#624);
#182=VERTEX_POINT('',#628);
#183=VERTEX_POINT('',#632);
#184=VERTEX_POINT('',#636);
#185=EDGE_CURVE('',#157,#158,#133,.T.);
#186=EDGE_CURVE('',#158,#159,#85,.T.);
#187=EDGE_CURVE('',#159,#160,#134,.T.);
#188=EDGE_CURVE('',#160,#157,#86,.T.);
#189=EDGE_CURVE('',#161,#159,#135,.T.);
#190=EDGE_CURVE('',#159,#162,#87,.T.);
#191=EDGE_CURVE('',#162,#163,#136,.T.);
#192=EDGE_CURVE('',#163,#161,#88,.T.);
#193=EDGE_CURVE('',#161,#160,#137,.T.);
#194=EDGE_CURVE('',#164,#165,#138,.T.);
#195=EDGE_CURVE('',#165,#166,#89,.T.);
#196=EDGE_CURVE('',#166,#162,#139,.T.);
#197=EDGE_CURVE('',#162,#164,#90,.T.);
#198=EDGE_CURVE('',#166,#163,#140,.T.);
#199=EDGE_CURVE('',#167,#160,#91,.T.);
#200=EDGE_CURVE('',#168,#167,#92,.T.);
#201=EDGE_CURVE('',#157,#168,#93,.T.);
#202=EDGE_CURVE('',#161,#169,#94,.T.);
#203=EDGE_CURVE('',#167,#169,#141,.T.);
#204=EDGE_CURVE('',#170,#163,#95,.T.);
#205=EDGE_CURVE('',#169,#170,#96,.T.);
#206=EDGE_CURVE('',#171,#171,#142,.T.);
#207=EDGE_CURVE('',#172,#172,#143,.T.);
#208=EDGE_CURVE('',#173,#173,#144,.T.);
#209=EDGE_CURVE('',#174,#174,#145,.T.);
#210=EDGE_CURVE('',#166,#175,#97,.T.);
#211=EDGE_CURVE('',#175,#170,#146,.T.);
#212=EDGE_CURVE('',#176,#165,#98,.T.);
#213=EDGE_CURVE('',#175,#176,#99,.T.);
#214=EDGE_CURVE('',#176,#177,#147,.T.);
#215=EDGE_CURVE('',#177,#178,#100,.T.);
#216=EDGE_CURVE('',#178,#175,#148,.T.);
#217=EDGE_CURVE('',#178,#170,#149,.T.);
#218=EDGE_CURVE('',#164,#158,#101,.T.);
#219=EDGE_CURVE('',#178,#179,#102,.T.);
#220=EDGE_CURVE('',#179,#169,#150,.T.);
#221=EDGE_CURVE('',#180,#177,#103,.T.);
#222=EDGE_CURVE('',#179,#180,#104,.T.);
#223=EDGE_CURVE('',#180,#168,#151,.T.);
#224=EDGE_CURVE('',#167,#179,#152,.T.);
#225=EDGE_CURVE('',#171,#181,#105,.T.);
#226=EDGE_CURVE('',#181,#181,#153,.T.);
#227=EDGE_CURVE('',#172,#182,#106,.T.);
#228=EDGE_CURVE('',#182,#182,#154,.T.);
#229=EDGE_CURVE('',#173,#183,#107,.T.);
#230=EDGE_CURVE('',#183,#183,#155,.T.);
#231=EDGE_CURVE('',#174,#184,#108,.T.);
#232=EDGE_CURVE('',#184,#184,#156,.T.);
#233=ORIENTED_EDGE('',*,*,#185,.T.);
#234=ORIENTED_EDGE('',*,*,#186,.T.);
#235=ORIENTED_EDGE('',*,*,#187,.T.);
#236=ORIENTED_EDGE('',*,*,#188,.T.);
#237=ORIENTED_EDGE('',*,*,#189,.T.);
#238=ORIENTED_EDGE('',*,*,#190,.T.);
#239=ORIENTED_EDGE('',*,*,#191,.T.);
#240=ORIENTED_EDGE('',*,*,#192,.T.);
#241=ORIENTED_EDGE('',*,*,#189,.F.);
#242=ORIENTED_EDGE('',*,*,#193,.T.);
#243=ORIENTED_EDGE('',*,*,#187,.F.);
#244=ORIENTED_EDGE('',*,*,#194,.T.);
#245=ORIENTED_EDGE('',*,*,#195,.T.);
#246=ORIENTED_EDGE('',*,*,#196,.T.);
#247=ORIENTED_EDGE('',*,*,#197,.T.);
#248=ORIENTED_EDGE('',*,*,#196,.F.);
#249=ORIENTED_EDGE('',*,*,#198,.T.);
#250=ORIENTED_EDGE('',*,*,#191,.F.);
#251=ORIENTED_EDGE('',*,*,#188,.F.);
#252=ORIENTED_EDGE('',*,*,#199,.F.);
#253=ORIENTED_EDGE('',*,*,#200,.F.);
#254=ORIENTED_EDGE('',*,*,#201,.F.);
#255=ORIENTED_EDGE('',*,*,#193,.F.);
#256=ORIENTED_EDGE('',*,*,#202,.T.);
#257=ORIENTED_EDGE('',*,*,#203,.F.);
#258=ORIENTED_EDGE('',*,*,#199,.T.);
#259=ORIENTED_EDGE('',*,*,#192,.F.);
#260=ORIENTED_EDGE('',*,*,#204,.F.);
#261=ORIENTED_EDGE('',*,*,#205,.F.);
#262=ORIENTED_EDGE('',*,*,#202,.F.);
#263=ORIENTED_EDGE('',*,*,#206,.T.);
#264=ORIENTED_EDGE('',*,*,#207,.T.);
#265=ORIENTED_EDGE('',*,*,#208,.T.);
#266=ORIENTED_EDGE('',*,*,#209,.T.);
#267=ORIENTED_EDGE('',*,*,#198,.F.);
#268=ORIENTED_EDGE('',*,*,#210,.T.);
#269=ORIENTED_EDGE('',*,*,#211,.T.);
#270=ORIENTED_EDGE('',*,*,#204,.T.);
#271=ORIENTED_EDGE('',*,*,#195,.F.);
#272=ORIENTED_EDGE('',*,*,#212,.F.);
#273=ORIENTED_EDGE('',*,*,#213,.F.);
#274=ORIENTED_EDGE('',*,*,#210,.F.);
#275=ORIENTED_EDGE('',*,*,#214,.T.);
#276=ORIENTED_EDGE('',*,*,#215,.T.);
#277=ORIENTED_EDGE('',*,*,#216,.T.);
#278=ORIENTED_EDGE('',*,*,#213,.T.);
#279=ORIENTED_EDGE('',*,*,#216,.F.);
#280=ORIENTED_EDGE('',*,*,#217,.T.);
#281=ORIENTED_EDGE('',*,*,#211,.F.);
#282=ORIENTED_EDGE('',*,*,#186,.F.);
#283=ORIENTED_EDGE('',*,*,#218,.F.);
#284=ORIENTED_EDGE('',*,*,#197,.F.);
#285=ORIENTED_EDGE('',*,*,#190,.F.);
#286=ORIENTED_EDGE('',*,*,#217,.F.);
#287=ORIENTED_EDGE('',*,*,#219,.T.);
#288=ORIENTED_EDGE('',*,*,#220,.T.);
#289=ORIENTED_EDGE('',*,*,#205,.T.);
#290=ORIENTED_EDGE('',*,*,#215,.F.);
#291=ORIENTED_EDGE('',*,*,#221,.F.);
#292=ORIENTED_EDGE('',*,*,#222,.F.);
#293=ORIENTED_EDGE('',*,*,#219,.F.);
#294=ORIENTED_EDGE('',*,*,#223,.T.);
#295=ORIENTED_EDGE('',*,*,#200,.T.);
#296=ORIENTED_EDGE('',*,*,#224,.T.);
#297=ORIENTED_EDGE('',*,*,#222,.T.);
#298=ORIENTED_EDGE('',*,*,#224,.F.);
#299=ORIENTED_EDGE('',*,*,#203,.T.);
#300=ORIENTED_EDGE('',*,*,#220,.F.);
#301=ORIENTED_EDGE('',*,*,#206,.F.);
#302=ORIENTED_EDGE('',*,*,#225,.T.);
#303=ORIENTED_EDGE('',*,*,#226,.T.);
#304=ORIENTED_EDGE('',*,*,#225,.F.);
#305=ORIENTED_EDGE('',*,*,#207,.F.);
#306=ORIENTED_EDGE('',*,*,#227,.T.);
#307=ORIENTED_EDGE('',*,*,#228,.T.);
#308=ORIENTED_EDGE('',*,*,#227,.F.);
#309=ORIENTED_EDGE('',*,*,#208,.F.);
#310=ORIENTED_EDGE('',*,*,#229,.T.);
#311=ORIENTED_EDGE('',*,*,#230,.T.);
#312=ORIENTED_EDGE('',*,*,#229,.F.);
#313=ORIENTED_EDGE('',*,*,#209,.F.);
#314=ORIENTED_EDGE('',*,*,#231,.T.);
#315=ORIENTED_EDGE('',*,*,#232,.T.);
#316=ORIENTED_EDGE('',*,*,#231,.F.);
#317=ORIENTED_EDGE('',*,*,#185,.F.);
#318=ORIENTED_EDGE('',*,*,#201,.T.);
#319=ORIENTED_EDGE('',*,*,#223,.F.);
#320=ORIENTED_EDGE('',*,*,#221,.T.);
#321=ORIENTED_EDGE('',*,*,#214,.F.);
#322=ORIENTED_EDGE('',*,*,#212,.T.);
#323=ORIENTED_EDGE('',*,*,#194,.F.);
#324=ORIENTED_EDGE('',*,*,#218,.T.);
#325=ORIENTED_EDGE('',*,*,#232,.F.);
#326=ORIENTED_EDGE('',*,*,#230,.F.);
#327=ORIENTED_EDGE('',*,*,#228,.F.);
#328=ORIENTED_EDGE('',*,*,#226,.F.);
#329=CYLINDRICAL_SURFACE('',#377,0.5);
#330=CYLINDRICAL_SURFACE('',#380,0.5);
#331=CYLINDRICAL_SURFACE('',#385,0.5);
#332=CYLINDRICAL_SURFACE('',#391,0.5);
#333=CYLINDRICAL_SURFACE('',#398,0.5);
#334=CYLINDRICAL_SURFACE('',#401,0.5);
#335=CYLINDRICAL_SURFACE('',#407,0.5);
#336=CYLINDRICAL_SURFACE('',#410,0.5);
#337=CYLINDRICAL_SURFACE('',#414,1.);
#338=CYLINDRICAL_SURFACE('',#416,1.);
#339=CYLINDRICAL_SURFACE('',#418,0.999999999999996);
#340=CYLINDRICAL_SURFACE('',#420,0.999999999999996);
#341=ADVANCED_FACE('',(#33),#329,.T.);
#342=ADVANCED_FACE('',(#34),#330,.T.);
#343=ADVANCED_FACE('',(#35),#29,.T.);
#344=ADVANCED_FACE('',(#36),#331,.T.);
#345=ADVANCED_FACE('',(#37),#30,.T.);
#346=ADVANCED_FACE('',(#38),#23,.T.);
#347=ADVANCED_FACE('',(#39),#332,.T.);
#348=ADVANCED_FACE('',(#40,#15,#16,#17,#18),#24,.T.);
#349=ADVANCED_FACE('',(#41),#333,.T.);
#350=ADVANCED_FACE('',(#42),#25,.T.);
#351=ADVANCED_FACE('',(#43),#334,.T.);
#352=ADVANCED_FACE('',(#44),#31,.T.);
#353=ADVANCED_FACE('',(#45),#26,.T.);
#354=ADVANCED_FACE('',(#46),#335,.T.);
#355=ADVANCED_FACE('',(#47),#27,.T.);
#356=ADVANCED_FACE('',(#48),#336,.T.);
#357=ADVANCED_FACE('',(#49),#32,.T.);
#358=ADVANCED_FACE('',(#50),#337,.F.);
#359=ADVANCED_FACE('',(#51),#338,.F.);
#360=ADVANCED_FACE('',(#52),#339,.F.);
#361=ADVANCED_FACE('',(#53),#340,.F.);
#362=ADVANCED_FACE('',(#54,#19,#20,#21,#22),#28,.F.);
#363=CLOSED_SHELL('',(#341,#342,#343,#344,#345,#346,#347,#348,#349,#350,
#351,#352,#353,#354,#355,#356,#357,#358,#359,#360,#361,#362));
#364=DERIVED_UNIT_ELEMENT(#366,1.);
#365=DERIVED_UNIT_ELEMENT(#645,-3.);
#366=(
MASS_UNIT()
NAMED_UNIT(*)
SI_UNIT(.KILO.,.GRAM.)
);
#367=DERIVED_UNIT((#364,#365));
#368=MEASURE_REPRESENTATION_ITEM('density measure',
POSITIVE_RATIO_MEASURE(7850.),#367);
#369=PROPERTY_DEFINITION_REPRESENTATION(#374,#371);
#370=PROPERTY_DEFINITION_REPRESENTATION(#375,#372);
#371=REPRESENTATION('material name',(#373),#642);
#372=REPRESENTATION('density',(#368),#642);
#373=DESCRIPTIVE_REPRESENTATION_ITEM('Steel','Steel');
#374=PROPERTY_DEFINITION('material property','material name',#652);
#375=PROPERTY_DEFINITION('material property','density of part',#652);
#376=AXIS2_PLACEMENT_3D('',#541,#423,#424);
#377=AXIS2_PLACEMENT_3D('',#542,#425,#426);
#378=AXIS2_PLACEMENT_3D('',#545,#427,#428);
#379=AXIS2_PLACEMENT_3D('',#549,#430,#431);
#380=AXIS2_PLACEMENT_3D('',#551,#433,#434);
#381=AXIS2_PLACEMENT_3D('',#553,#435,#436);
#382=AXIS2_PLACEMENT_3D('',#557,#438,#439);
#383=AXIS2_PLACEMENT_3D('',#559,#441,#442);
#384=AXIS2_PLACEMENT_3D('',#560,#443,#444);
#385=AXIS2_PLACEMENT_3D('',#561,#445,#446);
#386=AXIS2_PLACEMENT_3D('',#564,#447,#448);
#387=AXIS2_PLACEMENT_3D('',#567,#450,#451);
#388=AXIS2_PLACEMENT_3D('',#569,#453,#454);
#389=AXIS2_PLACEMENT_3D('',#570,#455,#456);
#390=AXIS2_PLACEMENT_3D('',#571,#457,#458);
#391=AXIS2_PLACEMENT_3D('',#577,#462,#463);
#392=AXIS2_PLACEMENT_3D('',#580,#465,#466);
#393=AXIS2_PLACEMENT_3D('',#581,#467,#468);
#394=AXIS2_PLACEMENT_3D('',#586,#471,#472);
#395=AXIS2_PLACEMENT_3D('',#588,#473,#474);
#396=AXIS2_PLACEMENT_3D('',#590,#475,#476);
#397=AXIS2_PLACEMENT_3D('',#592,#477,#478);
#398=AXIS2_PLACEMENT_3D('',#593,#479,#480);
#399=AXIS2_PLACEMENT_3D('',#596,#482,#483);
#400=AXIS2_PLACEMENT_3D('',#597,#484,#485);
#401=AXIS2_PLACEMENT_3D('',#601,#488,#489);
#402=AXIS2_PLACEMENT_3D('',#603,#490,#491);
#403=AXIS2_PLACEMENT_3D('',#606,#493,#494);
#404=AXIS2_PLACEMENT_3D('',#607,#495,#496);
#405=AXIS2_PLACEMENT_3D('',#608,#497,#498);
#406=AXIS2_PLACEMENT_3D('',#609,#499,#500);
#407=AXIS2_PLACEMENT_3D('',#611,#502,#503);
#408=AXIS2_PLACEMENT_3D('',#614,#505,#506);
#409=AXIS2_PLACEMENT_3D('',#615,#507,#508);
#410=AXIS2_PLACEMENT_3D('',#619,#511,#512);
#411=AXIS2_PLACEMENT_3D('',#620,#513,#514);
#412=AXIS2_PLACEMENT_3D('',#621,#515,#516);
#413=AXIS2_PLACEMENT_3D('',#622,#517,#518);
#414=AXIS2_PLACEMENT_3D('',#623,#519,#520);
#415=AXIS2_PLACEMENT_3D('',#626,#522,#523);
#416=AXIS2_PLACEMENT_3D('',#627,#524,#525);
#417=AXIS2_PLACEMENT_3D('',#630,#527,#528);
#418=AXIS2_PLACEMENT_3D('',#631,#529,#530);
#419=AXIS2_PLACEMENT_3D('',#634,#532,#533);
#420=AXIS2_PLACEMENT_3D('',#635,#534,#535);
#421=AXIS2_PLACEMENT_3D('',#638,#537,#538);
#422=AXIS2_PLACEMENT_3D('',#639,#539,#540);
#423=DIRECTION('axis',(0.,0.,1.));
#424=DIRECTION('refdir',(1.,0.,0.));
#425=DIRECTION('center_axis',(0.,1.,0.));
#426=DIRECTION('ref_axis',(-0.707106781186541,0.,0.707106781186554));
#427=DIRECTION('center_axis',(0.,1.,0.));
#428=DIRECTION('ref_axis',(-0.707106781186541,0.,0.707106781186554));
#429=DIRECTION('',(0.,1.,0.));
#430=DIRECTION('center_axis',(0.,-1.,0.));
#431=DIRECTION('ref_axis',(0.,0.,1.));
#432=DIRECTION('',(0.,-1.,0.));
#433=DIRECTION('center_axis',(1.,0.,0.));
#434=DIRECTION('ref_axis',(0.,0.707106781186542,0.707106781186553));
#435=DIRECTION('center_axis',(1.,0.,0.));
#436=DIRECTION('ref_axis',(0.,1.,0.));
#437=DIRECTION('',(1.,0.,0.));
#438=DIRECTION('center_axis',(-1.,-1.77635683940025E-14,0.));
#439=DIRECTION('ref_axis',(0.,0.,1.));
#440=DIRECTION('',(-1.,0.,0.));
#441=DIRECTION('center_axis',(-0.40824829046386,-0.816496580927729,0.40824829046386));
#442=DIRECTION('ref_axis',(-0.577350269189625,0.577350269189627,0.577350269189625));
#443=DIRECTION('center_axis',(0.,0.,1.));
#444=DIRECTION('ref_axis',(-0.707106781186546,0.707106781186549,0.));
#445=DIRECTION('center_axis',(0.,1.,0.));
#446=DIRECTION('ref_axis',(0.707106781186535,0.,0.70710678118656));
#447=DIRECTION('center_axis',(0.,1.,0.));
#448=DIRECTION('ref_axis',(0.707106781186535,0.,0.70710678118656));
#449=DIRECTION('',(0.,1.,0.));
#450=DIRECTION('center_axis',(0.,-1.,0.));
#451=DIRECTION('ref_axis',(1.,0.,0.));
#452=DIRECTION('',(0.,-1.,0.));
#453=DIRECTION('center_axis',(0.408248290463859,-0.81649658092773,0.408248290463859));
#454=DIRECTION('ref_axis',(0.577350269189627,0.577350269189624,0.577350269189627));
#455=DIRECTION('center_axis',(0.,0.,1.));
#456=DIRECTION('ref_axis',(0.707106781186543,0.707106781186552,0.));
#457=DIRECTION('center_axis',(-1.,0.,0.));
#458=DIRECTION('ref_axis',(0.,0.,1.));
#459=DIRECTION('',(0.,0.,1.));
#460=DIRECTION('',(0.,1.,0.));
#461=DIRECTION('',(0.,0.,-1.));
#462=DIRECTION('center_axis',(0.,0.,1.));
#463=DIRECTION('ref_axis',(-0.707106781186546,0.707106781186549,0.));
#464=DIRECTION('',(0.,0.,-1.));
#465=DIRECTION('center_axis',(0.,0.,-1.));
#466=DIRECTION('ref_axis',(-0.707106781186546,0.707106781186549,0.));
#467=DIRECTION('center_axis',(0.,1.,0.));
#468=DIRECTION('ref_axis',(1.,0.,0.));
#469=DIRECTION('',(0.,0.,1.));
#470=DIRECTION('',(1.,0.,0.));
#471=DIRECTION('center_axis',(0.,-1.,0.));
#472=DIRECTION('ref_axis',(1.,0.,0.));
#473=DIRECTION('center_axis',(0.,-1.,0.));
#474=DIRECTION('ref_axis',(1.,0.,0.));
#475=DIRECTION('center_axis',(0.,-1.,0.));
#476=DIRECTION('ref_axis',(1.,0.,0.));
#477=DIRECTION('center_axis',(0.,-1.,0.));
#478=DIRECTION('ref_axis',(1.,0.,0.));
#479=DIRECTION('center_axis',(0.,0.,-1.));
#480=DIRECTION('ref_axis',(0.70710678118654,0.707106781186555,0.));
#481=DIRECTION('',(0.,0.,-1.));
#482=DIRECTION('center_axis',(0.,1.77635683940025E-14,1.));
#483=DIRECTION('ref_axis',(1.,0.,0.));
#484=DIRECTION('center_axis',(1.,0.,0.));
#485=DIRECTION('ref_axis',(0.,0.,-1.));
#486=DIRECTION('',(0.,0.,1.));
#487=DIRECTION('',(0.,-1.,0.));
#488=DIRECTION('center_axis',(0.,1.,0.));
#489=DIRECTION('ref_axis',(0.707106781186554,0.,-0.707106781186541));
#490=DIRECTION('center_axis',(0.,1.,0.));
#491=DIRECTION('ref_axis',(0.707106781186554,0.,-0.707106781186541));
#492=DIRECTION('',(0.,1.,0.));
#493=DIRECTION('center_axis',(0.,-1.,0.));
#494=DIRECTION('ref_axis',(0.,0.,-1.));
#495=DIRECTION('center_axis',(-0.816496580927732,0.408248290463864,-0.408248290463852));
#496=DIRECTION('ref_axis',(0.577350269189622,0.577350269189633,-0.577350269189622));
#497=DIRECTION('center_axis',(1.,0.,0.));
#498=DIRECTION('ref_axis',(0.,0.707106781186549,-0.707106781186546));
#499=DIRECTION('center_axis',(0.,0.,1.));
#500=DIRECTION('ref_axis',(1.,0.,0.));
#501=DIRECTION('',(-1.,0.,0.));
#502=DIRECTION('center_axis',(-1.,0.,0.));
#503=DIRECTION('ref_axis',(0.,0.707106781186549,-0.707106781186546));
#504=DIRECTION('',(-1.,0.,0.));
#505=DIRECTION('center_axis',(1.,-8.88178419700125E-15,0.));
#506=DIRECTION('ref_axis',(0.,0.,-1.));
#507=DIRECTION('center_axis',(0.,0.,-1.));
#508=DIRECTION('ref_axis',(-1.,0.,0.));
#509=DIRECTION('',(1.,0.,0.));
#510=DIRECTION('',(0.,-1.,0.));
#511=DIRECTION('center_axis',(0.,1.,0.));
#512=DIRECTION('ref_axis',(-0.707106781186548,0.,-0.707106781186548));
#513=DIRECTION('center_axis',(0.,1.,0.));
#514=DIRECTION('ref_axis',(-0.707106781186548,0.,-0.707106781186548));
#515=DIRECTION('center_axis',(0.,-1.,0.));
#516=DIRECTION('ref_axis',(-1.,0.,0.));
#517=DIRECTION('center_axis',(0.408248290463861,-0.408248290463861,-0.816496580927728));
#518=DIRECTION('ref_axis',(-0.57735026918963,0.577350269189625,-0.577350269189623));
#519=DIRECTION('center_axis',(0.,1.,0.));
#520=DIRECTION('ref_axis',(1.,0.,0.));
#521=DIRECTION('',(0.,-1.,0.));
#522=DIRECTION('center_axis',(0.,-1.,0.));
#523=DIRECTION('ref_axis',(1.,0.,0.));
#524=DIRECTION('center_axis',(0.,1.,0.));
#525=DIRECTION('ref_axis',(1.,0.,0.));
#526=DIRECTION('',(0.,-1.,0.));
#527=DIRECTION('center_axis',(0.,-1.,0.));
#528=DIRECTION('ref_axis',(1.,0.,0.));
#529=DIRECTION('center_axis',(0.,1.,0.));
#530=DIRECTION('ref_axis',(1.,0.,0.));
#531=DIRECTION('',(0.,-1.,0.));
#532=DIRECTION('center_axis',(0.,-1.,0.));
#533=DIRECTION('ref_axis',(1.,0.,0.));
#534=DIRECTION('center_axis',(0.,1.,0.));
#535=DIRECTION('ref_axis',(1.,0.,0.));
#536=DIRECTION('',(0.,-1.,0.));
#537=DIRECTION('center_axis',(0.,-1.,0.));
#538=DIRECTION('ref_axis',(1.,0.,0.));
#539=DIRECTION('center_axis',(0.,1.,0.));
#540=DIRECTION('ref_axis',(1.,0.,0.));
#541=CARTESIAN_POINT('',(0.,0.,0.));
#542=CARTESIAN_POINT('Origin',(-24.500000372529,0.,112.999999657273));
#543=CARTESIAN_POINT('',(-25.000000372529,0.,112.999999657273));
#544=CARTESIAN_POINT('',(-24.500000372529,0.,113.499999657273));
#545=CARTESIAN_POINT('Origin',(-24.500000372529,0.,112.999999657273));
#546=CARTESIAN_POINT('',(-24.500000372529,1.5,113.499999657273));
#547=CARTESIAN_POINT('',(-24.500000372529,0.,113.499999657273));
#548=CARTESIAN_POINT('',(-25.000000372529,1.5,112.999999657273));
#549=CARTESIAN_POINT('Origin',(-24.500000372529,1.5,112.999999657273));
#550=CARTESIAN_POINT('',(-25.000000372529,0.,112.999999657273));
#551=CARTESIAN_POINT('Origin',(-4.50000037252903,1.5,112.999999657273));
#552=CARTESIAN_POINT('',(-24.500000372529,2.,112.999999657273));
#553=CARTESIAN_POINT('Origin',(-24.500000372529,1.5,112.999999657273));
#554=CARTESIAN_POINT('',(56.499999627471,1.5,113.499999657273));
#555=CARTESIAN_POINT('',(-4.50000037252903,1.5,113.499999657273));
#556=CARTESIAN_POINT('',(56.499999627471,2.,112.999999657273));
#557=CARTESIAN_POINT('Origin',(56.499999627471,1.5,112.999999657273));
#558=CARTESIAN_POINT('',(-4.50000037252903,2.,112.999999657273));
#559=CARTESIAN_POINT('Origin',(-24.500000372529,1.5,112.999999657273));
#560=CARTESIAN_POINT('Origin',(-24.500000372529,1.5,112.999999657273));
#561=CARTESIAN_POINT('Origin',(56.499999627471,0.,112.999999657273));
#562=CARTESIAN_POINT('',(56.499999627471,0.,113.499999657273));
#563=CARTESIAN_POINT('',(56.999999627471,0.,112.999999657273));
#564=CARTESIAN_POINT('Origin',(56.499999627471,0.,112.999999657273));
#565=CARTESIAN_POINT('',(56.999999627471,1.5,112.999999657273));
#566=CARTESIAN_POINT('',(56.999999627471,0.,112.999999657273));
#567=CARTESIAN_POINT('Origin',(56.499999627471,1.5,112.999999657273));
#568=CARTESIAN_POINT('',(56.499999627471,0.,113.499999657273));
#569=CARTESIAN_POINT('Origin',(56.499999627471,1.5,112.999999657273));
#570=CARTESIAN_POINT('Origin',(56.499999627471,1.5,112.999999657273));
#571=CARTESIAN_POINT('Origin',(-25.000000372529,0.,-23.0000003427267));
#572=CARTESIAN_POINT('',(-25.000000372529,1.5,-22.5000003427267));
#573=CARTESIAN_POINT('',(-25.000000372529,1.5,11.1249996572733));
#574=CARTESIAN_POINT('',(-25.000000372529,0.,-22.5000003427267));
#575=CARTESIAN_POINT('',(-25.000000372529,0.,-22.5000003427267));
#576=CARTESIAN_POINT('',(-25.000000372529,0.,113.499999657273));
#577=CARTESIAN_POINT('Origin',(-24.500000372529,1.5,11.1249996572733));
#578=CARTESIAN_POINT('',(-24.500000372529,2.,-22.5000003427267));
#579=CARTESIAN_POINT('',(-24.500000372529,2.,11.1249996572733));
#580=CARTESIAN_POINT('Origin',(-24.500000372529,1.5,-22.5000003427267));
#581=CARTESIAN_POINT('Origin',(15.999999627471,2.,45.2499996572733));
#582=CARTESIAN_POINT('',(56.499999627471,2.,-22.5000003427267));
#583=CARTESIAN_POINT('',(56.499999627471,2.,79.3749996572733));
#584=CARTESIAN_POINT('',(36.499999627471,2.,-22.5000003427267));
#585=CARTESIAN_POINT('',(-23.000000372529,2.,-20.0000003427267));
#586=CARTESIAN_POINT('Origin',(-22.000000372529,2.,-20.0000003427267));
#587=CARTESIAN_POINT('',(-23.000000372529,2.,110.499999657273));
#588=CARTESIAN_POINT('Origin',(-22.000000372529,2.,110.499999657273));
#589=CARTESIAN_POINT('',(52.999999627471,2.,110.499999657273));
#590=CARTESIAN_POINT('Origin',(53.999999627471,2.,110.499999657273));
#591=CARTESIAN_POINT('',(52.999999627471,2.,-20.0000003427267));
#592=CARTESIAN_POINT('Origin',(53.999999627471,2.,-20.0000003427267));
#593=CARTESIAN_POINT('Origin',(56.499999627471,1.5,79.3749996572733));
#594=CARTESIAN_POINT('',(56.999999627471,1.5,-22.5000003427267));
#595=CARTESIAN_POINT('',(56.999999627471,1.5,79.3749996572733));
#596=CARTESIAN_POINT('Origin',(56.499999627471,1.5,-22.5000003427267));
#597=CARTESIAN_POINT('Origin',(56.999999627471,0.,113.499999657273));
#598=CARTESIAN_POINT('',(56.999999627471,0.,-22.5000003427267));
#599=CARTESIAN_POINT('',(56.999999627471,0.,-23.0000003427267));
#600=CARTESIAN_POINT('',(56.999999627471,0.,-22.5000003427267));
#601=CARTESIAN_POINT('Origin',(56.499999627471,0.,-22.5000003427267));
#602=CARTESIAN_POINT('',(56.499999627471,0.,-23.0000003427267));
#603=CARTESIAN_POINT('Origin',(56.499999627471,0.,-22.5000003427267));
#604=CARTESIAN_POINT('',(56.499999627471,1.5,-23.0000003427267));
#605=CARTESIAN_POINT('',(56.499999627471,0.,-23.0000003427267));
#606=CARTESIAN_POINT('Origin',(56.499999627471,1.5,-22.5000003427267));
#607=CARTESIAN_POINT('Origin',(56.499999627471,1.5,-22.5000003427267));
#608=CARTESIAN_POINT('Origin',(56.499999627471,1.5,-22.5000003427267));
#609=CARTESIAN_POINT('Origin',(-25.000000372529,0.,113.499999657273));
#610=CARTESIAN_POINT('',(56.999999627471,0.,113.499999657273));
#611=CARTESIAN_POINT('Origin',(36.499999627471,1.5,-22.5000003427267));
#612=CARTESIAN_POINT('',(-24.500000372529,1.5,-23.0000003427267));
#613=CARTESIAN_POINT('',(36.499999627471,1.5,-23.0000003427267));
#614=CARTESIAN_POINT('Origin',(-24.500000372529,1.5,-22.5000003427267));
#615=CARTESIAN_POINT('Origin',(56.999999627471,0.,-23.0000003427267));
#616=CARTESIAN_POINT('',(-24.500000372529,0.,-23.0000003427267));
#617=CARTESIAN_POINT('',(-25.000000372529,0.,-23.0000003427267));
#618=CARTESIAN_POINT('',(-24.500000372529,0.,-23.0000003427267));
#619=CARTESIAN_POINT('Origin',(-24.500000372529,0.,-22.5000003427267));
#620=CARTESIAN_POINT('Origin',(-24.500000372529,0.,-22.5000003427267));
#621=CARTESIAN_POINT('Origin',(-24.500000372529,1.5,-22.5000003427267));
#622=CARTESIAN_POINT('Origin',(-24.500000372529,1.5,-22.5000003427267));
#623=CARTESIAN_POINT('Origin',(-22.000000372529,0.,-20.0000003427267));
#624=CARTESIAN_POINT('',(-23.000000372529,0.,-20.0000003427267));
#625=CARTESIAN_POINT('',(-23.000000372529,0.,-20.0000003427267));
#626=CARTESIAN_POINT('Origin',(-22.000000372529,0.,-20.0000003427267));
#627=CARTESIAN_POINT('Origin',(-22.000000372529,0.,110.499999657273));
#628=CARTESIAN_POINT('',(-23.000000372529,0.,110.499999657273));
#629=CARTESIAN_POINT('',(-23.000000372529,0.,110.499999657273));
#630=CARTESIAN_POINT('Origin',(-22.000000372529,0.,110.499999657273));
#631=CARTESIAN_POINT('Origin',(53.999999627471,0.,110.499999657273));
#632=CARTESIAN_POINT('',(52.999999627471,0.,110.499999657273));
#633=CARTESIAN_POINT('',(52.999999627471,0.,110.499999657273));
#634=CARTESIAN_POINT('Origin',(53.999999627471,0.,110.499999657273));
#635=CARTESIAN_POINT('Origin',(53.999999627471,0.,-20.0000003427267));
#636=CARTESIAN_POINT('',(52.999999627471,0.,-20.0000003427267));
#637=CARTESIAN_POINT('',(52.999999627471,0.,-20.0000003427267));
#638=CARTESIAN_POINT('Origin',(53.999999627471,0.,-20.0000003427267));
#639=CARTESIAN_POINT('Origin',(15.999999627471,0.,45.2499996572733));
#640=UNCERTAINTY_MEASURE_WITH_UNIT(LENGTH_MEASURE(0.01),#644,
'DISTANCE_ACCURACY_VALUE',
'Maximum model space distance between geometric entities at asserted c
onnectivities');
#641=UNCERTAINTY_MEASURE_WITH_UNIT(LENGTH_MEASURE(0.01),#644,
'DISTANCE_ACCURACY_VALUE',
'Maximum model space distance between geometric entities at asserted c
onnectivities');
#642=(
GEOMETRIC_REPRESENTATION_CONTEXT(3)
GLOBAL_UNCERTAINTY_ASSIGNED_CONTEXT((#640))
GLOBAL_UNIT_ASSIGNED_CONTEXT((#644,#646,#647))
REPRESENTATION_CONTEXT('','3D')
);
#643=(
GEOMETRIC_REPRESENTATION_CONTEXT(3)
GLOBAL_UNCERTAINTY_ASSIGNED_CONTEXT((#641))
GLOBAL_UNIT_ASSIGNED_CONTEXT((#644,#646,#647))
REPRESENTATION_CONTEXT('','3D')
);
#644=(
LENGTH_UNIT()
NAMED_UNIT(*)
SI_UNIT(.MILLI.,.METRE.)
);
#645=(
LENGTH_UNIT()
NAMED_UNIT(*)
SI_UNIT($,.METRE.)
);
#646=(
NAMED_UNIT(*)
PLANE_ANGLE_UNIT()
SI_UNIT($,.RADIAN.)
);
#647=(
NAMED_UNIT(*)
SI_UNIT($,.STERADIAN.)
SOLID_ANGLE_UNIT()
);
#648=SHAPE_DEFINITION_REPRESENTATION(#649,#650);
#649=PRODUCT_DEFINITION_SHAPE('',$,#652);
#650=SHAPE_REPRESENTATION('',(#376),#642);
#651=PRODUCT_DEFINITION_CONTEXT('part definition',#656,'design');
#652=PRODUCT_DEFINITION('2026-09-05-10-46-08-731','Kyber - top v2',#653,
#651);
#653=PRODUCT_DEFINITION_FORMATION('',$,#658);
#654=PRODUCT_RELATED_PRODUCT_CATEGORY('Kyber - top v2','Kyber - top v2',
(#658));
#655=APPLICATION_PROTOCOL_DEFINITION('international standard',
'automotive_design',2009,#656);
#656=APPLICATION_CONTEXT(
'Core Data for Automotive Mechanical Design Process');
#657=PRODUCT_CONTEXT('part definition',#656,'mechanical');
#658=PRODUCT('2026-09-05-10-46-08-731','Kyber - top v2',$,(#657));
#659=PRESENTATION_STYLE_ASSIGNMENT((#660));
#660=SURFACE_STYLE_USAGE(.BOTH.,#661);
#661=SURFACE_SIDE_STYLE('',(#662));
#662=SURFACE_STYLE_FILL_AREA(#663);
#663=FILL_AREA_STYLE('Steel - Satin',(#664));
#664=FILL_AREA_STYLE_COLOUR('Steel - Satin',#665);
#665=COLOUR_RGB('Steel - Satin',0.627450980392157,0.627450980392157,0.627450980392157);
ENDSEC;
END-ISO-10303-21;
